<svg xmlns="http://www.w3.org/2000/svg" width="94" height="26" viewBox="0 0 53 18" fill="none">
    <path
        d="M2.0804 6.19483C2.05685 6.2122 2.03787 6.23451 2.02497 6.25998C2.01206 6.28544 2.00558 6.31338 2.00603 6.34161V16.3912C2.00603 16.4334 2.02053 16.4745 2.04735 16.5083C2.06276 16.5269 2.08199 16.5423 2.10389 16.5537C2.12578 16.565 2.14989 16.5721 2.17475 16.5744C2.19961 16.5768 2.22472 16.5743 2.24855 16.5673C2.27239 16.5602 2.29445 16.5486 2.31343 16.5333L4.76605 14.5643C5.26773 14.1617 5.90433 13.9404 6.56254 13.9397H15.0277C15.0529 13.9393 15.0777 13.9342 15.1008 13.9247C15.1239 13.9152 15.1448 13.9015 15.1623 13.8844C15.1798 13.8673 15.1936 13.8471 15.2028 13.825C15.212 13.8028 15.2165 13.7792 15.2161 13.7554V6.3463C15.2162 6.31796 15.2094 6.28997 15.1963 6.26451C15.1831 6.23906 15.1638 6.21681 15.1401 6.19952L8.73254 1.46517C8.70011 1.44085 8.65991 1.42762 8.6185 1.42762C8.5771 1.42762 8.5369 1.44085 8.50447 1.46517L2.0804 6.19483ZM0.683867 6.34161C0.682776 6.11485 0.736387 5.89082 0.840624 5.68655C0.944861 5.48228 1.09699 5.30313 1.28545 5.16271L7.70456 0.433047C7.96363 0.240301 8.2838 0.135498 8.61355 0.135498C8.9433 0.135498 9.26347 0.240301 9.52254 0.433047L15.9433 5.16271C16.1316 5.30321 16.2834 5.48241 16.3874 5.68669C16.4913 5.89096 16.5446 6.11496 16.5432 6.34161V13.7507C16.5503 14.1356 16.3953 14.5074 16.1124 14.7844C15.8295 15.0614 15.4417 15.2209 15.0343 15.2279H6.56915C6.21804 15.2286 5.87871 15.3476 5.61223 15.5636L3.15301 17.5357C2.96985 17.6833 2.75151 17.7868 2.51672 17.8371C2.24354 17.888 1.96086 17.8677 1.69888 17.7786C1.4369 17.6895 1.20547 17.5349 1.02929 17.3312C0.80612 17.0646 0.685485 16.7342 0.687176 16.3943C0.665691 10.8823 0.672298 6.86627 0.683867 6.34161ZM23.2763 14.7157C22.7882 14.7279 22.3026 14.6471 21.8482 14.4781C21.3939 14.309 20.9803 14.0553 20.632 13.732C20.2748 13.3949 19.9936 12.993 19.8053 12.5505C19.617 12.108 19.5254 11.634 19.5363 11.1572V1.74624C19.5275 1.42692 19.6501 1.11681 19.8784 0.881185C19.9836 0.769214 20.1133 0.680215 20.2586 0.620357C20.4039 0.560498 20.5612 0.531218 20.7196 0.534545C20.8877 0.534123 21.0542 0.565243 21.2094 0.626104C21.3647 0.686964 21.5056 0.776352 21.624 0.889076C21.7424 1.0018 21.8359 1.13561 21.8991 1.28276C21.9623 1.4299 21.9939 1.58745 21.9922 1.74624V11.1572C21.9922 11.9254 22.4351 12.347 23.2201 12.3579H23.2763C23.4396 12.3553 23.6016 12.3847 23.7521 12.4444C23.9026 12.504 24.0383 12.5927 24.1506 12.7046C24.2649 12.8161 24.3542 12.9483 24.4132 13.0931C24.4723 13.238 24.4999 13.3926 24.4944 13.5478C24.503 13.7018 24.4775 13.8559 24.4196 14.0001C24.3617 14.1444 24.2726 14.2756 24.158 14.3855C24.0434 14.4954 23.9058 14.5815 23.754 14.6384C23.6022 14.6952 23.4395 14.7216 23.2763 14.7157ZM27.8576 3.20621C27.6791 3.2074 27.5022 3.17344 27.3383 3.1065C27.1744 3.03956 27.0271 2.94109 26.9057 2.81739C26.7763 2.6944 26.6743 2.5481 26.6059 2.38716C26.5375 2.22622 26.504 2.05393 26.5074 1.88052C26.5066 1.53126 26.6494 1.19537 26.9057 0.943647C27.0279 0.821696 27.1757 0.725116 27.3396 0.660061C27.5035 0.595005 27.6799 0.562899 27.8576 0.565776C28.0352 0.563935 28.2113 0.596516 28.3751 0.661509C28.5388 0.726503 28.6867 0.822525 28.8096 0.943647C29.0653 1.19573 29.208 1.53139 29.2079 1.88052C29.211 2.05388 29.1773 2.22607 29.1089 2.38696C29.0405 2.54785 28.9387 2.69419 28.8096 2.81739C28.6867 2.93966 28.5388 3.03715 28.3749 3.10397C28.211 3.17079 28.0345 3.20558 27.856 3.20621H27.8576ZM27.8576 14.8141C27.5259 14.8096 27.2092 14.6826 26.9753 14.4602C26.7415 14.2378 26.6091 13.9377 26.6065 13.6243V5.47812C26.6098 5.16115 26.7452 4.85816 26.9834 4.63493C27.0981 4.52268 27.2354 4.43322 27.3873 4.37182C27.5391 4.31041 27.7024 4.27831 27.8676 4.27737C28.0301 4.27624 28.1912 4.3075 28.3401 4.36911C28.489 4.43072 28.6225 4.52129 28.7319 4.63493C28.9511 4.86711 29.0728 5.16703 29.074 5.47812V13.6243C29.0776 13.78 29.0481 13.9348 28.9874 14.0796C28.9266 14.2244 28.8358 14.3563 28.7204 14.4675C28.6099 14.5791 28.476 14.6676 28.3271 14.7274C28.1782 14.7871 28.0177 14.8166 27.856 14.8141H27.8576ZM35.8551 14.7266C35.6091 14.7292 35.368 14.6628 35.162 14.5357C34.9561 14.4087 34.7947 14.2268 34.6982 14.0131L31.1796 5.97624C31.1078 5.8223 31.0669 5.65711 31.0589 5.48906C31.0609 5.17606 31.1871 4.87514 31.4126 4.64587C31.5238 4.52866 31.6602 4.43516 31.8127 4.37162C31.9651 4.30809 32.1302 4.27596 32.2968 4.27737C32.5359 4.2825 32.7683 4.3525 32.9664 4.47903C33.1645 4.60556 33.3199 4.78327 33.414 4.99095L35.827 10.7028L38.2267 5.00189C38.3192 4.79002 38.4754 4.60843 38.6761 4.47964C38.8767 4.35086 39.113 4.28053 39.3555 4.27737C39.5224 4.27584 39.6877 4.30789 39.8405 4.37143C39.9932 4.43497 40.1299 4.52854 40.2414 4.64587C40.4532 4.87709 40.5705 5.17231 40.5719 5.47812C40.5707 5.65302 40.5331 5.826 40.4612 5.98716L36.964 14.0131C36.6947 14.5174 36.3327 14.7266 35.8534 14.7266H35.8551ZM46.8621 14.836C46.1506 14.8348 45.4467 14.6971 44.7933 14.4311C44.1399 14.165 43.5505 13.7764 43.0609 13.2885C42.0284 12.2962 41.4517 10.9591 41.4561 9.5676C41.451 8.17019 42.0225 6.8259 43.0493 5.82009C43.5389 5.33229 44.1283 4.94357 44.7817 4.67757C45.4352 4.41157 46.139 4.27382 46.8505 4.27268C47.5639 4.27596 48.2693 4.41461 48.9248 4.68043C49.5804 4.94625 50.1727 5.33382 50.6666 5.82009C51.6816 6.83226 52.2476 8.17332 52.2483 9.5676C52.2562 10.9556 51.6884 12.2913 50.6666 13.2885C50.1733 13.7726 49.5823 14.1583 48.9286 14.423C48.2749 14.6877 47.5717 14.826 46.8604 14.8297L46.8621 14.836ZM46.8621 12.4344C47.2529 12.4343 47.6396 12.3594 47.9989 12.2142C48.3582 12.069 48.6827 11.8566 48.9528 11.5897C49.5012 11.043 49.8059 10.3178 49.8037 9.56462C49.8016 8.8114 49.4927 8.08784 48.9412 7.54393C48.6724 7.2807 48.3501 7.07135 47.9938 6.92836C47.6374 6.78537 47.2542 6.71168 46.8671 6.71168C46.4799 6.71168 46.0967 6.78537 45.7403 6.92836C45.384 7.07135 45.0618 7.2807 44.7929 7.54393C44.2396 8.08759 43.9305 8.81256 43.9305 9.56682C43.9305 10.3211 44.2396 11.046 44.7929 11.5897C45.0591 11.8553 45.3796 12.0672 45.735 12.2124C46.0904 12.3576 46.4733 12.4331 46.8604 12.4344H46.8621Z"
        fill="#1552F5"></path>
</svg>