<svg xmlns="http://www.w3.org/2000/svg" width="94" height="26" viewBox="0 0 66 20" fill="none">
    <path
        d="M55.4992 0.329592H10.3039C7.75165 0.328019 5.30219 1.31762 3.48936 3.08274C2.59573 3.95296 1.88626 4.98836 1.40185 6.12926C0.917451 7.27014 0.667699 8.49397 0.666992 9.73012V10.2702C0.667763 11.5063 0.917553 12.7301 1.40195 13.8709C1.88635 15.0117 2.59579 16.047 3.48936 16.9171C5.30219 18.6823 7.75165 19.6719 10.3039 19.6703H55.4992C58.0516 19.6718 60.501 18.6822 62.3138 16.9171C63.2075 16.0468 63.9167 15.0114 64.4009 13.8705C64.8852 12.7297 65.1355 11.5059 65.136 10.2698V9.73012C65.1355 8.49402 64.8858 7.27031 64.4009 6.12954C63.9167 4.98871 63.2075 3.95338 62.3138 3.08323C60.501 1.31806 58.0516 0.328305 55.4992 0.329592Z"
        fill="#FD4100"></path>
    <path
        d="M46.6812 10.2103C46.6791 11.1674 46.4844 12.1148 46.1083 12.9978C45.7322 13.8807 45.1821 14.682 44.4897 15.3553C43.0853 16.7213 41.1888 17.4874 39.2126 17.4872H10.7025C8.72551 17.4883 6.82802 16.7227 5.42242 15.3568C4.72911 14.6835 4.17813 13.8822 3.80119 12.999C3.42425 12.1158 3.22879 11.168 3.22605 10.2103V9.78907C3.22866 8.83154 3.42392 7.8839 3.8006 7.00075C4.17729 6.1176 4.72796 5.31633 5.42094 4.64301C6.8269 3.27673 8.725 2.5111 10.7025 2.51264H39.2116C41.1877 2.51224 43.0842 3.27819 44.4887 4.64398C45.1813 5.31727 45.7315 6.11848 46.1078 7.00147C46.4841 7.88445 46.679 8.83182 46.6812 9.78907V10.2103Z"
        fill="white"></path>
    <path
        d="M50.7252 11.4389C50.7206 11.6572 50.6299 11.8652 50.4722 12.0191C50.3136 12.1741 50.1003 12.2632 49.8767 12.2676C49.7609 12.2744 49.645 12.258 49.5358 12.2195C49.4267 12.1809 49.3267 12.121 49.2418 12.0433C49.1575 11.9659 49.0903 11.8724 49.0443 11.7684C48.9983 11.6644 48.9746 11.5523 48.9746 11.4389C48.9746 11.3255 48.9983 11.2133 49.0443 11.1094C49.0903 11.0054 49.1575 10.9119 49.2418 10.8345C49.3267 10.7568 49.4267 10.6968 49.5358 10.6583C49.6449 10.6197 49.7609 10.6033 49.8767 10.6101C50.1001 10.614 50.3134 10.7023 50.4722 10.8567C50.6307 11.0109 50.7214 11.2198 50.7252 11.4389Z"
        fill="white"></path>
    <path
        d="M55.7088 7.63066C55.3224 7.71233 54.9273 7.74819 54.5321 7.73753C54.8086 7.81423 55.0509 7.97973 55.2204 8.20762C55.3899 8.43545 55.4768 8.71258 55.4672 8.99467C55.4672 9.92927 54.6827 10.6116 53.3963 10.6116C53.2053 10.6165 53.0145 10.5986 52.8279 10.5583C52.7764 10.5849 52.7332 10.6247 52.7029 10.6734C52.6722 10.7219 52.6552 10.7774 52.6537 10.8344C52.6537 10.9829 52.7206 11.1313 53.198 11.1313H53.9647C55.1207 11.1313 55.8624 11.7246 55.8624 12.5335C55.8624 13.5334 54.95 14.1383 53.2442 14.1383C51.5385 14.1383 51.0001 13.6606 50.8904 12.8628C50.8874 12.8277 50.8919 12.7925 50.9035 12.7592C50.9151 12.7259 50.9336 12.6953 50.9578 12.6694C50.9828 12.6434 51.0129 12.6229 51.0464 12.609C51.0798 12.5949 51.1158 12.588 51.1522 12.5886H51.9824C52.0391 12.5884 52.0941 12.6076 52.1379 12.6429C52.1818 12.6782 52.2117 12.7274 52.2225 12.782C52.286 13.0784 52.5479 13.1853 53.29 13.1853C54.1626 13.1853 54.3574 12.9508 54.3574 12.6423C54.3574 12.3338 54.1606 12.1617 53.6606 12.1617H52.9401C51.8515 12.1617 51.4194 11.7265 51.4194 11.2068C51.4329 11.0167 51.4939 10.8329 51.597 10.6715C51.6999 10.5101 51.8418 10.3761 52.01 10.2813C51.735 10.1673 51.5018 9.97365 51.3417 9.7262C51.1819 9.47968 51.103 9.1909 51.1157 8.89891C51.1157 7.80423 52.01 7.11907 53.2964 7.11907C54.0193 7.15653 54.7379 6.98971 55.3673 6.63848C55.4187 6.61461 55.4764 6.60715 55.5324 6.61715C55.5883 6.6271 55.6397 6.65401 55.6793 6.69407C55.7054 6.72065 55.7255 6.75226 55.7383 6.78691L55.9116 7.31878C55.922 7.3521 55.9252 7.38719 55.9209 7.42178C55.9165 7.45604 55.9048 7.48897 55.8865 7.51848C55.8682 7.54843 55.8437 7.57429 55.8147 7.59441C55.785 7.61447 55.7515 7.62834 55.7162 7.63502L55.7088 7.63066ZM52.5769 8.86752C52.5624 8.97218 52.5714 9.07872 52.6034 9.17963C52.6354 9.28047 52.6896 9.37326 52.762 9.45134C52.8345 9.52936 52.9235 9.59087 53.0228 9.63143C53.1222 9.67199 53.2293 9.69066 53.3367 9.68608C53.7929 9.68608 54.0789 9.38967 54.0789 8.84669C54.0789 8.30371 53.8387 8.05759 53.3367 8.05759C53.2302 8.05466 53.1243 8.07417 53.0261 8.11478C52.9279 8.1554 52.8397 8.21618 52.7673 8.29305C52.6953 8.36953 52.6409 8.46043 52.608 8.55951C52.5751 8.65859 52.5645 8.76402 52.5769 8.86752Z"
        fill="white"></path>
    <path
        d="M60.6662 10.1189H57.5913C57.6796 10.9893 58.1178 11.2252 58.7258 11.2252C59.075 11.2177 59.4147 11.1149 59.7078 10.9284C59.7623 10.8942 59.8276 10.8803 59.8917 10.8891C59.9558 10.898 60.0149 10.929 60.0576 10.9767L60.3619 11.392C60.3827 11.4197 60.3979 11.4513 60.4063 11.4849C60.4142 11.5185 60.4148 11.5533 60.4086 11.5872C60.4024 11.6211 60.3889 11.6534 60.3698 11.6821C60.3501 11.7109 60.3248 11.7354 60.295 11.7542C59.7871 12.0945 59.187 12.2765 58.5722 12.2764C56.9147 12.2764 56.0877 11.232 56.0877 9.72536C56.0877 8.26608 56.8939 7.12061 58.4007 7.12061C59.818 7.12061 60.6875 8.03449 60.6875 9.59771C60.6915 9.77173 60.6842 9.94579 60.6662 10.1189ZM59.2488 9.19349C59.2275 8.53491 59.0329 8.07798 58.4429 8.07798C57.9412 8.07798 57.6583 8.37488 57.5913 9.26456H59.2488V9.19349Z"
        fill="white"></path>
    <path
        d="M15.1996 8.7748V12.3911C15.1995 12.4244 15.1927 12.4575 15.1796 12.4883C15.1664 12.5191 15.1471 12.5471 15.1228 12.5704C15.0985 12.5939 15.0696 12.6125 15.038 12.625C15.0063 12.6375 14.9724 12.6438 14.9382 12.6434H13.8496C13.8155 12.6438 13.7817 12.6375 13.75 12.625C13.7183 12.6125 13.6895 12.5939 13.6651 12.5704C13.6408 12.5471 13.6215 12.5191 13.6084 12.4883C13.5952 12.4575 13.5884 12.4244 13.5883 12.3911V9.05093C13.5883 8.48712 13.3915 8.33919 13.1292 8.33919C12.8039 8.33919 12.5421 8.59449 12.3231 9.03059V12.3915C12.32 12.458 12.2913 12.5209 12.2429 12.5675C12.1942 12.6143 12.1293 12.6414 12.0613 12.6434H10.9525C10.8867 12.6404 10.8248 12.6123 10.7798 12.5651C10.7349 12.5181 10.7106 12.4555 10.7123 12.3911V9.05093C10.7123 8.48712 10.4933 8.33919 10.232 8.33919C9.90377 8.33919 9.64145 8.59449 9.4018 9.03059V12.3915C9.40304 12.4233 9.39786 12.4549 9.38667 12.4847C9.37542 12.5145 9.35832 12.5418 9.33633 12.5651C9.29179 12.6123 9.23009 12.6405 9.16456 12.6434H8.04892C7.98086 12.6414 7.91601 12.6143 7.86731 12.5675C7.81888 12.5209 7.7902 12.458 7.7871 12.3915V7.60469C7.78947 7.53766 7.81781 7.474 7.86635 7.42675C7.91506 7.37923 7.9803 7.3516 8.04892 7.34939H8.98397C9.04381 7.34851 9.1018 7.36972 9.1464 7.4089C9.19094 7.44781 9.21873 7.5019 9.22413 7.5602L9.3122 7.98719C9.48684 7.73775 9.72138 7.53445 9.99506 7.39531C10.2687 7.25611 10.573 7.18538 10.8811 7.18936C11.1576 7.17659 11.4311 7.24987 11.6626 7.39874C11.8948 7.54661 12.0729 7.76345 12.171 8.01764C12.3493 7.75969 12.5897 7.5491 12.871 7.4047C13.1522 7.26026 13.4654 7.18643 13.7827 7.18986C14.6341 7.1908 15.1996 7.78411 15.1996 8.7748Z"
        fill="#414042"></path>
    <path
        d="M19.4295 12.655C19.2651 13.2692 18.9017 13.8141 18.3942 14.2074C17.8868 14.6008 17.2627 14.8211 16.6165 14.8352C16.5505 14.8413 16.4846 14.8226 16.432 14.783C16.3794 14.7435 16.3442 14.6857 16.3335 14.6215L16.2455 13.9953C16.2351 13.9332 16.2497 13.8695 16.2863 13.8179C16.3237 13.7669 16.3798 13.7322 16.4428 13.7212C16.7216 13.7076 16.9927 13.6266 17.232 13.4853C17.4713 13.344 17.6713 13.1468 17.8144 12.9113C17.7065 12.8592 17.6104 12.7864 17.5319 12.6971C17.4536 12.608 17.3945 12.5042 17.3582 12.392L15.838 7.67913C15.8242 7.64177 15.82 7.60171 15.8255 7.56237C15.8311 7.52302 15.8464 7.48561 15.87 7.45334C15.8937 7.42096 15.9249 7.39465 15.9612 7.37664C15.9974 7.35862 16.0375 7.34945 16.0781 7.34989H17.2337C17.2938 7.35105 17.3519 7.37161 17.399 7.40836C17.4463 7.44499 17.4799 7.496 17.4945 7.55341L18.4069 11.6353L19.4315 7.54181C19.4444 7.48865 19.4748 7.44118 19.5181 7.40692C19.5618 7.37261 19.6157 7.35338 19.6716 7.35227H20.7814C20.8238 7.34796 20.8666 7.35432 20.9058 7.37084C20.945 7.3873 20.9793 7.41339 21.0053 7.4466C21.0313 7.47948 21.0481 7.51838 21.0542 7.55955C21.0604 7.60072 21.0555 7.64277 21.0403 7.68156L19.4295 12.655Z"
        fill="#414042"></path>
    <path
        d="M26.2753 11.9548L26.0563 12.5926C26.0364 12.6484 25.9974 12.6957 25.946 12.7265C25.8944 12.7574 25.8336 12.7698 25.7738 12.7618C25.5403 12.7484 25.3153 12.6716 25.1237 12.5399C24.9327 12.4087 24.7828 12.2277 24.6911 12.0172C24.5135 12.2793 24.2689 12.4911 23.9818 12.6311C23.6947 12.7711 23.3752 12.8345 23.0553 12.815C22.825 12.831 22.5939 12.7997 22.3767 12.7229C22.1595 12.6461 21.961 12.5257 21.794 12.3692C21.6274 12.2135 21.4963 12.0249 21.409 11.816C21.3217 11.607 21.2803 11.3823 21.2875 11.1565C21.2875 10.0087 22.1818 9.37668 23.8387 9.37668H24.388V9.14222C24.388 8.51602 24.1478 8.32648 23.4756 8.32648C23.0751 8.34168 22.6789 8.41268 22.2989 8.53729C22.2319 8.55989 22.1586 8.55614 22.0944 8.52685C22.0302 8.49756 21.98 8.44501 21.9544 8.38019L21.7575 7.80771C21.7348 7.74554 21.738 7.67707 21.7664 7.61717C21.795 7.55705 21.8464 7.51036 21.9096 7.48709C22.4947 7.30164 23.1044 7.20179 23.7192 7.19074C25.2915 7.19074 25.9662 7.82848 25.9662 9.06242V11.115C25.951 11.2175 25.961 11.3222 25.9952 11.4202C26.0294 11.5183 26.087 11.6069 26.1631 11.6787C26.2094 11.707 26.2452 11.7492 26.2649 11.7991C26.2848 11.8488 26.2874 11.9035 26.2723 11.9548H26.2753ZM24.388 11.1773V10.2417H23.9864C23.2482 10.2417 22.8978 10.497 22.8978 11.0153C22.8861 11.1016 22.8941 11.1893 22.921 11.2722C22.9478 11.3552 22.993 11.4312 23.0533 11.495C23.1138 11.559 23.1878 11.6093 23.2702 11.6423C23.3526 11.6753 23.4413 11.6902 23.5302 11.686C23.7074 11.686 23.8811 11.6383 24.0326 11.5482C24.1835 11.4589 24.3064 11.3306 24.388 11.1773Z"
        fill="#414042"></path>
    <path
        d="M31.6394 12.6428H30.727C30.6963 12.6441 30.6657 12.6392 30.6369 12.6286C30.6082 12.618 30.5819 12.6018 30.5597 12.5809C30.5376 12.5602 30.52 12.5353 30.5079 12.5077C30.496 12.4801 30.4898 12.4504 30.4898 12.4204L30.4228 11.9756C30.2505 12.2455 30.0082 12.4655 29.7207 12.613C29.4332 12.7605 29.111 12.8302 28.787 12.815C27.7865 12.815 27.2846 12.1772 27.2846 11.1449V7.60601C27.2842 7.57235 27.2906 7.53898 27.3037 7.50781C27.3167 7.47664 27.336 7.44841 27.3603 7.4247C27.3848 7.40088 27.4138 7.38204 27.4458 7.36933C27.4777 7.35662 27.5119 7.35032 27.5464 7.35071H28.6443C28.7129 7.35292 28.7782 7.38055 28.8269 7.42807C28.8754 7.47532 28.9038 7.53898 28.9061 7.60601V10.9549C28.9061 11.4867 29.0794 11.6463 29.4293 11.6463C29.6178 11.6285 29.7982 11.5617 29.9519 11.4529C30.1051 11.3447 30.2261 11.1983 30.3023 11.0289V7.60556C30.3021 7.57241 30.3086 7.53953 30.3215 7.50886C30.3345 7.47769 30.3538 7.4494 30.3782 7.42569C30.4025 7.40193 30.4314 7.3832 30.4632 7.37055C30.4945 7.35806 30.5279 7.35165 30.5617 7.3517H31.6532C31.6874 7.35165 31.7212 7.35828 31.7528 7.3711C31.7844 7.38397 31.8131 7.40287 31.8373 7.42663C31.8613 7.45028 31.8803 7.47841 31.8932 7.50941C31.906 7.54036 31.9125 7.57357 31.9121 7.607V12.3938C31.9125 12.4271 31.9061 12.4602 31.8932 12.491C31.8804 12.5218 31.8613 12.5498 31.8373 12.5732C31.8131 12.5967 31.7844 12.6153 31.753 12.6278C31.7214 12.6403 31.6877 12.6466 31.6537 12.6462"
        fill="#414042"></path>
    <path
        d="M36.5504 12.1952C36.5749 12.2393 36.5851 12.2897 36.5798 12.3397C36.5744 12.3897 36.5537 12.437 36.5203 12.4751C36.4982 12.5006 36.4711 12.5215 36.4406 12.5365C36.0559 12.7281 35.6312 12.8296 35.2 12.8329C34.0016 12.8329 33.412 12.1627 33.412 10.9196V8.45274H32.9012C32.8494 8.45346 32.7985 8.43887 32.7553 8.41086C32.712 8.38284 32.6783 8.34267 32.6586 8.29559C32.6458 8.26492 32.6393 8.23204 32.6394 8.19888V7.60606C32.639 7.57241 32.6455 7.53903 32.6585 7.50787C32.6715 7.4767 32.6908 7.44846 32.7152 7.42476C32.7396 7.40094 32.7687 7.3821 32.8006 7.36939C32.8326 7.35668 32.8668 7.35038 32.9012 7.35077H33.4032V6.43208C33.4068 6.36887 33.4327 6.30885 33.4765 6.26238C33.5204 6.21585 33.5794 6.18563 33.6434 6.17684L34.7349 6.06124C34.77 6.05682 34.8058 6.05969 34.8397 6.0698C34.8736 6.07986 34.905 6.09688 34.9317 6.11976C34.9586 6.14269 34.9801 6.17109 34.9947 6.20298C35.0093 6.23486 35.0167 6.26951 35.0164 6.30449V7.34883H35.9741C36.0109 7.35032 36.047 7.35955 36.0799 7.37591C36.1127 7.39221 36.1416 7.41531 36.1645 7.4436C36.1871 7.47184 36.2032 7.5045 36.2117 7.53937C36.2202 7.57429 36.2209 7.61054 36.2138 7.64574L36.1257 8.239C36.1137 8.29824 36.0811 8.35157 36.0336 8.38986C35.9859 8.42843 35.9261 8.4496 35.8643 8.44982H35.0277V10.8761C35.0277 11.3862 35.2009 11.567 35.5509 11.567C35.6786 11.567 35.805 11.5406 35.9219 11.4897C35.9801 11.4674 36.0446 11.4661 36.1037 11.4862C36.1627 11.5063 36.2126 11.5465 36.2442 11.5995L36.5504 12.1952Z"
        fill="#414042"></path>
    <path
        d="M42.1244 10.0087C42.1244 11.6966 41.121 12.8131 39.4639 12.8131C37.8069 12.8131 36.803 11.7721 36.803 9.99514C36.803 8.30283 37.8064 7.19074 39.4639 7.19074C41.1214 7.19074 42.1244 8.22304 42.1244 10.0087ZM38.4753 10.0087C38.4753 11.1773 38.8035 11.6666 39.4595 11.6666C40.1155 11.6666 40.4388 11.1565 40.4388 10.0227C40.4388 8.83613 40.1135 8.35262 39.4595 8.35262C38.8055 8.35262 38.4753 8.86078 38.4753 10.0087Z"
        fill="#414042"></path>
</svg>