<svg xmlns="http://www.w3.org/2000/svg" width="94" height="26" viewBox="0 0 66 20" fill="none">
    <path
        d="M56.1628 0.499268H9.00798C4.03384 0.499268 -0.00231934 4.63758 -0.00231934 9.73761V10.2622C-0.00231934 15.3622 4.03384 19.5005 9.00798 19.5005H56.1344C61.1086 19.5005 65.1447 15.3622 65.1447 10.2622V9.73761C65.1731 4.63758 61.137 0.499268 56.1628 0.499268Z"
        fill="#26B571"></path>
    <path
        d="M47.9198 10.2034C47.9198 14.1377 44.7932 17.3435 40.9276 17.3435H9.37725C5.54006 17.3435 2.38503 14.1377 2.38503 10.2034V9.79541C2.38503 5.86109 5.51163 2.65535 9.37725 2.65535H40.8991C44.7363 2.65535 47.8914 5.86109 47.8914 9.79541V10.2034H47.9198Z"
        fill="white"></path>
    <path
        d="M51.7003 11.3991C51.7003 11.8363 51.3308 12.2151 50.9044 12.2151C50.4496 12.2151 50.1086 11.8363 50.1086 11.3991C50.1086 10.962 50.4496 10.5831 50.9044 10.5831C51.3308 10.5831 51.7003 10.962 51.7003 11.3991Z"
        fill="white"></path>
    <path
        d="M56.3331 7.66888C56.0488 7.72716 55.7077 7.78545 55.2245 7.78545C55.8214 8.04774 56.1057 8.39748 56.1057 9.00949C56.1057 9.94206 55.3667 10.5832 54.1729 10.5832C53.9739 10.5832 53.8034 10.5832 53.6328 10.5249C53.5191 10.5832 53.4623 10.6998 53.4623 10.7872C53.4623 10.9329 53.5191 11.0786 53.9739 11.0786H54.6845C55.7646 11.0786 56.4468 11.6615 56.4468 12.4483C56.4468 13.4392 55.594 14.0221 54.0023 14.0221C52.439 14.0221 51.899 13.5558 51.8137 12.7689C51.7853 12.6232 51.9274 12.5067 52.0695 12.5067H52.8369C52.9506 12.5067 53.0359 12.5649 53.0643 12.6815C53.1212 12.9729 53.377 13.0895 54.0592 13.0895C54.8834 13.0895 55.054 12.8563 55.054 12.5649C55.054 12.2735 54.8834 12.0986 54.4002 12.0986H53.7181C52.6948 12.0986 52.2969 11.6615 52.2969 11.166C52.2969 10.8163 52.5243 10.4666 52.8369 10.2626C52.24 9.94203 52.0127 9.53403 52.0127 8.89288C52.0127 7.81459 52.8369 7.1443 54.0592 7.1443C54.9403 7.17344 55.5088 6.96947 55.992 6.67804C56.1057 6.61976 56.2762 6.67804 56.3331 6.82376L56.5036 7.3483C56.5604 7.49402 56.4752 7.63973 56.3331 7.66888ZM53.4054 8.89288C53.4054 9.41746 53.6897 9.70889 54.116 9.70889C54.5708 9.70889 54.7982 9.41746 54.7982 8.89288C54.7982 8.36831 54.5708 8.10602 54.116 8.10602C53.6897 8.07688 53.4054 8.39745 53.4054 8.89288Z"
        fill="white"></path>
    <path
        d="M60.9947 10.1171H58.124C58.2092 10.9622 58.6072 11.1954 59.1756 11.1954C59.4883 11.1954 59.7725 11.108 60.0852 10.904C60.1989 10.8165 60.341 10.8748 60.3979 10.9622L60.6821 11.3702C60.7674 11.4868 60.7389 11.6325 60.6252 11.72C60.1989 12.0114 59.6588 12.2445 59.0051 12.2445C57.4702 12.2445 56.6743 11.2245 56.6743 9.73824C56.6743 8.31023 57.4418 7.17365 58.8345 7.17365C60.1705 7.17365 60.9663 8.07708 60.9663 9.62167C60.9947 9.73824 60.9947 9.97138 60.9947 10.1171ZM59.6588 9.18452C59.6304 8.54337 59.4599 8.07708 58.8914 8.07708C58.4366 8.07708 58.1524 8.36851 58.0955 9.24281H59.6304V9.18452H59.6588Z"
        fill="white"></path>
    <path
        d="M13.6122 8.77545V12.3309C13.6122 12.4766 13.4985 12.5932 13.3564 12.5932H12.3332C12.191 12.5932 12.0773 12.4766 12.0773 12.3309V9.03774C12.0773 8.48402 11.9068 8.33831 11.651 8.33831C11.3383 8.33831 11.1109 8.6006 10.8835 9.0086V12.3018C10.8835 12.4475 10.7699 12.5641 10.6277 12.5641H9.57607C9.46238 12.5641 9.34868 12.4475 9.34868 12.3018V9.03774C9.34868 8.48402 9.14969 8.33831 8.89388 8.33831C8.58121 8.33831 8.35383 8.6006 8.12644 9.0086V12.3018C8.12644 12.4475 8.01274 12.5641 7.89905 12.5641H6.84737C6.73368 12.5641 6.59159 12.4475 6.59159 12.3018V7.60973C6.59159 7.46402 6.70525 7.34744 6.84737 7.34744H7.72853C7.84223 7.34744 7.92747 7.43487 7.95589 7.55144L8.04117 7.95945C8.4391 7.43487 8.89388 7.17259 9.5192 7.17259C10.0877 7.17259 10.5141 7.46402 10.713 7.98859C11.111 7.43487 11.5941 7.17259 12.2194 7.17259C13.0722 7.20173 13.6122 7.78459 13.6122 8.77545Z"
        fill="#414042"></path>
    <path
        d="M38 8.77538V12.3308C38 12.4765 37.8863 12.5931 37.7442 12.5931H36.7209C36.5788 12.5931 36.4651 12.4765 36.4651 12.3308V9.03767C36.4651 8.48395 36.2945 8.33823 36.0387 8.33823C35.7261 8.33823 35.4987 8.60052 35.2713 9.00852V12.3017C35.2713 12.4474 35.1576 12.564 35.0155 12.564H33.9638C33.8501 12.564 33.7364 12.4474 33.7364 12.3017V9.03767C33.7364 8.48395 33.5374 8.33823 33.2816 8.33823C32.969 8.33823 32.7416 8.60052 32.5142 9.00852V12.3017C32.5142 12.4474 32.4005 12.564 32.2868 12.564H31.2351C31.1214 12.564 30.9793 12.4474 30.9793 12.3017V7.60966C30.9793 7.46394 31.093 7.34737 31.2351 7.34737H32.1163C32.23 7.34737 32.3152 7.4348 32.3437 7.55137L32.4289 7.95937C32.8269 7.4348 33.2816 7.17251 33.907 7.17251C34.4754 7.17251 34.9018 7.46394 35.1007 7.98852C35.4987 7.4348 35.9819 7.17251 36.6072 7.17251C37.4599 7.20165 38 7.78452 38 8.77538Z"
        fill="#414042"></path>
    <path
        d="M17.5631 12.5941C17.1652 13.8472 16.3693 14.5758 14.9482 14.7215C14.8345 14.7215 14.6923 14.6341 14.6923 14.5175L14.6071 13.9055C14.5787 13.7889 14.6639 13.6432 14.7776 13.6432C15.4598 13.5266 15.8293 13.2935 16.0567 12.8563C15.8861 12.8272 15.6872 12.5358 15.6303 12.3318L14.2376 7.69802C14.1807 7.5523 14.2944 7.37744 14.465 7.37744H15.5451C15.6588 7.37744 15.744 7.46487 15.8009 7.58145L16.6536 11.6032L17.62 7.58145C17.6484 7.46487 17.7337 7.40659 17.8474 7.40659H18.8991C19.0696 7.40659 19.1833 7.58145 19.1264 7.72716L17.5631 12.5941Z"
        fill="#414042"></path>
    <path
        d="M30.0697 9.97071C30.0697 11.6319 29.1318 12.7393 27.5968 12.7393C26.062 12.7393 25.124 11.7193 25.124 9.97071C25.124 8.30955 26.062 7.20212 27.5968 7.20212C29.1318 7.20212 30.0697 8.22213 30.0697 9.97071ZM26.6589 9.97071C26.6589 11.1073 26.9715 11.6027 27.5684 11.6027C28.1653 11.6027 28.478 11.1073 28.478 9.97071C28.478 8.80499 28.1653 8.3387 27.5684 8.3387C26.9715 8.3387 26.6589 8.83413 26.6589 9.97071Z"
        fill="#414042"></path>
    <path
        d="M43.6278 9.88374C43.6278 8.19345 42.7467 7.23172 41.2971 7.23172C39.7622 7.23172 38.9379 8.45573 38.9379 10.0295C38.9379 11.6615 39.7906 12.7689 41.4961 12.7689C42.1498 12.7689 42.6898 12.5649 43.1446 12.2735C43.173 12.2735 43.173 12.2443 43.2015 12.2443C43.2299 12.2443 43.2583 12.2152 43.2583 12.186C43.372 12.0986 43.4004 11.9529 43.3152 11.8655L43.0025 11.37C42.8888 11.1952 42.7183 11.2826 42.6898 11.2826C42.633 11.3118 42.5762 11.37 42.4909 11.3992C42.2066 11.574 41.9224 11.6323 41.6097 11.6323C40.9844 11.6323 40.5581 11.37 40.4444 10.4375H43.5994C43.5994 10.2917 43.6278 10.0586 43.6278 9.88374ZM40.4728 9.50488C40.5296 8.5723 40.8423 8.25173 41.3539 8.25173C41.9508 8.25173 42.1782 8.74716 42.1782 9.4466V9.50488H40.4728Z"
        fill="#414042"></path>
    <path
        d="M24.1862 8.72227C24.1862 7.73141 23.6462 7.14855 22.7934 7.14855C22.1965 7.14855 21.7418 7.38169 21.3438 7.87713V5.34168C21.3438 5.19597 21.2301 5.07939 21.088 5.10854L20.0648 5.22511C19.9511 5.25425 19.8374 5.34168 19.8374 5.4874V12.3069C19.8374 12.4526 19.9511 12.5692 20.0932 12.5692H21.1164C21.2586 12.5692 21.3723 12.4526 21.3723 12.3069V8.98456C21.6281 8.57656 21.9123 8.31427 22.2534 8.31427C22.5376 8.31427 22.7366 8.45999 22.7366 9.01371V12.3069C22.7366 12.4526 22.8503 12.5692 22.9924 12.5692H24.0157C24.1578 12.5692 24.2715 12.4526 24.2715 12.3069L24.1862 8.72227Z"
        fill="#414042"></path>
</svg>