<svg width="94" height="26" viewBox="0 0 68 20" fill="none" xmlns="http://www.w3.org/2000/svg">
    <path
        d="M58.4282 0.499268H9.70543C4.42261 0.499268 0.135986 4.63758 0.135986 9.73762V10.2622C0.135986 15.3622 4.42261 19.5005 9.70543 19.5005H58.4282C63.711 19.5005 67.9976 15.3622 67.9976 10.2622V9.73762C67.9976 4.63758 63.711 0.499268 58.4282 0.499268Z"
        fill="#009DB9"></path>
    <path
        d="M49.5777 10.2036C49.5777 14.1379 46.2636 17.3436 42.166 17.3436H10.0785C6.01111 17.3436 2.66675 14.1379 2.66675 10.2036V9.79556C2.66675 5.86125 5.98098 2.65552 10.0785 2.65552H42.166C46.2334 2.65552 49.5777 5.86125 49.5777 9.79556V10.2036Z"
        fill="white"></path>
    <path
        d="M40.1775 12.1563C40.2378 12.2729 40.2077 12.4186 40.057 12.4769C39.6955 12.6518 39.2134 12.7683 38.8217 12.7683C37.6467 12.7683 37.0441 12.098 37.0441 10.874V8.4843H36.562C36.4114 8.4843 36.2909 8.36774 36.2909 8.22202V7.63916C36.2909 7.49345 36.4114 7.37687 36.562 7.37687H37.0441V6.47344C37.0441 6.35687 37.1646 6.24029 37.2851 6.21115L38.3698 6.09458C38.5204 6.06544 38.6409 6.18201 38.6409 6.32772V7.34773H39.6051C39.7557 7.34773 39.8762 7.49345 39.8461 7.63916L39.7557 8.22202C39.7256 8.33859 39.6352 8.42603 39.4846 8.42603H38.6409V10.8157C38.6409 11.3112 38.8217 11.486 39.1532 11.486C39.2737 11.486 39.3942 11.4569 39.5147 11.3986C39.6352 11.3695 39.7858 11.3986 39.8461 11.5152L40.1775 12.1563Z"
        fill="#414042"></path>
    <path
        d="M14.5378 8.80487V12.3603C14.5378 12.506 14.4173 12.6226 14.2666 12.6226H13.182C13.0314 12.6226 12.9108 12.506 12.9108 12.3603V9.06715C12.9108 8.51343 12.7301 8.36773 12.4589 8.36773C12.1275 8.36773 11.8865 8.63001 11.6454 9.03801V12.3312C11.6454 12.4769 11.5249 12.5935 11.3743 12.5935H10.2595C10.139 12.5935 10.0185 12.4769 10.0185 12.3312V9.03801C10.0185 8.4843 9.80756 8.33857 9.5364 8.33857C9.20498 8.33857 8.96396 8.60087 8.72292 9.00888V12.302C8.72292 12.4478 8.60239 12.5643 8.48188 12.5643H7.36712C7.2466 12.5643 7.09595 12.4478 7.09595 12.302V7.61C7.09595 7.46428 7.21647 7.34772 7.36712 7.34772H8.30111C8.42163 7.34772 8.51199 7.43515 8.54212 7.55173L8.63252 7.95972C9.05433 7.43514 9.53638 7.17285 10.1992 7.17285C10.8018 7.17285 11.2538 7.4643 11.4647 7.98887C11.8865 7.43515 12.3986 7.17285 13.0615 7.17285C13.9654 7.23114 14.5378 7.81401 14.5378 8.80487Z"
        fill="#414042"></path>
    <path
        d="M18.7258 12.6226C18.304 13.8758 17.4604 14.6043 15.954 14.75C15.8334 14.75 15.6828 14.6918 15.6828 14.5461L15.5924 13.934C15.5623 13.8175 15.6526 13.6718 15.7732 13.6718C16.4963 13.5552 16.8879 13.322 17.129 12.8849C16.9482 12.8558 16.7373 12.5643 16.677 12.3603L15.2007 7.72657C15.1405 7.58086 15.261 7.40601 15.4417 7.40601H16.5867C16.7072 7.40601 16.7976 7.49342 16.8578 7.60999L17.7617 11.6317L18.7861 7.60999C18.8162 7.49342 18.9066 7.43514 19.0271 7.43514H20.1419C20.3226 7.43514 20.4432 7.60999 20.3829 7.75571L18.7258 12.6226Z"
        fill="#414042"></path>
    <path
        d="M31.6812 11.9231L31.4703 12.5643C31.4401 12.6808 31.3196 12.7391 31.1991 12.7391C30.6869 12.6517 30.3254 12.4769 30.1145 12.0106C29.7228 12.5934 29.1503 12.7974 28.4875 12.7974C27.433 12.7974 26.74 12.1271 26.74 11.1654C26.74 10.0288 27.6137 9.41683 29.2708 9.41683H29.8132V9.18369C29.8132 8.57168 29.5721 8.36769 28.9093 8.36769C28.608 8.36769 28.1862 8.42598 27.7343 8.57169C27.6137 8.60083 27.4631 8.54255 27.4029 8.42598L27.222 7.87225C27.1919 7.75568 27.2522 7.60997 27.3727 7.55168C27.9753 7.37683 28.6381 7.26025 29.1503 7.26025C30.717 7.26025 31.3799 7.87225 31.3799 9.09626V11.1071C31.3799 11.3986 31.4401 11.5734 31.5606 11.6608C31.6812 11.7191 31.7113 11.8357 31.6812 11.9231ZM29.8132 11.1654V10.2328H29.4215C28.6984 10.2328 28.3368 10.4951 28.3368 10.9906C28.3368 11.3986 28.5779 11.6608 28.9695 11.6608C29.3311 11.6608 29.6023 11.4568 29.8132 11.1654Z"
        fill="#414042"></path>
    <path
        d="M43.3111 9.38769C42.3469 9.1254 42.1963 9.00884 42.1963 8.71741C42.1963 8.48426 42.4072 8.33853 42.829 8.33853C43.1905 8.33853 43.522 8.42598 43.8534 8.57169C43.8835 8.60083 43.9136 8.60082 43.9438 8.62996C44.0643 8.68825 44.215 8.65911 44.2752 8.54254L44.6066 8.0471C44.6669 7.93053 44.6367 7.78482 44.5463 7.72654C44.5162 7.69739 44.4259 7.66825 44.4259 7.66825C43.9739 7.40596 43.4015 7.26025 42.7688 7.26025C41.4129 7.26025 40.5693 7.95968 40.5693 8.83397C40.5693 9.64997 41.0815 10.1746 42.1662 10.466C43.1303 10.7283 43.3111 10.8448 43.3111 11.1946C43.3111 11.5151 43.0098 11.69 42.5277 11.69C42.1059 11.69 41.7142 11.5734 41.3828 11.3694C41.3527 11.3403 41.2924 11.3111 41.2623 11.282C41.1719 11.2237 41.0212 11.2528 40.9309 11.3694L40.5392 11.894C40.4488 12.0106 40.4789 12.1563 40.5693 12.2437C40.5994 12.2728 40.6296 12.302 40.6597 12.3311C41.1719 12.6517 41.8046 12.8557 42.5578 12.8557C43.8835 12.8557 44.938 12.2146 44.938 11.1363C44.9682 10.1163 44.3957 9.67912 43.3111 9.38769Z"
        fill="#414042"></path>
    <path
        d="M35.6584 7.26025H35.5981C35.5379 7.26025 35.4475 7.26025 35.3571 7.26025C34.7545 7.26025 34.2122 7.6974 33.9711 8.42598L33.8808 7.78483V7.72654V7.66825C33.8808 7.52253 33.7603 7.40597 33.6096 7.40597H33.3083H33.0673H32.7057C32.5551 7.40597 32.4346 7.52253 32.4346 7.66825V7.78483V12.2437V12.302V12.3603C32.4346 12.506 32.5551 12.6226 32.7057 12.6226H33.7904C33.941 12.6226 34.0615 12.506 34.0615 12.3603V12.2437V9.99969C34.2423 9.21283 34.5135 8.77568 35.1763 8.77568C35.2366 8.77568 35.327 8.77569 35.3872 8.80483H35.4174H35.4475C35.568 8.80483 35.6885 8.7174 35.7186 8.60083L35.8994 7.58082C35.8994 7.40596 35.809 7.2894 35.6584 7.26025Z"
        fill="#414042"></path>
    <path
        d="M24.149 7.23145C23.6067 7.23145 23.0342 7.43546 22.6124 7.98918L22.5823 7.78517V7.72688V7.66859C22.5823 7.52288 22.4618 7.40631 22.3111 7.40631H22.0099H21.7688H21.4073C21.2566 7.40631 21.1361 7.52288 21.1361 7.66859V7.81431V13.1183V14.4298V14.4006V14.4881C21.1361 14.6338 21.2566 14.7504 21.4073 14.7212L22.4919 14.6046C22.6124 14.5755 22.733 14.4881 22.733 14.3424V14.2841V14.3132V14.2841V12.2149C23.0644 12.5646 23.5163 12.7395 24.0285 12.7395C25.3542 12.7395 26.1676 11.5738 26.1676 9.9709C26.1375 8.30975 25.535 7.23145 24.149 7.23145ZM23.5163 11.6321C23.1849 11.6321 22.9438 11.4863 22.7028 11.1658V8.98003C22.9438 8.60117 23.2452 8.36803 23.6368 8.36803C24.1792 8.36803 24.5106 8.71774 24.5106 10C24.4804 11.1658 24.1189 11.6321 23.5163 11.6321Z"
        fill="#414042"></path>
    <path
        d="M53.585 11.3988C53.585 11.8359 53.1934 12.2148 52.7415 12.2148C52.2594 12.2148 51.8978 11.8359 51.8978 11.3988C51.8978 10.9616 52.2594 10.5828 52.7415 10.5828C53.1934 10.5828 53.585 10.9616 53.585 11.3988Z"
        fill="white"></path>
    <path
        d="M58.4962 7.66822C58.1949 7.75565 57.8333 7.7848 57.3211 7.7848C57.9539 8.04708 58.2551 8.3968 58.2551 9.00881C58.2551 9.94139 57.4718 10.5825 56.2064 10.5825C55.9955 10.5825 55.8147 10.5825 55.6339 10.5242C55.5134 10.5825 55.4532 10.6991 55.4532 10.7865C55.4532 10.9322 55.5134 11.078 55.9955 11.078H56.7487C57.8936 11.078 58.6167 11.6608 58.6167 12.4477C58.6167 13.4385 57.7128 14.0214 56.0256 14.0214C54.3685 14.0214 53.796 13.5551 53.7057 12.7683C53.6755 12.6225 53.8262 12.506 53.9768 12.506H54.7903C54.9108 12.506 55.0012 12.5643 55.0313 12.6808C55.0916 12.9723 55.3628 13.0888 56.0859 13.0888C56.9596 13.0888 57.1404 12.8557 57.1404 12.5642C57.1404 12.2728 56.9596 12.098 56.4474 12.098H55.7243C54.6397 12.098 54.2179 11.6608 54.2179 11.1654C54.2179 10.8157 54.4589 10.466 54.7903 10.262C54.1576 9.94138 53.9166 9.53338 53.9166 8.89223C53.9166 7.81394 54.7903 7.14365 56.0859 7.14365C57.0199 7.17279 57.6225 6.9688 58.1347 6.67736C58.2552 6.61908 58.4359 6.67736 58.4962 6.82308L58.677 7.34765C58.7372 7.49337 58.6468 7.63907 58.4962 7.66822ZM55.3929 8.89223C55.3929 9.4168 55.6942 9.70823 56.1461 9.70823C56.6282 9.70823 56.8692 9.4168 56.8692 8.89223C56.8692 8.36765 56.6282 8.10536 56.1461 8.10536C55.6942 8.07622 55.3929 8.3968 55.3929 8.89223Z"
        fill="white"></path>
    <path
        d="M63.4373 10.1163H60.3943C60.4847 10.9615 60.9065 11.1946 61.509 11.1946C61.8405 11.1946 62.1417 11.1072 62.4732 10.9032C62.5937 10.8157 62.7443 10.874 62.8046 10.9614L63.1059 11.3695C63.1963 11.486 63.1661 11.6317 63.0456 11.7192C62.5937 12.0106 62.0212 12.2437 61.3283 12.2437C59.7013 12.2437 58.8577 11.2237 58.8577 9.73745C58.8577 8.30944 59.6712 7.17285 61.1475 7.17285C62.5636 7.17285 63.4072 8.07629 63.4072 9.62087C63.4674 9.73745 63.4674 9.97059 63.4373 10.1163ZM62.0212 9.18373C61.9911 8.54258 61.8103 8.0763 61.2078 8.0763C60.7257 8.0763 60.4244 8.36773 60.3641 9.24202H61.9911V9.18373H62.0212Z"
        fill="white"></path>
</svg>