<svg xmlns="http://www.w3.org/2000/svg" width="94" height="26" viewBox="0 0 65 20" fill="none">
    <g clip-path="url(#clip0_6196_17245)">
        <path
            d="M12.8363 15.6105C12.9882 15.5597 13.1197 15.4761 13.2257 15.3701C13.485 15.1107 13.5913 14.7177 13.4671 14.3462C13.2922 13.8228 12.7262 13.5403 12.2028 13.7153C10.7839 14.1895 9.24543 13.8271 8.18777 12.7693C7.13049 11.7119 6.76821 10.1737 7.24234 8.75485C7.41731 8.23142 7.13472 7.66548 6.61149 7.49051C6.08807 7.31553 5.52193 7.59841 5.34724 8.12136C4.63125 10.2635 5.17829 12.5859 6.7747 14.1823C8.37159 15.7793 10.6942 16.3266 12.8363 15.6106V15.6105Z"
            fill="#3C74FF"></path>
        <path
            d="M5.30803 4.34773C7.91704 1.73881 11.9407 1.24831 15.093 3.15498C15.4945 3.39778 15.9987 3.32488 16.3163 3.00719C16.3722 2.95131 16.4223 2.88781 16.465 2.81716C16.7506 2.34501 16.5995 1.73072 16.1272 1.44511C12.1861 -0.938786 7.15609 -0.326184 3.89505 2.93476C0.633172 6.19664 0.0206637 11.2268 2.40541 15.1672C2.6912 15.6393 3.30559 15.7904 3.77756 15.5046C4.2499 15.2191 4.40069 14.6047 4.11509 14.1325C2.20776 10.9811 2.69835 6.95731 5.30803 4.34764V4.34773Z"
            fill="#3C74FF"></path>
        <path
            d="M18.1416 4.49581C17.6687 4.7817 17.5183 5.3959 17.804 5.86796C19.7114 9.0193 19.2212 13.0425 16.6119 15.6519C14.0026 18.2611 9.97916 18.7515 6.82782 16.8442C6.35576 16.5586 5.74184 16.7083 5.45567 17.1817C5.17007 17.6537 5.32105 18.268 5.7932 18.5538C9.73354 20.9386 14.7634 20.3263 18.0247 17.065C21.2862 13.8035 21.8985 8.77368 19.5137 4.83335C19.2278 4.36119 18.6135 4.21011 18.1416 4.49581Z"
            fill="#3C74FF"></path>
        <path
            d="M15.266 12.5808C15.6409 12.7127 16.0416 12.6078 16.3049 12.3444C16.4073 12.2422 16.4889 12.1157 16.5402 11.97C17.2923 9.83276 16.744 7.41744 15.1432 5.8167C13.542 4.21539 11.1266 3.66751 8.99013 4.42066C8.46991 4.6041 8.19663 5.17465 8.37998 5.69506C8.56342 6.21557 9.13407 6.48866 9.65457 6.30512C11.0699 5.80616 12.6696 6.1691 13.7302 7.22958C14.7907 8.28997 15.1538 9.89033 14.6553 11.3065C14.4721 11.8271 14.7456 12.3976 15.2661 12.5807L15.266 12.5808Z"
            fill="#3C74FF"></path>
        <path
            d="M9.70529 8.74661C9.01319 9.4388 9.01319 10.5611 9.70529 11.2532C10.3975 11.9454 11.5198 11.9454 12.2119 11.2532C12.904 10.5611 12.904 9.4388 12.2119 8.74661C11.5198 8.05452 10.3975 8.05452 9.70529 8.74661Z"
            fill="#3C74FF"></path>
        <path
            d="M38.7475 15.1078H35.0801V12.7592H38.7475V15.1078ZM38.0361 11.1694H33.4909V17.8158C33.4909 18.2544 33.8466 18.6101 34.2853 18.6101C34.7239 18.6099 35.08 18.2546 35.0802 17.8158V16.6976H38.0361C39.3063 16.6976 40.3367 15.6679 40.3367 14.397V13.47C40.3367 12.1992 39.3063 11.1694 38.0361 11.1694Z"
            fill="#3C74FF"></path>
        <path
            d="M46.5091 15.1078H42.8417V12.7592H46.5091V15.1078ZM45.7978 11.1694H41.2526V17.8158C41.2526 18.2544 41.6083 18.6101 42.0468 18.6101C42.4855 18.6099 42.8416 18.2546 42.8417 17.8158V16.6976H45.7977C47.0678 16.6976 48.0983 15.6679 48.0983 14.397V13.47C48.0983 12.1992 47.0678 11.1694 45.7977 11.1694H45.7978Z"
            fill="#3C74FF"></path>
        <path
            d="M27.9594 15.2059L28.8125 12.759H30.8177V15.2059H27.9594ZM28.8883 11.1692C28.2487 11.1692 27.6748 11.5618 27.4429 12.1578L25.3814 17.4579C25.1654 18.013 25.575 18.6117 26.1705 18.6117C26.5307 18.6117 26.8515 18.3837 26.9702 18.0436L27.4321 16.7185H30.8177V17.8169C30.8177 18.2558 31.1734 18.6117 31.6123 18.6117C32.0511 18.6117 32.4068 18.2559 32.4068 17.8169V11.1692H28.8883Z"
            fill="#3C74FF"></path>
        <path
            d="M33.7409 6.53002V2.18272C33.7409 1.74387 34.0966 1.38818 34.5355 1.38818C34.9744 1.38818 35.3301 1.74387 35.3301 2.18272V7.24083H39.6262V2.18272C39.6262 1.74387 39.9819 1.38818 40.4207 1.38818C40.8596 1.38818 41.2154 1.74387 41.2154 2.18272V6.53002C41.2154 7.80056 40.1853 8.83066 38.9147 8.83066H35.917C34.6465 8.83066 33.741 7.80056 33.741 6.53002H33.7409Z"
            fill="#3C74FF"></path>
        <path
            d="M51.6426 3.06132V4.35652H56.8993V5.94578H51.6426V7.24098H56.8993V8.83081H52.3541C51.0839 8.83081 50.0534 7.80099 50.0534 6.53016V3.77232C50.0534 2.5014 51.0839 1.47168 52.3541 1.47168H56.8993V3.06151H51.6426V3.06132Z"
            fill="#3C74FF"></path>
        <path
            d="M47.5913 5.39817H43.9244V3.04889H47.5913V5.39817ZM46.8799 1.45972H42.3347V8.10624C42.3347 8.54481 42.6903 8.90059 43.1296 8.90059C43.5679 8.90041 43.9245 8.54509 43.9245 8.10624V6.98809H46.8799C48.1501 6.98809 49.1804 5.95837 49.1804 4.68745V3.76046C49.1804 2.48963 48.1501 1.45981 46.8799 1.45981V1.45972Z"
            fill="#3C74FF"></path>
        <path
            d="M63.3687 5.39817H59.7013V3.06131H63.3687V5.39817ZM64.9578 4.68735V3.76036C64.9578 2.48953 63.9275 1.45972 62.6572 1.45972H58.112V8.9005H59.7013V6.988H61.1546L62.9002 8.9005H64.918L63.166 6.93005C64.1915 6.69873 64.9578 5.78283 64.9578 4.68735Z"
            fill="#3C74FF"></path>
        <path
            d="M27.6035 3.04906V4.35611H30.9571C32.0082 4.35611 32.8602 5.20803 32.8602 6.25911V6.52966C32.8602 7.80021 31.8301 8.83021 30.5596 8.83021H26.0766V7.24038H31.2709V5.93343L27.9216 5.94095C26.8689 5.9433 26.0143 5.09063 26.0143 4.03795V3.75987C26.0143 2.48895 27.0447 1.45923 28.3149 1.45923H32.5163V3.04906H27.6034H27.6035Z"
            fill="#3C74FF"></path>
    </g>
    <defs>
        <clipPath id="clip0_6196_17245">
            <rect width="64" height="19.9998" fill="white" transform="translate(0.959595)"></rect>
        </clipPath>
    </defs>
</svg>