<svg xmlns="http://www.w3.org/2000/svg" width="25" height="24" viewBox="0 0 25 24" fill="none">
  <path fill="currentColor" d="M12.7248 2.00064C12.8847 2.0061 13.0387 2.06256 13.1643 2.16177L20.2707 7.7604C21.1727 8.47122 21.7004 9.55739 21.7004 10.7057V20.2506C21.7004 20.9324 21.1322 21.5006 20.4504 21.5006H15.4504C14.7686 21.5006 14.2004 20.9324 14.2004 20.2506V15.2506C14.2004 15.1031 14.0979 15.0006 13.9504 15.0006H11.4504C11.3029 15.0006 11.2004 15.1031 11.2004 15.2506V20.2506C11.2004 20.9324 10.6322 21.5006 9.95039 21.5006H4.95039C4.26859 21.5006 3.70039 20.9324 3.70039 20.2506V10.7057C3.70039 9.55739 4.22813 8.47122 5.13008 7.7604L12.2365 2.16177C12.3752 2.05221 12.5481 1.99514 12.7248 2.00064ZM12.7004 3.70571L6.05781 8.93911C5.51576 9.3663 5.20039 10.016 5.20039 10.7057V20.0006H9.70039V15.2506C9.70039 14.2932 10.4929 13.5006 11.4504 13.5006H13.9504C14.9079 13.5006 15.7004 14.2932 15.7004 15.2506V20.0006H20.2004V10.7057C20.2004 10.016 19.885 9.3663 19.343 8.93911L12.7004 3.70571Z" />
  <path fill="currentColor" fill-rule="evenodd" clip-rule="evenodd" d="M12.1125 2.00483L5.00631 7.6033C4.05631 8.35198 3.50039 9.49602 3.50039 10.7057V20.2506C3.50039 21.0429 4.15814 21.7006 4.95039 21.7006H9.95039C10.7426 21.7006 11.4004 21.0429 11.4004 20.2506V15.2506C11.4004 15.2244 11.4087 15.2146 11.4115 15.2117C11.4143 15.2089 11.4242 15.2006 11.4504 15.2006H13.9504C13.9766 15.2006 13.9865 15.2089 13.9893 15.2117C13.9921 15.2146 14.0004 15.2244 14.0004 15.2506V20.2506C14.0004 21.0429 14.6581 21.7006 15.4504 21.7006H20.4504C21.2426 21.7006 21.9004 21.0429 21.9004 20.2506V10.7057C21.9004 9.49602 21.3445 8.352 20.3945 7.60332L13.2883 2.00485C13.1293 1.87927 12.9341 1.80767 12.7316 1.80075C12.5079 1.79379 12.2882 1.86609 12.1125 2.00483ZM12.7183 2.20053C12.5888 2.19658 12.4621 2.23842 12.3605 2.31871L5.25387 7.91748C4.39997 8.59044 3.90039 9.61876 3.90039 10.7057V20.2506C3.90039 20.822 4.37905 21.3006 4.95039 21.3006H9.95039C10.5217 21.3006 11.0004 20.822 11.0004 20.2506V15.2506C11.0004 15.1294 11.0434 15.0142 11.1286 14.9289C11.2139 14.8436 11.3291 14.8006 11.4504 14.8006H13.9504C14.0717 14.8006 14.1868 14.8436 14.2721 14.9289C14.3574 15.0142 14.4004 15.1294 14.4004 15.2506V20.2506C14.4004 20.822 14.8791 21.3006 15.4504 21.3006H20.4504C21.0217 21.3006 21.5004 20.822 21.5004 20.2506V10.7057C21.5004 9.61877 21.0008 8.59046 20.1469 7.9175L13.0405 2.31887C12.9485 2.24618 12.8354 2.20459 12.7183 2.20053ZM12.7004 3.4511L5.93404 8.78201C5.34391 9.24709 5.00039 9.95472 5.00039 10.7057V20.2006H9.90039V15.2506C9.90039 14.4036 10.6034 13.7006 11.4504 13.7006H13.9504C14.7974 13.7006 15.5004 14.4036 15.5004 15.2506V20.2006H20.4004V10.7057C20.4004 9.95471 20.0569 9.2471 19.4668 8.78203L12.7004 3.4511ZM12.7004 3.96033L19.2192 9.0962C19.7131 9.48549 20.0004 10.0774 20.0004 10.7057V19.8006H15.9004V15.2506C15.9004 14.1827 15.0183 13.3006 13.9504 13.3006H11.4504C10.3825 13.3006 9.50039 14.1827 9.50039 15.2506V19.8006H5.40039V10.7057C5.40039 10.0774 5.68763 9.48549 6.18161 9.0962L12.7004 3.96033Z" />
</svg>
