<svg xmlns="http://www.w3.org/2000/svg" height="20" fill="none" preserveAspectRatio="none" viewBox="0 0 64 28">
    <path fill="red"
        d="M31.846.716c2.74 0 4.963 2.192 4.963 4.896v17.492c0 2.704-2.222 4.896-4.963 4.896s-4.964-2.192-4.964-4.896V5.611c0-2.704 2.222-4.896 4.964-4.896M43.05 0c2.742 0 4.964 2.192 4.964 4.896v18.208c0 2.704-2.222 4.896-4.964 4.896-2.74 0-4.962-2.192-4.962-4.896V4.896C38.089 2.192 40.31 0 43.05 0M8.214 9.241a.973.973 0 0 1 1.2.773l.393 2.335a1.08 1.08 0 0 1-.75 1.207c-.885.276-2.282.72-3.55 1.165-.992.349-1.02 1.72-.043 2.11.87.346 1.772.726 2.553 1.036l.001-.002c1.716.682 3.305 2.145 3.305 4.813S9.6 27.98 4.514 27.98c-1.523 0-2.715-.134-3.638-.322a1.08 1.08 0 0 1-.854-1.273l.458-2.22a1.095 1.095 0 0 1 1.319-.836c1.057.24 2.192.49 3.045.657a1.227 1.227 0 0 0 1.417-.853 1.206 1.206 0 0 0-.832-1.492c-.371-.108-.79-.242-1.223-.411C2.339 20.5.179 19.11.179 16.236c0-3.837 3.203-4.924 5.113-5.87 1.276-.632 2.256-.957 2.922-1.125M61.478 22.86c1.392 0 2.52 1.114 2.52 2.487s-1.128 2.485-2.52 2.485-2.52-1.112-2.52-2.485 1.129-2.487 2.52-2.487M49.324 2.094a.848.848 0 0 1 1.01-.825 56 56 0 0 1 5.664 1.383c1.71.517 3.026 1.878 3.459 3.587.322 1.272.413 2.648.449 4.1q.001.34-.004.723a16.4 16.4 0 0 1-.36 3.244c-.44 1.97-2.285 3.303-4.304 3.158a10 10 0 0 1-.39-.037c-.454-.054-.956-.11-1.129-.13v9.543c0 .463-.381.839-.851.839h-2.695a.846.846 0 0 1-.852-.84zm-24.225.594c.587-.176 1.163.298 1.093.899-.542 4.613-2.12 18.75-2.691 23.35a.85.85 0 0 1-.846.737h-2.443a.85.85 0 0 1-.825-.635l-1.278-5.256-1.408 5.266a.85.85 0 0 1-.822.626h-2.5a.847.847 0 0 1-.847-.776c-.292-3.752-1.179-15.168-1.42-18.342a.84.84 0 0 1 .492-.825q1.425-.64 2.863-1.252c.545-.23 1.158.147 1.186.732.123 2.532.358 7.737.494 10.772l.926-3.668a.49.49 0 0 1 .36-.351l1.252-.308a.49.49 0 0 1 .582.343c.284 1.042.69 2.535 1.019 3.724L21.462 4.41h-.001a.84.84 0 0 1 .577-.724c.944-.313 2.024-.688 3.061-.998m6.748 2.197a.57.57 0 0 0-.573.565v17.814a.57.57 0 0 0 .573.565.57.57 0 0 0 .574-.565V5.45a.57.57 0 0 0-.574-.565m11.207-.715a.57.57 0 0 0-.573.565v18.529a.57.57 0 0 0 .573.565.57.57 0 0 0 .574-.565V4.735a.57.57 0 0 0-.574-.565m10.664 8.642.457.076c.031.006.187.025.218.025.43.003.822-.276.892-.715.088-.55.135-1.266.117-2.155-.023-1.19-.167-2.106-.326-2.75a.85.85 0 0 0-.643-.623c-.207-.047-.715-.158-.715-.158z">
    </path>
</svg>