<svg xmlns="http://www.w3.org/2000/svg" class="h-5 sm:h-6" fill="none" height="26" viewBox="0 0 21 26" width="21">
  <path
    d="M19.1325 22.1726C18.1094 23.6881 17.0247 25.1669 15.373 25.1913C13.7213 25.228 13.1912 24.2258 11.3177 24.2258C9.43175 24.2258 8.85242 25.1669 7.28699 25.228C5.67226 25.2891 4.45197 23.6147 3.41656 22.136C1.30878 19.1173 -0.305951 13.5565 1.86346 9.81678C2.93584 7.95912 4.85873 6.78587 6.94186 6.7492C8.51961 6.72476 10.0234 7.81247 10.9972 7.81247C11.9586 7.81247 13.7829 6.50478 15.6935 6.70032C16.4947 6.73698 18.738 7.01807 20.1802 9.12016C20.0693 9.19349 17.5054 10.6845 17.5301 13.7765C17.5671 17.4674 20.7965 18.7017 20.8335 18.714C20.7965 18.7995 20.3158 20.4738 19.1325 22.1726ZM12.0942 2.61837C12.994 1.60399 14.4855 0.834042 15.7181 0.785156C15.8784 2.21506 15.299 3.65719 14.4362 4.68379C13.5857 5.72261 12.1805 6.52922 10.8 6.41923C10.6151 5.01376 11.3053 3.54719 12.0942 2.61837Z"
    fill="#1B1D27"></path>
</svg>