<svg xmlns="http://www.w3.org/2000/svg" fill="none" height="552" viewBox="0 0 876 552" width="876">
    <g opacity="0.3">
        <path clip-rule="evenodd"
            d="M315.642 315.616C505.035 126.225 797.111 90.6223 1025.93 229.021C1055.07 246.649 1091.68 241.361 1114.73 218.302C1118.78 214.248 1122.42 209.636 1125.51 204.509C1146.25 170.232 1135.28 125.642 1101 104.906C814.916 -68.1496 449.796 -23.6779 213.078 213.04C-23.6994 449.825 -68.1611 814.974 104.947 1101.02C125.692 1135.28 170.289 1146.25 204.547 1125.51C238.839 1104.78 249.777 1060.18 229.042 1025.9C90.5885 797.135 126.198 505.041 315.634 315.599L315.642 315.616ZM1246.43 325.495C1212.1 346.249 1201.18 390.833 1221.93 425.103C1360.39 653.875 1324.81 945.95 1135.38 1135.38C945.964 1324.79 653.881 1360.39 425.101 1221.92C390.839 1201.19 346.273 1212.07 325.493 1246.42C304.747 1280.68 315.72 1325.28 349.981 1346.03C636.041 1519.16 1001.18 1474.71 1237.95 1237.95C1474.72 1001.18 1519.16 636.043 1346.03 349.983C1325.28 315.713 1280.69 304.749 1246.42 325.495H1246.43ZM1115.76 894.077C1096.63 912.863 1067.53 920.351 1040.3 910.937H1040.29C1002.49 897.863 982.618 857.17 995.929 820.03C1032.13 719.003 1005.76 604.827 928.741 529.177C851.715 453.519 735.526 427.627 632.723 463.223C594.92 476.322 553.466 456.831 540.147 419.699C526.819 382.567 546.68 341.858 584.466 328.775C739.65 275.041 915.075 314.14 1031.38 428.374C1147.65 542.575 1187.48 714.894 1132.85 867.364C1129.13 877.757 1123.19 886.781 1115.76 894.077ZM865.014 1134.74C876.141 1131.08 885.768 1125.08 893.53 1117.46C912.512 1098.79 920.299 1070.52 911.208 1043.81C898.395 1006.18 856.955 985.856 818.633 998.434C714.742 1032.55 602.102 1006.47 524.641 930.395C447.23 854.355 420.699 743.717 455.426 641.658C468.24 604.022 447.545 563.307 409.232 550.729C370.91 538.134 329.453 558.487 316.656 596.105C264.234 750.169 304.294 917.197 421.185 1032.02C538.11 1146.88 708.174 1186.24 865.014 1134.75V1134.74ZM636.047 814.952C586.651 765.554 586.651 685.454 636.047 636.048C685.452 586.651 765.55 586.651 814.947 636.048C864.351 685.446 864.351 765.546 814.947 814.952C765.55 864.349 685.452 864.349 636.047 814.952Z"
            fill="white" fill-rule="evenodd"></path>
    </g>
</svg>