<svg xmlns="http://www.w3.org/2000/svg" width="22" height="22" viewBox="0 0 22 22" fill="none" class="mr-2 fill-red">
  <path
    d="M5.0625 3C3.9292 3 3 3.9292 3 5.0625V5.75H3.29004C3.51025 6.30859 3.90234 6.78125 4.43408 6.99609L5.62109 17.6685C5.73389 18.7051 6.62549 19.5 7.66748 19.5H14.8325C15.8745 19.5 16.7661 18.7051 16.8789 17.6685V17.6631L18.0659 6.99609C18.5977 6.78125 18.9897 6.30859 19.2153 5.75H19.5V5.0625C19.5 3.9292 18.5708 3 17.4375 3H5.0625ZM5.0625 4.375H17.4375C17.8242 4.375 18.125 4.67578 18.125 5.0625C18.125 5.44922 17.8242 5.75 17.4375 5.75H5.0625C4.67578 5.75 4.375 5.44922 4.375 5.0625C4.375 4.67578 4.67578 4.375 5.0625 4.375ZM5.83057 7.125H16.6694L15.5147 17.5127C15.4771 17.8672 15.187 18.125 14.8325 18.125H7.66748C7.31299 18.125 7.02295 17.8672 6.98535 17.5127L5.83057 7.125Z">
  </path>
  <path
    d="M9.98487 9.15691C9.75957 8.9477 9.39428 8.9477 9.16898 9.15691C8.94367 9.36612 8.94367 9.70531 9.16898 9.91452L10.8764 11.5L9.16898 13.0855C8.94367 13.2947 8.94367 13.6339 9.16898 13.8431C9.39428 14.0523 9.75957 14.0523 9.98487 13.8431L11.5 12.4362L13.0151 13.8431C13.2404 14.0523 13.6057 14.0523 13.831 13.8431C14.0563 13.6339 14.0563 13.2947 13.831 13.0855L12.1236 11.5L13.831 9.91452C14.0563 9.70531 14.0563 9.36612 13.831 9.15691C13.6057 8.9477 13.2404 8.9477 13.0151 9.15691L11.5 10.5638L9.98487 9.15691Z">
  </path>
</svg>