<svg xmlns="http://www.w3.org/2000/svg" id="prefix__Stockholm-icons-_-Devices-_-Camera" width="36" height="36"
  data-name="Stockholm-icons-/-Devices-/-Camera" viewBox="0 0 24 24">
  <defs>
    <style>
      .prefix__cls-3 {
        fill: #8996ae;
        opacity: .3
      }
    </style>
  </defs>
  <path id="prefix__bound" d="M0 0H24V24H0z" style="fill:none" />
  <path id="prefix__Combined-Shape"
    d="M5 7h14a2 2 0 0 1 2 2v8a2 2 0 0 1-2 2H5a2 2 0 0 1-2-2V9a2 2 0 0 1 2-2zm7 10a4 4 0 1 0-4-4 4 4 0 0 0 4 4z"
    style="fill-rule:evenodd;fill:#8996ae" />
  <rect id="prefix__Rectangle" width="6" height="2" class="prefix__cls-3" rx="1" transform="translate(9 4)" />
  <circle id="prefix__Oval-2" cx="2" cy="2" r="2" class="prefix__cls-3" transform="translate(10 11)" />
</svg>