<svg id="Stockholm-icons-_-Devices-_-Camera" data-name="Stockholm-icons-/-Devices-/-Camera"
  xmlns="http://www.w3.org/2000/svg" width="36" height="36" viewBox="0 0 24 24">
  <rect id="bound" width="24" height="24" fill="none" />
  <path id="Combined-Shape"
    d="M5,7H19a2,2,0,0,1,2,2v8a2,2,0,0,1-2,2H5a2,2,0,0,1-2-2V9A2,2,0,0,1,5,7Zm7,10a4,4,0,1,0-4-4A4,4,0,0,0,12,17Z"
    fill="#fec900" fill-rule="evenodd" />
  <rect id="Rectangle" width="6" height="2" rx="1" transform="translate(9 4)" fill="#fec900" opacity="0.3" />
  <circle id="Oval-2" cx="2" cy="2" r="2" transform="translate(10 11)" fill="#fec900" opacity="0.3" />
</svg>