<svg xmlns="http://www.w3.org/2000/svg" width="16" height="16" fill="none">
  <path fill="#A4AEC1"
    d="M8 16a8 8 0 1 1 6.987-4.1l.968 2.907a.9.9 0 0 1-1.044 1.167l-.1-.026-2.907-.969-.014.008A8 8 0 0 1 8.012 16zM1.8 8A6.2 6.2 0 0 0 8 14.2a6.17 6.17 0 0 0 3.2-.886.9.9 0 0 1 .663-.108.9.9 0 0 1 .381 0l.1.028 1.331.443-.443-1.329-.017-.056a.9.9 0 0 1 .014-.95A6.16 6.16 0 0 0 14.2 8 6.2 6.2 0 1 0 1.8 8M10 8a1 1 0 1 1 2 0 1 1 0 0 1-2 0M7 8a1 1 0 1 1 2 0 1 1 0 0 1-2 0M4 8a1 1 0 1 1 2 0 1 1 0 0 1-2 0">
  </path>
</svg>