<svg xmlns="http://www.w3.org/2000/svg" width="24" height="24" viewBox="0 0 18 18" fill="none">
    <path
        d="M13.7241 4.28248C13.4316 3.98998 12.9591 3.98998 12.6666 4.28248L8.99906 7.94248L5.33156 4.27498C5.03906 3.98248 4.56656 3.98248 4.27406 4.27498C3.98156 4.56748 3.98156 5.03998 4.27406 5.33248L7.94156 8.99998L4.27406 12.6675C3.98156 12.96 3.98156 13.4325 4.27406 13.725C4.56656 14.0175 5.03906 14.0175 5.33156 13.725L8.99906 10.0575L12.6666 13.725C12.9591 14.0175 13.4316 14.0175 13.7241 13.725C14.0166 13.4325 14.0166 12.96 13.7241 12.6675L10.0566 8.99998L13.7241 5.33248C14.0091 5.04748 14.0091 4.56748 13.7241 4.28248Z"
        fill="#272A37" />
</svg>