<svg width="16" height="16" viewBox="0 0 16 16" fill="none" xmlns="http://www.w3.org/2000/svg">
  <path
    d="M15.9995 12.75C15.9995 13.2142 15.8151 13.6593 15.4869 13.9875C15.1587 14.3157 14.7136 14.5001 14.2494 14.5001C13.7853 14.5001 13.3402 14.3157 13.012 13.9875C12.6838 13.6593 12.4994 13.2142 12.4994 12.75C12.4994 11.3099 13.8388 9.95349 13.8958 9.89645C13.9423 9.85001 13.9974 9.81317 14.0581 9.78804C14.1187 9.7629 14.1838 9.74996 14.2494 9.74996C14.3151 9.74996 14.3801 9.7629 14.4408 9.78804C14.5015 9.81317 14.5566 9.85001 14.603 9.89645C14.6601 9.95349 15.9995 11.3099 15.9995 12.75ZM8.27963 7.78062C8.38452 7.67573 8.45595 7.54208 8.48488 7.39659C8.51382 7.2511 8.49896 7.1003 8.44219 6.96325C8.38542 6.82621 8.28928 6.70907 8.16594 6.62666C8.0426 6.54425 7.89759 6.50027 7.74925 6.50027C7.60091 6.50028 7.4559 6.54427 7.33256 6.62668C7.20922 6.7091 7.11309 6.82624 7.05633 6.96329C6.99957 7.10034 6.98472 7.25115 7.01366 7.39664C7.04261 7.54213 7.11404 7.67576 7.21894 7.78065C7.35972 7.92109 7.55044 7.99995 7.74929 7.99994C7.94814 7.99994 8.13886 7.92106 8.27963 7.78062V7.78062ZM14.4347 7.71769C14.4347 7.58509 14.3821 7.45791 14.2883 7.36414L7.57039 0.646228C7.4766 0.552462 7.34942 0.499786 7.2168 0.499786C7.08419 0.499786 6.957 0.552462 6.86322 0.646228L4.35776 3.15165L6.91713 5.71102C7.28691 5.51111 7.71629 5.45098 8.12675 5.54162C8.53722 5.63227 8.90134 5.86763 9.15254 6.20467C9.40374 6.54171 9.52523 6.95791 9.4948 7.37716C9.46437 7.79641 9.28404 8.1907 8.9868 8.48793C8.68956 8.78516 8.29526 8.96546 7.87601 8.99588C7.45675 9.0263 7.04056 8.90479 6.70353 8.65357C6.3665 8.40236 6.13116 8.03822 6.04053 7.62775C5.9499 7.21728 6.01005 6.78791 6.20998 6.41814L3.65063 3.85879L0.852656 6.65676C0.571792 6.93831 0.414063 7.31975 0.414062 7.71744C0.414063 8.11512 0.571792 8.49657 0.852656 8.77811L6.15636 14.0818C6.29564 14.2211 6.46101 14.3316 6.643 14.407C6.82499 14.4823 7.02006 14.5212 7.21705 14.5212C7.41404 14.5212 7.6091 14.4823 7.79109 14.407C7.97309 14.3316 8.13845 14.2211 8.27774 14.0818L14.2883 8.07125C14.3821 7.97747 14.4347 7.8503 14.4347 7.71769V7.71769ZM2.71884 1.51273C2.67241 1.4663 2.61729 1.42946 2.55663 1.40433C2.49597 1.3792 2.43095 1.36626 2.36528 1.36626C2.29962 1.36626 2.2346 1.37919 2.17393 1.40432C2.11326 1.42944 2.05814 1.46627 2.01171 1.5127C1.96527 1.55913 1.92844 1.61425 1.90331 1.67491C1.87818 1.73558 1.86524 1.8006 1.86524 1.86626C1.86523 1.99888 1.91791 2.12606 2.01168 2.21984L3.65063 3.85879L4.35777 3.15165L2.71884 1.51273Z"
    fill="#0078F2"></path>
</svg>