<svg width="16" height="16" viewBox="0 0 16 16" fill="none" xmlns="http://www.w3.org/2000/svg">
<g clip-path="url(#clip0_16876_30017)">
<path d="M15.5794 6.71228C15.8477 6.12204 15.8593 5.44725 15.6112 4.84825V4.84825C15.3628 4.24877 14.8771 3.77858 14.2695 3.55062L14.1093 3.49051C13.3701 3.21314 12.7869 2.62986 12.5095 1.89065L12.4493 1.73015C12.2214 1.12278 11.7518 0.637152 11.1524 0.388958V0.388958C10.5532 0.140818 9.87785 0.152353 9.28742 0.420756L9.13197 0.491423C8.41274 0.818376 7.58726 0.818376 6.86803 0.491423L6.71258 0.420756C6.12215 0.152353 5.44683 0.140818 4.8476 0.388958V0.388958C4.24824 0.637152 3.77863 1.12278 3.55073 1.73015L3.49065 1.89029C3.21319 2.62973 2.62973 3.21319 1.89029 3.49065L1.73046 3.55062C1.12289 3.77859 0.637212 4.24798 0.388843 4.8475V4.8475C0.140678 5.44653 0.152289 6.12201 0.42062 6.71228L0.491423 6.86803C0.818376 7.58726 0.818376 8.41274 0.491423 9.13197L0.42062 9.28772C0.152304 9.87796 0.140691 10.5527 0.388843 11.1517V11.1517C0.637199 11.7512 1.12292 12.2214 1.73046 12.4494L1.89066 12.5095C2.62986 12.7869 3.21314 13.3701 3.49051 14.1093L3.55073 14.2699C3.77863 14.8772 4.24824 15.3628 4.8476 15.611V15.611C5.44683 15.8592 6.12215 15.8476 6.71258 15.5792L6.86803 15.5086C7.58726 15.1816 8.41274 15.1816 9.13197 15.5086L9.28772 15.5794C9.87796 15.8477 10.5527 15.8593 11.1517 15.6112V15.6112C11.7512 15.3628 12.2214 14.8771 12.4494 14.2695L12.5095 14.1093C12.7869 13.3701 13.3701 12.7869 14.1093 12.5095L14.2695 12.4494C14.8771 12.2214 15.3628 11.752 15.6112 11.1525V11.1525C15.8593 10.5535 15.8477 9.87799 15.5794 9.28772L15.5086 9.13197C15.1816 8.41274 15.1816 7.58726 15.5086 6.86803L15.5794 6.71228Z" fill="#FE3155"/>
<path d="M5.5 7C6.32843 7 7 6.32843 7 5.5C7 4.67157 6.32843 4 5.5 4C4.67157 4 4 4.67157 4 5.5C4 6.32843 4.67157 7 5.5 7Z" fill="white"/>
<path d="M10.5 12C11.3284 12 12 11.3284 12 10.5C12 9.67157 11.3284 9 10.5 9C9.67157 9 9 9.67157 9 10.5C9 11.3284 9.67157 12 10.5 12Z" fill="white"/>
<path d="M9.98308 4.67199L4.67209 9.98316C4.30091 10.3544 4.30092 10.9562 4.67212 11.3274C5.04332 11.6986 5.64514 11.6985 6.01633 11.3273L11.3273 6.01617C11.6985 5.64497 11.6985 5.04315 11.3273 4.67196C10.9561 4.30077 10.3543 4.30079 9.98308 4.67199Z" fill="white"/>
</g>
<defs>
<clipPath id="clip0_16876_30017">
<rect width="16" height="16" fill="white"/>
</clipPath>
</defs>
</svg>
