<svg xmlns="http://www.w3.org/2000/svg" width="48" height="48" viewBox="0 0 48 48">
  <g id="Group_15105" data-name="Group 15105" transform="translate(-1100 -283)">
    <g id="Group_14868" data-name="Group 14868" transform="translate(936 112)">
      <circle id="Ellipse_657" data-name="Ellipse 657" cx="24" cy="24" r="24" transform="translate(164 171)" fill="#c4cad6" opacity="0.189"/>
    </g>
    <rect id="Rectangle_2902" data-name="Rectangle 2902" width="16" height="16" transform="translate(1116 299)" fill="#6a1d1d" opacity="0"/>
    <path id="Stroke_180" data-name="Stroke 180" d="M3,4H1A1,1,0,0,1,0,3V1A1,1,0,0,1,1,0H3A1,1,0,0,1,4,1V3A1,1,0,0,1,3,4Z" transform="translate(1118 301)" fill="none" stroke="#bdc4d2" stroke-linecap="round" stroke-linejoin="round" stroke-miterlimit="10" stroke-width="2"/>
    <path id="Stroke_181" data-name="Stroke 181" d="M0,0H6" transform="translate(1125 303)" fill="none" stroke="#bdc4d2" stroke-linecap="round" stroke-linejoin="round" stroke-miterlimit="10" stroke-width="2"/>
    <path id="Stroke_182" data-name="Stroke 182" d="M3,4H1A1,1,0,0,1,0,3V1A1,1,0,0,1,1,0H3A1,1,0,0,1,4,1V3A1,1,0,0,1,3,4Z" transform="translate(1118 309)" fill="none" stroke="#bdc4d2" stroke-linecap="round" stroke-linejoin="round" stroke-miterlimit="10" stroke-width="2"/>
    <path id="Stroke_183" data-name="Stroke 183" d="M0,0H6" transform="translate(1125 311)" fill="none" stroke="#bdc4d2" stroke-linecap="round" stroke-linejoin="round" stroke-miterlimit="10" stroke-width="2"/>
  </g>
</svg>
