<svg xmlns="http://www.w3.org/2000/svg" fill="none" height="15" id="tnet-platforms-info-icon" viewBox="0 0 15 15"
    width="15">
    <path
        d="M8.17441 5.48018H6.82559V4.13135H8.17441M8.17441 10.8755H6.82559V6.829H8.17441M7.5 0.759277C6.61435 0.759277 5.73737 0.93372 4.91913 1.27264C4.10089 1.61157 3.35742 2.10834 2.73117 2.73459C1.4664 3.99936 0.755859 5.71476 0.755859 7.50342C0.755859 9.29208 1.4664 11.0075 2.73117 12.2722C3.35742 12.8985 4.10089 13.3953 4.91913 13.7342C5.73737 14.0731 6.61435 14.2476 7.5 14.2476C9.28866 14.2476 11.0041 13.537 12.2688 12.2722C13.5336 11.0075 14.2441 9.29208 14.2441 7.50342C14.2441 6.61776 14.0697 5.74078 13.7308 4.92255C13.3918 4.10431 12.8951 3.36084 12.2688 2.73459C11.6426 2.10834 10.8991 1.61157 10.0809 1.27264C9.26263 0.93372 8.38565 0.759277 7.5 0.759277Z"
        fill="#fff"></path>
</svg>