<svg width="14" height="14" viewBox="0 0 14 14" fill="none" xmlns="http://www.w3.org/2000/svg">
<path d="M6.99967 2.625C4.08301 2.625 1.59217 4.43917 0.583008 7C1.59217 9.56083 4.08301 11.375 6.99967 11.375C9.91634 11.375 12.4072 9.56083 13.4163 7C12.4072 4.43917 9.91634 2.625 6.99967 2.625ZM6.99967 9.91667C5.38967 9.91667 4.08301 8.61 4.08301 7C4.08301 5.39 5.38967 4.08333 6.99967 4.08333C8.60968 4.08333 9.91634 5.39 9.91634 7C9.91634 8.61 8.60968 9.91667 6.99967 9.91667ZM6.99967 5.25C6.03134 5.25 5.24967 6.03167 5.24967 7C5.24967 7.96833 6.03134 8.75 6.99967 8.75C7.96801 8.75 8.74967 7.96833 8.74967 7C8.74967 6.03167 7.96801 5.25 6.99967 5.25Z" fill="#757B8C"/>
</svg>
