<svg xmlns="http://www.w3.org/2000/svg" fill="none" height="22" viewBox="0 0 23 22" width="23">
  <path clip-rule="evenodd"
    d="M19.8121 0.00732422C21.2956 0.00732422 22.5 1.21174 22.5 2.69519V19.3195C22.5 20.8029 21.2956 22.0073 19.8121 22.0073H15.2373V13.718H18.0991L18.6436 10.1679H15.2373V7.86403C15.2373 6.89281 15.7131 5.94608 17.2388 5.94608H18.7875V2.92366C18.7875 2.92366 17.382 2.6838 16.0383 2.6838C13.2329 2.6838 11.3994 4.38404 11.3994 7.4621V10.1679H8.281V13.718H11.3994V22.0073H3.18787C1.70441 22.0073 0.5 20.8029 0.5 19.3195V2.69519C0.5 1.21174 1.70437 0.00732422 3.18787 0.00732422H19.8121V0.00732422Z"
    fill="#1777F2" fill-rule="evenodd"></path>
</svg>