<svg xmlns="http://www.w3.org/2000/svg" width="20" height="20" fill="none" class="mt-1">
  <mask id="searchFilters_svg__a" width="20" height="20" x="0" y="0" maskUnits="userSpaceOnUse"
    style="mask-type: alpha">
    <path fill="#D9D9D9" d="M0 0h20v20H0z"></path>
  </mask>
  <g mask="url(#searchFilters_svg__a)">
    <path fill="#222"
      d="M14.237 16q-1.161 0-1.962-.79-.801-.792-.801-1.937t.801-1.937q.801-.79 1.962-.79t1.962.79.801 1.937-.801 1.936q-.802.79-1.962.791m0-1.454q.534 0 .912-.373.377-.373.377-.9 0-.528-.377-.9a1.25 1.25 0 0 0-.912-.373q-.534 0-.912.373a1.22 1.22 0 0 0-.378.9q0 .527.378.9t.912.373M4.105 14v-1.454H10V14zm1.658-4.545q-1.16 0-1.962-.791Q3 7.872 3 6.727t.801-1.936Q4.603 4 5.763 4q1.161 0 1.962.79.801.792.801 1.937t-.801 1.937q-.801.79-1.962.79m0-1.455q.534 0 .912-.373.378-.372.378-.9 0-.526-.378-.9a1.25 1.25 0 0 0-.912-.372q-.534 0-.912.372a1.22 1.22 0 0 0-.377.9q0 .528.377.9Q5.23 8 5.763 8M10 7.455V6h5.895v1.455z">
    </path>
  </g>
</svg>