<svg width="16" height="16" viewBox="0 0 16 16" fill="none" xmlns="http://www.w3.org/2000/svg">
<g clip-path="url(#clip0_280_12028)">
<circle cx="8" cy="8" r="7" fill="#6F7383"/>
<path d="M5.42625 8.19C5.42625 8.68333 5.53292 9.11667 5.74625 9.49C5.95958 9.85667 6.25625 10.14 6.63625 10.34C7.02292 10.5333 7.46625 10.63 7.96625 10.63H11.1363V12H4.37625V10.77H5.34625C4.89958 10.5033 4.54625 10.14 4.28625 9.68C4.02625 9.21333 3.89625 8.66 3.89625 8.02C3.89625 7.18667 4.13292 6.46333 4.60625 5.85C5.07958 5.23 5.70958 4.80667 6.49625 4.58V3.35H7.30625V4.43C7.49292 4.41667 7.63958 4.41 7.74625 4.41C7.84625 4.41 7.98958 4.41667 8.17625 4.43V3.35H9.00625V4.59C9.78625 4.83 10.4096 5.27333 10.8763 5.92C11.3429 6.56667 11.5763 7.34667 11.5763 8.26H10.0463C10.0463 7.14667 9.69958 6.39333 9.00625 6V8.26H8.17625V5.74C8.03625 5.72 7.89292 5.71 7.74625 5.71C7.59292 5.71 7.44625 5.72 7.30625 5.74V8.26H6.49625V5.99C6.15625 6.17667 5.89292 6.45333 5.70625 6.82C5.51958 7.18667 5.42625 7.64333 5.42625 8.19Z" fill="white"/>
</g>
<defs>
<clipPath id="clip0_280_12028">
<rect width="16" height="16" fill="white"/>
</clipPath>
</defs>
</svg>
