<svg xmlns="http://www.w3.org/2000/svg" width="22" height="18" viewBox="0 0 22 18" fill="none">
    <path d="M16.9114 0.064234C17.6226 0.0867918 18.1648 0.329216 18.4208 0.461091L18.5127 0.509886L18.518 0.512883C20.3666 1.52406 22.536 3.96554 21.7911 7.21814L21.7913 7.21831L21.7837 7.25212C21.7767 7.28715 21.7278 7.52524 21.6407 7.77255L21.6404 7.77238C21.346 8.60888 20.6115 9.47846 19.4996 9.78914C18.8355 11.3633 17.8923 12.7749 16.6837 13.9695C16.683 13.9702 16.6822 13.971 16.6815 13.9717C15.5601 15.0779 14.3158 16.0939 12.9823 16.9955C12.9768 17.0001 12.9695 17.0063 12.9594 17.015C12.9559 17.018 12.9524 17.021 12.9489 17.024C12.8976 17.0677 12.6844 17.2535 12.4235 17.4182C12.1561 17.587 11.5308 17.9369 10.6581 17.9369H10.6579C10.5175 17.9369 10.4025 17.9276 10.3286 17.92C10.2912 17.9161 10.2604 17.9121 10.2402 17.9095C10.2217 17.907 10.2058 17.9049 10.2041 17.9046C10.1725 17.9002 10.1408 17.8952 10.1093 17.8898C9.16312 17.7265 8.55613 17.1994 8.2406 16.8428C7.97287 16.5402 7.80207 16.2311 7.74916 16.1368V16.1367C7.68942 16.0306 7.63157 15.9256 7.5767 15.8243C7.24796 15.9433 6.8793 16.0144 6.47022 16.0144H6.46988C5.97769 16.0144 5.58452 15.9037 5.33897 15.8149C5.10151 15.7291 4.91721 15.6305 4.89485 15.6189C4.89397 15.6185 4.89301 15.618 4.89213 15.6176C4.67944 15.5069 4.4866 15.3845 4.31167 15.2554C3.953 15.2588 3.5794 15.2019 3.20145 15.0682C2.73487 14.9031 2.40477 14.6664 2.21672 14.5131C2.03472 14.3648 1.89794 14.219 1.88978 14.2105L1.88995 14.2103C1.32643 13.6273 1.05004 12.9911 0.947439 12.7656C0.946984 12.7646 0.946535 12.7636 0.946082 12.7626C0.399872 11.5591 0.208335 10.3471 0.102777 9.55748L0.0873451 9.43142C0.0505349 9.091 0.0220775 8.43948 0.303555 7.71842C0.669022 6.78224 1.3737 6.16093 2.10717 5.79892L2.19061 5.75795L2.27217 5.71948C2.51409 5.60952 2.76718 5.53317 3.02458 5.49C3.255 5.28751 3.52922 5.10354 3.85432 4.95841C4.71198 3.23628 6.46623 2.05333 8.565 1.92794L8.57687 1.92728C9.55842 1.87249 10.5535 2.03012 11.499 2.48351C11.7423 2.32893 11.9966 2.18882 12.2608 2.06384L12.2652 2.06167C12.8212 1.79972 13.3988 1.64018 13.9765 1.57472C14.0907 1.39847 14.2252 1.23251 14.3791 1.08044L14.4078 1.05213L14.4266 1.03364C15.0631 0.415965 15.9391 0.0334023 16.9114 0.064234ZM16.6889 5.75862C16.1011 4.6205 14.7267 4.15976 13.5589 4.70994C12.819 5.05998 12.2703 5.57787 11.9279 6.24973C11.9071 6.29122 11.8902 6.33627 11.8738 6.3813C11.8406 6.47297 11.8121 6.55256 11.7408 6.60446C11.7393 6.60446 11.737 6.6045 11.734 6.60362C11.6663 6.51373 11.6002 6.42279 11.5341 6.332L11.5024 6.28904C10.7437 5.24691 9.87203 4.797 8.74662 4.85982C7.28794 4.94696 6.25114 6.03789 6.28046 7.45463C6.29017 7.93473 6.39862 8.39976 6.60232 8.83638C6.81579 9.29488 7.07891 9.74563 7.40747 10.2125C7.7067 10.6369 8.0083 11.0594 8.30978 11.4826C8.66863 11.9841 9.02716 12.4864 9.38066 12.9916C9.64141 13.3644 9.8581 13.7722 10.0686 14.1672C10.167 14.3521 10.2657 14.5367 10.3684 14.719C10.4647 14.8905 10.5317 14.9804 10.6271 14.9969C10.637 14.9983 10.6473 14.9997 10.6579 14.9997C10.7527 14.9997 10.849 14.9245 10.9888 14.8054C11.0669 14.7382 11.1608 14.6606 11.2625 14.5926C12.4572 13.7869 13.5671 12.8806 14.5619 11.8993C15.5611 10.9117 16.3357 9.71908 16.8627 8.35343C17.1943 7.49526 17.1364 6.62143 16.6889 5.75862ZM13.7049 5.30681C14.1761 5.05191 14.6973 5.00455 15.1724 5.17441C15.6648 5.35092 16.0492 5.73449 16.2529 6.2544C16.5973 7.12872 16.4852 8.02092 15.9017 9.06104C15.1154 10.4618 14.1138 11.6406 12.925 12.564C12.7274 12.7182 12.5318 12.8814 12.3422 13.0394C11.9537 13.3653 11.5511 13.7013 11.1083 13.9695C10.94 14.0707 10.8302 14.126 10.7556 14.1061C10.694 14.0897 10.6337 14.0167 10.5412 13.8451C10.0127 12.8653 9.35124 11.9524 8.71202 11.0696C8.49857 10.775 8.28513 10.4803 8.07611 10.1837C7.7135 9.66714 7.42996 9.19223 7.20889 8.72996C6.99392 8.28247 6.90004 7.82874 6.90298 7.26011C6.92238 6.72611 7.11939 6.01355 7.94587 5.64704C8.81269 5.26385 9.63602 5.36941 10.3956 5.96163C10.6819 6.18486 10.8963 6.48677 11.1039 6.77866L11.1819 6.88874C11.2007 6.91434 11.219 6.94173 11.2363 6.96917C11.2842 7.04299 11.3347 7.1192 11.4032 7.17884C11.5414 7.30082 11.7002 7.35396 11.8505 7.32889C12.0038 7.30232 12.1401 7.19584 12.2333 7.02746C12.2823 6.9375 12.3198 6.84145 12.3535 6.75068C12.5776 6.1503 13.0198 5.67738 13.7049 5.30681ZM5.31709 7.63915C5.26162 7.60313 5.19373 7.59552 5.12683 7.61833C5.00874 7.65893 4.90508 7.78242 4.84787 7.94941C4.80143 8.0875 4.76741 8.24552 4.74952 8.41904C4.71487 8.74459 4.75099 9.07111 4.78564 9.38662L4.79005 9.42209C4.80651 9.57485 4.84194 9.72623 4.87569 9.87324C4.93056 10.106 4.98171 10.3269 4.96675 10.555C4.09146 10.7087 3.85919 10.5563 3.67661 9.7475C3.6246 9.51801 3.60817 9.28298 3.59148 9.03356C3.57885 8.85484 3.56682 8.66937 3.53976 8.46983L3.52823 8.38507L3.45022 8.42337C3.05237 8.61973 3.03149 8.90067 3.06817 9.17462C3.16649 9.91016 3.31626 10.7699 3.67796 11.5669C3.78455 11.8011 3.88624 12.0101 4.06002 12.1894C4.13579 12.2679 4.2638 12.3999 4.46141 12.2447L4.48837 12.2234L4.48413 12.1894C4.45624 11.9818 4.35632 11.7944 4.25995 11.6127C4.15306 11.4111 4.04266 11.2034 4.02763 10.9647C4.10045 10.9716 4.17132 10.9782 4.24113 10.9849C4.44108 11.0033 4.63058 11.021 4.82023 11.0218C5.0457 11.0238 5.16666 11.1132 5.23739 11.3318C5.32842 11.6141 5.42243 11.8682 5.52466 12.1062C5.65912 12.4161 5.86761 12.801 6.29301 13.0224C6.33736 13.0455 6.39997 13.0772 6.46988 13.0772C6.54887 13.0772 6.63804 13.0357 6.7217 12.8895L6.74646 12.8469L6.70881 12.8134C6.47048 12.6081 6.20684 12.3521 6.0556 12.0116C5.71938 11.2501 5.4901 10.4472 5.35321 9.55732C5.28188 9.08613 5.23457 8.58003 5.37814 8.07481C5.38347 8.05578 5.39071 8.03503 5.39747 8.01519C5.43445 7.90934 5.49002 7.75076 5.31709 7.63915ZM17.0627 3.07888C16.9176 2.99991 16.7249 2.93273 16.5288 3.12301L16.5002 3.15132L16.5146 3.18829C16.5912 3.38547 16.74 3.46355 16.8715 3.53219C16.9167 3.55581 16.962 3.57901 17.0016 3.6078C17.8249 4.18365 18.2589 4.82842 18.3672 5.63805C18.4174 6.01239 18.4094 6.38385 18.3935 6.72903C18.3882 6.85297 18.4568 6.94676 18.5682 6.96751C18.5831 6.97038 18.598 6.97117 18.6124 6.97117C18.7049 6.97117 18.7787 6.91404 18.8139 6.81313C18.8342 6.75552 18.8461 6.69701 18.8581 6.6411L18.8717 6.58114C19.2282 5.04044 18.2198 3.71182 17.0627 3.07888Z" fill="#A0325A"/>
    <path d="M13.5589 4.71014C14.7267 4.15997 16.1011 4.6207 16.689 5.75882C17.1364 6.62164 17.1943 7.49547 16.8628 8.35363C16.3358 9.71929 15.5612 10.9119 14.562 11.8995C13.5672 12.8808 12.4572 13.7871 11.2625 14.5928C11.1609 14.6608 11.0669 14.7384 10.9888 14.8056C10.8491 14.9247 10.7527 14.9999 10.658 14.9999C10.6474 14.9999 10.6371 14.9985 10.6271 14.9971C10.5317 14.9806 10.4648 14.8907 10.3685 14.7192C10.2657 14.5369 10.167 14.3523 10.0687 14.1674C9.85814 13.7724 9.64146 13.3646 9.38071 12.9918C9.0272 12.4866 8.66868 11.9843 8.30983 11.4829C8.00835 11.0596 7.70674 10.6371 7.40752 10.2127C7.07896 9.74584 6.81584 9.29508 6.60236 8.83659C6.39867 8.39996 6.29021 7.93493 6.28051 7.45483C6.25119 6.03809 7.28799 4.94717 8.74666 4.86003C9.87208 4.79721 10.7437 5.24712 11.5025 6.28924L11.5342 6.33221C11.6002 6.42299 11.6663 6.51393 11.7341 6.60383C11.737 6.6047 11.7394 6.60466 11.7409 6.60466C11.8122 6.55277 11.8407 6.47317 11.8738 6.3815C11.8903 6.33647 11.9071 6.29143 11.9279 6.24994C12.2703 5.57807 12.8191 5.06019 13.5589 4.71014ZM15.1724 5.17461C14.6974 5.00476 14.1761 5.05212 13.7049 5.30701C13.0198 5.67759 12.5776 6.1505 12.3536 6.75088C12.3198 6.84166 12.2823 6.9377 12.2333 7.02767C12.1402 7.19605 12.0039 7.30252 11.8506 7.3291C11.7003 7.35417 11.5415 7.30102 11.4033 7.17905C11.3348 7.1194 11.2843 7.0432 11.2364 6.96938C11.219 6.94193 11.2007 6.91454 11.182 6.88894L11.104 6.77886C10.8963 6.48697 10.6819 6.18507 10.3956 5.96183C9.63607 5.36962 8.81273 5.26405 7.94592 5.64724C7.11944 6.01375 6.92243 6.72632 6.90302 7.26032C6.90009 7.82895 6.99397 8.28268 7.20894 8.73017C7.43001 9.19243 7.71355 9.66735 8.07616 10.1839C8.28518 10.4805 8.49862 10.7752 8.71207 11.0698C9.35128 11.9526 10.0128 12.8655 10.5413 13.8453C10.6337 14.0169 10.694 14.0899 10.7556 14.1063C10.8303 14.1262 10.9401 14.0709 11.1084 13.9697C11.5511 13.7016 11.9537 13.3655 12.3422 13.0396C12.5318 12.8816 12.7274 12.7184 12.925 12.5642C14.1139 11.6408 15.1155 10.462 15.9018 9.06124C16.4852 8.02113 16.5974 7.12892 16.253 6.2546C16.0492 5.73469 15.6649 5.35112 15.1724 5.17461ZM5.12688 7.61854C5.19377 7.59573 5.26167 7.60333 5.31714 7.63935C5.49006 7.75097 5.4345 7.90954 5.39752 8.01539C5.39076 8.03524 5.38352 8.05598 5.37819 8.07501C5.23462 8.58024 5.28193 9.08633 5.35326 9.55752C5.49014 10.4474 5.71943 11.2503 6.05565 12.0118C6.20689 12.3523 6.47053 12.6083 6.70886 12.8136L6.7465 12.8471L6.72175 12.8898C6.63809 13.0359 6.54892 13.0774 6.46992 13.0774C6.40002 13.0774 6.33741 13.0457 6.29306 13.0226C5.86766 12.8012 5.65917 12.4163 5.5247 12.1064C5.42247 11.8684 5.32847 11.6143 5.23744 11.332C5.16671 11.1134 5.04575 11.024 4.82028 11.022C4.63063 11.0212 4.44112 11.0035 4.24118 10.9851C4.17137 10.9784 4.10049 10.9718 4.02768 10.9649C4.04271 11.2037 4.15311 11.4113 4.26 11.6129C4.35636 11.7946 4.45629 11.982 4.48418 12.1896L4.48842 12.2236L4.46146 12.2449C4.26385 12.4001 4.13584 12.2681 4.06007 12.1896C3.88628 12.0103 3.7846 11.8013 3.67801 11.5671C3.3163 10.7701 3.16653 9.91037 3.06821 9.17482C3.03154 8.90088 3.05242 8.61993 3.45027 8.42357L3.52828 8.38527L3.53981 8.47004C3.56687 8.66958 3.5789 8.85505 3.59153 9.03377C3.60821 9.28319 3.62465 9.51822 3.67666 9.74771C3.85923 10.5565 4.0915 10.7089 4.9668 10.5552C4.98175 10.3271 4.93061 10.1062 4.87573 9.87344C4.84199 9.72643 4.80656 9.57506 4.7901 9.4223L4.78569 9.38682C4.75104 9.07131 4.71492 8.74479 4.74957 8.41925C4.76746 8.24573 4.80148 8.08771 4.84792 7.94961C4.90513 7.78263 5.00879 7.65914 5.12688 7.61854ZM16.5289 3.12322C16.725 2.93294 16.9176 3.00011 17.0627 3.07908C18.2198 3.71202 19.2282 5.04064 18.8718 6.58135L18.8582 6.6413C18.8462 6.69722 18.8342 6.75572 18.8139 6.81333C18.7788 6.91425 18.7049 6.97138 18.6125 6.97138C18.5981 6.97137 18.5831 6.97058 18.5682 6.96771C18.4569 6.94697 18.3882 6.85318 18.3936 6.72923C18.4094 6.38405 18.4175 6.01259 18.3673 5.63825C18.2589 4.82863 17.8249 4.18386 17.0017 3.608C16.9621 3.57921 16.9168 3.55602 16.8716 3.5324C16.7401 3.46376 16.5912 3.38567 16.5146 3.1885L16.5002 3.15153L16.5289 3.12322Z" fill="white"/>
</svg>