<svg xmlns="http://www.w3.org/2000/svg" width="22" height="18" fill="none" class="mr-1">
    <path fill="#A0325A"
        d="M16.847.002a3.6 3.6 0 0 1 1.51.397l.091.048.005.003c1.85 1.012 4.018 3.453 3.274 6.706l-.008.034a4 4 0 0 1-.143.52c-.294.836-1.029 1.706-2.14 2.017a12.9 12.9 0 0 1-2.817 4.18l-.002.002a26 26 0 0 1-3.7 3.024l-.022.02-.01.009c-.052.043-.265.229-.526.394a3.3 3.3 0 0 1-1.765.518c-.141 0-.256-.009-.33-.016l-.088-.011-.036-.005-.095-.015a3.22 3.22 0 0 1-1.869-1.047c-.268-.302-.438-.611-.491-.706q-.09-.159-.173-.312a3.325 3.325 0 0 1-2.238-.01c-.237-.085-.421-.184-.444-.196h-.002a4.4 4.4 0 0 1-.58-.363 3.2 3.2 0 0 1-1.111-.187 3.3 3.3 0 0 1-.985-.555c-.182-.149-.319-.295-.327-.303-.563-.583-.84-1.22-.942-1.445L.882 12.7C.335 11.497.144 10.285.038 9.495l-.015-.126a3.64 3.64 0 0 1 .216-1.713c.366-.936 1.07-1.558 1.804-1.92l.083-.04.082-.039q.365-.165.752-.23c.23-.202.505-.386.83-.531.858-1.722 2.612-2.905 4.71-3.03l.012-.001c.982-.055 1.977.103 2.923.556q.365-.232.761-.42L12.201 2a5.5 5.5 0 0 1 1.711-.487q.172-.265.403-.494l.028-.028.02-.019a3.4 3.4 0 0 1 2.484-.97m-.223 5.694a2.37 2.37 0 0 0-3.13-1.049c-.74.35-1.288.868-1.63 1.54q-.03.064-.055.132c-.033.091-.061.171-.133.223h-.006q-.102-.136-.2-.272l-.032-.043c-.759-1.043-1.63-1.493-2.756-1.43-1.459.087-2.495 1.178-2.466 2.595.01.48.118.945.322 1.382.213.458.476.91.805 1.376q.45.636.902 1.27.54.752 1.071 1.51c.261.372.478.78.688 1.175q.146.278.3.551c.096.172.163.262.259.278l.03.003c.095 0 .192-.075.331-.194.078-.067.172-.145.274-.213a23 23 0 0 0 3.3-2.693c.999-.988 1.773-2.18 2.3-3.546.332-.858.274-1.732-.173-2.595m-2.984-.452a1.79 1.79 0 0 1 1.468-.132c.492.176.877.56 1.08 1.08.345.874.233 1.766-.35 2.807-.787 1.4-1.789 2.58-2.977 3.502-.198.155-.394.318-.583.476-.389.326-.791.662-1.234.93-.168.101-.278.156-.353.137-.062-.017-.122-.09-.214-.261-.529-.98-1.19-1.893-1.83-2.776q-.32-.441-.635-.886a10 10 0 0 1-.868-1.454c-.215-.447-.308-.9-.305-1.47.019-.533.216-1.246 1.042-1.612.867-.384 1.69-.278 2.45.314.286.223.5.525.708.817l.079.11q.028.04.054.08c.048.074.098.15.167.21a.54.54 0 0 0 .447.15c.153-.026.29-.133.383-.301a2 2 0 0 0 .12-.277c.224-.6.666-1.073 1.351-1.444M5.253 7.577a.22.22 0 0 0-.19-.021c-.119.04-.222.164-.28.33q-.07.21-.098.47c-.035.326.002.653.036.968l.005.036c.016.152.051.304.085.45.055.233.106.454.091.682-.875.154-1.107.002-1.29-.807a4.6 4.6 0 0 1-.085-.714c-.013-.179-.025-.364-.052-.564l-.011-.084-.078.038c-.398.196-.419.477-.382.751.098.736.248 1.595.61 2.392.106.235.208.444.382.623.075.078.203.21.401.055l.027-.021-.004-.034c-.028-.208-.128-.395-.224-.577-.107-.201-.218-.41-.233-.648l.214.02c.2.019.39.037.579.037.225.002.346.092.417.31.091.283.185.537.287.775.135.31.343.694.769.916a.4.4 0 0 0 .176.055c.08 0 .169-.042.252-.188l.025-.043-.038-.033c-.238-.205-.502-.461-.653-.802a9.6 9.6 0 0 1-.702-2.454c-.072-.471-.119-.977.025-1.483l.019-.06c.037-.105.093-.264-.08-.375m11.745-4.56c-.145-.08-.338-.147-.534.044l-.028.028.014.037c.077.197.226.275.357.344q.069.034.13.075c.823.576 1.257 1.22 1.366 2.03.05.375.042.746.026 1.092-.005.123.063.217.175.238q.023.004.044.004c.092 0 .166-.057.201-.158q.029-.088.045-.172l.013-.06c.357-1.541-.652-2.87-1.809-3.503">
    </path>
</svg>