<svg xmlns="http://www.w3.org/2000/svg" width="107" height="33" viewBox="0 0 107 33" fill="none">
    <g clip-path="url(#clip0_6196_17171)">
        <path
            d="M0 4.95C0 2.21619 2.21102 0 4.93846 0H102.062C104.789 0 107 2.21619 107 4.95V28.05C107 30.7838 104.789 33 102.062 33H4.93846C2.21102 33 0 30.7838 0 28.05V4.95Z"
            fill="black"></path>
        <path fill-rule="evenodd" clip-rule="evenodd"
            d="M86.3374 25.5358H87.8733V15.2225H86.3374V25.5358ZM100.171 18.9375L98.4103 23.409H98.3576L96.5304 18.9375H94.876L97.616 25.1869L96.0538 28.6634H97.6563L101.879 18.9375H100.171ZM91.461 24.3643C90.9573 24.3643 90.2561 24.1127 90.2561 23.489C90.2561 22.6929 91.1302 22.3876 91.8841 22.3876C92.5599 22.3876 92.8767 22.5337 93.2875 22.7325C93.1681 23.6878 92.3475 24.3643 91.461 24.3643ZM91.6462 18.7123C90.5343 18.7123 89.3828 19.2031 88.9062 20.2913L90.2692 20.8614C90.5606 20.2913 91.103 20.1049 91.6726 20.1049C92.4668 20.1049 93.2743 20.5825 93.2875 21.4323V21.5379C93.0093 21.3787 92.4142 21.1402 91.6857 21.1402C90.2166 21.1402 88.7202 21.9496 88.7202 23.4618C88.7202 24.842 89.9252 25.7314 91.275 25.7314C92.308 25.7314 92.8767 25.2669 93.2348 24.7224H93.2875V25.5185H94.7698V21.5651C94.7698 19.7336 93.4068 18.7123 91.6462 18.7123ZM82.1545 20.1931H79.9701V16.658H82.1545C83.3027 16.658 83.9546 17.6109 83.9546 18.4252C83.9546 19.2246 83.3027 20.1931 82.1545 20.1931ZM82.115 15.2225H78.435V25.5358H79.9701V21.6286H82.115C83.8171 21.6286 85.4904 20.3928 85.4904 18.4252C85.4904 16.4575 83.8171 15.2225 82.115 15.2225ZM62.0476 24.366C60.9866 24.366 60.0985 23.4758 60.0985 22.2532C60.0985 21.0173 60.9866 20.1131 62.0476 20.1131C63.0953 20.1131 63.9168 21.0173 63.9168 22.2532C63.9168 23.4758 63.0953 24.366 62.0476 24.366ZM63.8106 19.515H63.7579C63.4131 19.1033 62.7505 18.7312 61.9151 18.7312C60.1644 18.7312 58.5602 20.2723 58.5602 22.2532C58.5602 24.22 60.1644 25.7487 61.9151 25.7487C62.7505 25.7487 63.4131 25.3766 63.7579 24.9509H63.8106V25.4558C63.8106 26.7989 63.0953 27.5167 61.9414 27.5167C60.9998 27.5167 60.4162 26.8385 60.1775 26.2668L58.8384 26.8253C59.2228 27.7559 60.2442 28.8985 61.9414 28.8985C63.7448 28.8985 65.2699 27.8351 65.2699 25.2438V18.9433H63.8106V19.515ZM66.3309 25.5358H67.8692V15.2217H66.3309V25.5358ZM70.1359 22.1335C70.0964 20.7781 71.1837 20.0867 71.9656 20.0867C72.5764 20.0867 73.0933 20.392 73.2653 20.8309L70.1359 22.1335ZM74.9098 20.9637C74.6184 20.1799 73.7295 18.7312 71.913 18.7312C70.1096 18.7312 68.6116 20.1527 68.6116 22.24C68.6116 24.2068 70.0964 25.7487 72.085 25.7487C73.69 25.7487 74.6184 24.7653 75.0028 24.1936L73.8093 23.3958C73.4118 23.9807 72.8677 24.366 72.085 24.366C71.3031 24.366 70.7458 24.0071 70.3878 23.3034L75.0686 21.363L74.9098 20.9637ZM37.6178 19.8079V21.2962H41.171C41.0649 22.1335 40.7867 22.7449 40.3628 23.1706C39.8451 23.6887 39.036 24.2596 37.6178 24.2596C35.4301 24.2596 33.7189 22.4924 33.7189 20.2996C33.7189 18.1059 35.4301 16.3387 37.6178 16.3387C38.7981 16.3387 39.6599 16.804 40.2961 17.4022L41.3439 16.3519C40.455 15.5014 39.2755 14.8496 37.6178 14.8496C34.621 14.8496 32.1016 17.2957 32.1016 20.2996C32.1016 23.3034 34.621 25.7487 37.6178 25.7487C39.2352 25.7487 40.455 25.2174 41.4097 24.22C42.3908 23.2366 42.6962 21.8547 42.6962 20.7376C42.6962 20.392 42.6699 20.0735 42.6164 19.8079H37.6178ZM46.7367 24.366C45.6757 24.366 44.7605 23.489 44.7605 22.24C44.7605 20.9769 45.6757 20.1131 46.7367 20.1131C47.7968 20.1131 48.7121 20.9769 48.7121 22.24C48.7121 23.489 47.7968 24.366 46.7367 24.366ZM46.7367 18.7312C44.8 18.7312 43.2222 20.2063 43.2222 22.24C43.2222 24.2596 44.8 25.7487 46.7367 25.7487C48.6726 25.7487 50.2504 24.2596 50.2504 22.24C50.2504 20.2063 48.6726 18.7312 46.7367 18.7312ZM54.402 24.366C53.3411 24.366 52.4258 23.489 52.4258 22.24C52.4258 20.9769 53.3411 20.1131 54.402 20.1131C55.463 20.1131 56.3774 20.9769 56.3774 22.24C56.3774 23.489 55.463 24.366 54.402 24.366ZM54.402 18.7312C52.4661 18.7312 50.8883 20.2063 50.8883 22.24C50.8883 24.2596 52.4661 25.7487 54.402 25.7487C56.3379 25.7487 57.9157 24.2596 57.9157 22.24C57.9157 20.2063 56.3379 18.7312 54.402 18.7312Z"
            fill="white"></path>
        <path
            d="M35.7771 10.8579C35.5987 11.1142 35.3491 11.3063 35.0283 11.4344C34.7101 11.5601 34.3387 11.623 33.9143 11.623C33.4851 11.623 33.1041 11.5226 32.7713 11.322C32.4385 11.119 32.1806 10.8314 31.9973 10.4591C31.8165 10.087 31.7236 9.6555 31.7188 9.16487V8.70444C31.7188 7.90925 31.9033 7.29291 32.2722 6.85543C32.6436 6.41796 33.1644 6.19922 33.8347 6.19922C34.3845 6.19922 34.827 6.34062 35.1622 6.6234C35.4974 6.90378 35.7024 7.30257 35.7771 7.81982H35.0826C34.9524 7.1213 34.5376 6.77205 33.8383 6.77205C33.373 6.77205 33.0197 6.93641 32.7785 7.26511C32.5399 7.59141 32.4193 8.06514 32.4169 8.68629V9.11776C32.4169 9.70987 32.5519 10.1812 32.822 10.5316C33.0921 10.8797 33.4573 11.0537 33.9179 11.0537C34.1784 11.0537 34.4063 11.0248 34.6016 10.9668C34.7969 10.9088 34.9585 10.8108 35.0862 10.6731V9.48753H33.8673V8.92199H35.7771V10.8579ZM39.6927 9.1105H37.4104V10.9813H40.0617V11.5504H36.7159V6.27173H40.0255V6.84456H37.4104V8.54125H39.6927V9.1105ZM44.415 6.84456H42.7222V11.5504H42.0314V6.84456H40.3422V6.27173H44.415V6.84456ZM47.1897 11.5504H46.4952V6.27173H47.1897V11.5504ZM51.7709 6.84456H50.0781V11.5504H49.3872V6.84456H47.6981V6.27173H51.7709V6.84456ZM57.8516 9.08146C57.8516 9.59874 57.7648 10.0507 57.5912 10.4374C57.4175 10.8217 57.1716 11.1154 56.8533 11.3185C56.535 11.5214 56.1636 11.623 55.7393 11.623C55.3245 11.623 54.9568 11.5214 54.636 11.3185C54.3153 11.1129 54.0658 10.8217 53.8873 10.4447C53.7113 10.0652 53.6208 9.62654 53.6161 9.12865V8.74792C53.6161 8.24037 53.704 7.79202 53.8801 7.40289C54.0561 7.01375 54.3045 6.71645 54.6251 6.51101C54.9483 6.30315 55.3173 6.19922 55.732 6.19922C56.154 6.19922 56.5253 6.30194 56.8461 6.50739C57.1692 6.71041 57.4175 7.0065 57.5912 7.39563C57.7648 7.78235 57.8516 8.23312 57.8516 8.74792V9.08146ZM57.1607 8.74066C57.1607 8.11469 57.0354 7.63492 56.7846 7.30137C56.5338 6.9654 56.1829 6.79743 55.732 6.79743C55.2932 6.79743 54.9471 6.9654 54.6939 7.30137C54.4432 7.63492 54.3141 8.09898 54.3069 8.69355V9.08146C54.3069 9.68817 54.4335 10.1655 54.6867 10.5136C54.9423 10.8592 55.2932 11.032 55.7393 11.032C56.1878 11.032 56.535 10.8688 56.7809 10.5425C57.0269 10.2139 57.1535 9.74377 57.1607 9.1322V8.74066ZM62.7185 11.5504H62.0204L59.3691 7.48265V11.5504H58.6711V6.27173H59.3691L62.0277 10.3577V6.27173H62.7185V11.5504Z"
            fill="white"></path>
        <path fill-rule="evenodd" clip-rule="evenodd"
            d="M7.76698 6.22639C7.52747 6.48049 7.38672 6.87402 7.38672 7.38469V25.6155C7.38672 26.1262 7.52747 26.5197 7.76698 26.7738L7.82789 26.8332L18.0168 16.6206V16.3797L7.82789 6.16699L7.76698 6.22639Z"
            fill="#00D7FE"></path>
        <mask id="mask0_6196_17171" maskUnits="userSpaceOnUse" x="18" y="12" width="9" height="9"
            style="mask-type: alpha;">
            <path
                d="M21.4107 20.0256L18.0155 16.62V16.3791L21.4123 12.9744L25.5129 15.3091C26.6619 15.9642 26.6619 17.035 25.5129 17.6892L21.4889 19.9811L21.4107 20.0256Z"
                fill="white"></path>
        </mask>
        <g mask="url(#mask0_6196_17171)">
            <path fill-rule="evenodd" clip-rule="evenodd"
                d="M21.4107 20.0256L18.0155 16.62V16.3791L21.4123 12.9744L25.5129 15.3091C26.6619 15.9642 26.6619 17.035 25.5129 17.6892L21.4889 19.9811L21.4107 20.0256Z"
                fill="url(#paint0_linear_6196_17171)"></path>
        </g>
        <mask id="mask1_6196_17171" maskUnits="userSpaceOnUse" x="7" y="16" width="15" height="12"
            style="mask-type: alpha;">
            <path
                d="M21.4889 19.9815L18.0155 16.5L7.76575 26.7737C8.14519 27.1755 8.77072 27.225 9.47528 26.8241L21.4889 19.9815Z"
                fill="white"></path>
        </mask>
        <g mask="url(#mask1_6196_17171)">
            <path fill-rule="evenodd" clip-rule="evenodd"
                d="M21.4889 19.9815L18.0155 16.5L7.76575 26.7737C8.14519 27.1755 8.77072 27.225 9.47528 26.8241L21.4889 19.9815Z"
                fill="url(#paint1_linear_6196_17171)"></path>
        </g>
        <mask id="mask2_6196_17171" maskUnits="userSpaceOnUse" x="7" y="5" width="15" height="12"
            style="mask-type: alpha;">
            <path
                d="M21.4889 13.019L9.47528 6.17643C8.77072 5.77548 8.14519 5.82498 7.76575 6.22676L18.0155 16.5005L21.4889 13.019Z"
                fill="white"></path>
        </mask>
        <g mask="url(#mask2_6196_17171)">
            <path fill-rule="evenodd" clip-rule="evenodd"
                d="M21.4889 13.019L9.47528 6.17643C8.77072 5.77548 8.14519 5.82498 7.76575 6.22676L18.0155 16.5005L21.4889 13.019Z"
                fill="url(#paint2_linear_6196_17171)"></path>
        </g>
    </g>
    <defs>
        <linearGradient id="paint0_linear_6196_17171" x1="24.7654" y1="16.4998" x2="18.0155" y2="16.4998"
            gradientUnits="userSpaceOnUse">
            <stop stop-color="#FFBC00"></stop>
            <stop offset="1" stop-color="#FFDA03"></stop>
        </linearGradient>
        <linearGradient id="paint1_linear_6196_17171" x1="19.6013" y1="19.7759" x2="10.7748" y2="27.0343"
            gradientUnits="userSpaceOnUse">
            <stop stop-color="#E22652"></stop>
            <stop offset="1" stop-color="#FF3A44"></stop>
        </linearGradient>
        <linearGradient id="paint2_linear_6196_17171" x1="9.31782" y1="7.46357" x2="15.2034" y2="12.6268"
            gradientUnits="userSpaceOnUse">
            <stop stop-color="#0ED574"></stop>
            <stop offset="1" stop-color="#07F076"></stop>
        </linearGradient>
        <clipPath id="clip0_6196_17171">
            <rect width="107" height="33" fill="white"></rect>
        </clipPath>
    </defs>
</svg>