<svg xmlns="http://www.w3.org/2000/svg" class="h-5 sm:h-6" fill="none" height="24" viewBox="0 0 25 24" width="25">
  <path clip-rule="evenodd"
    d="M5.33916 12.0064C5.33916 11.227 5.46853 10.4796 5.69972 9.77874L1.65535 6.69043C0.867096 8.29074 0.423096 10.0941 0.423096 12.0064C0.423096 13.9172 0.866721 15.7193 1.65366 17.3187L5.69578 14.2244C5.46685 13.5267 5.33916 12.7821 5.33916 12.0064Z"
    fill="#FBBC05" fill-rule="evenodd"></path>
  <path clip-rule="evenodd"
    d="M12.4398 4.91645C14.1332 4.91645 15.6626 5.51645 16.8643 6.4982L20.36 3.00732C18.2298 1.15276 15.4987 0.00732422 12.4398 0.00732422C7.69084 0.00732422 3.60934 2.72307 1.65503 6.69132L5.69922 9.77964C6.63109 6.95101 9.2874 4.91645 12.4398 4.91645Z"
    fill="#EA4335" fill-rule="evenodd"></path>
  <path clip-rule="evenodd"
    d="M12.4398 19.0981C9.28759 19.0981 6.63128 17.0635 5.6994 14.2349L1.65503 17.3226C3.60934 21.2914 7.69084 24.0072 12.4398 24.0072C15.3708 24.0072 18.1693 22.9664 20.2695 21.0164L16.4306 18.0486C15.3474 18.7309 13.9833 19.0981 12.4398 19.0981Z"
    fill="#34A853" fill-rule="evenodd"></path>
  <path clip-rule="evenodd"
    d="M23.9101 12.0074C23.9101 11.2983 23.8008 10.5346 23.637 9.82568H12.4395V14.462H18.885C18.5626 16.0428 17.6855 17.258 16.4302 18.0489L20.2691 21.0166C22.4752 18.9691 23.9101 15.9189 23.9101 12.0074Z"
    fill="#4285F4" fill-rule="evenodd"></path>
</svg>