<svg xmlns="http://www.w3.org/2000/svg" width="32" height="32" fill="none">
  <rect width="32" height="32" fill="#F2F3F6" rx="16"></rect>
  <g clip-path="url(#AddFavorites_svg__a)">
    <path fill="#A4AEC1"
      d="M12.247 10.167c-1.666 0-2.916 1.49-2.916 3.468a7.95 7.95 0 0 0 2.602 5.643 21 21 0 0 0 4.064 3.105 21 21 0 0 0 4.065-3.105 7.95 7.95 0 0 0 2.602-5.643 3.78 3.78 0 0 0-.907-2.567 2.7 2.7 0 0 0-2.01-.901 3.83 3.83 0 0 0-2.555 1.207 1.666 1.666 0 0 1-2.389 0 3.83 3.83 0 0 0-2.556-1.207m0-1.667a5.45 5.45 0 0 1 3.75 1.712 5.45 5.45 0 0 1 3.75-1.712c2.532 0 4.584 2.14 4.584 5.135 0 5.99-6.25 9.417-8.334 10.698-2.083-1.284-8.333-4.707-8.333-10.698 0-2.995 2.083-5.135 4.583-5.135">
    </path>
  </g>
  <defs>
    <clipPath id="AddFavorites_svg__a">
      <path fill="#fff" d="M6 6h20v20H6z"></path>
    </clipPath>
  </defs>
</svg>