<svg xmlns="http://www.w3.org/2000/svg" width="20" height="20" viewBox="0 0 20 20" fill="none">
    <path
        d="M16.3837 3.47264C14.1837 1.97264 11.467 2.67264 10.0003 4.38931C8.53367 2.67264 5.81701 1.96431 3.61701 3.47264C2.45034 4.27264 1.71701 5.62264 1.66701 7.04764C1.55034 10.281 4.41701 12.8726 8.79201 16.8476L8.87534 16.9226C9.50867 17.4976 10.4837 17.4976 11.117 16.9143L11.2087 16.831C15.5837 12.8643 18.442 10.2726 18.3337 7.03931C18.2837 5.62264 17.5503 4.27264 16.3837 3.47264ZM10.0837 15.606L10.0003 15.6893L9.91701 15.606C5.95034 12.0143 3.33367 9.63931 3.33367 7.23097C3.33367 5.56431 4.58367 4.31431 6.25034 4.31431C7.53367 4.31431 8.78367 5.13931 9.22534 6.28097H10.7837C11.217 5.13931 12.467 4.31431 13.7503 4.31431C15.417 4.31431 16.667 5.56431 16.667 7.23097C16.667 9.63931 14.0503 12.0143 10.0837 15.606Z"
        fill="#222222"></path>
</svg>