<svg class="livo-s" data-testid="platform-logo__livo" fill="white" height="16" viewBox="0 0 44 16" width="44">
    <path
        d="M1.39911 5.62977C1.3792 5.64445 1.36317 5.6633 1.35226 5.68482C1.34136 5.70634 1.33588 5.72995 1.33626 5.7538V14.2455C1.33626 14.2812 1.34851 14.3159 1.37118 14.3444C1.3842 14.3601 1.40045 14.3732 1.41895 14.3828C1.43745 14.3924 1.45782 14.3984 1.47883 14.4003C1.49984 14.4023 1.52105 14.4002 1.54119 14.3943C1.56133 14.3883 1.57997 14.3785 1.59601 14.3655L3.66842 12.7018C4.09233 12.3616 4.63024 12.1746 5.18642 12.174H12.3393C12.3606 12.1737 12.3816 12.1694 12.4011 12.1614C12.4206 12.1533 12.4382 12.1418 12.453 12.1273C12.4678 12.1129 12.4794 12.0958 12.4872 12.0771C12.495 12.0584 12.4989 12.0384 12.4985 12.0183V5.75777C12.4986 5.73382 12.4929 5.71017 12.4817 5.68866C12.4706 5.66714 12.4543 5.64835 12.4343 5.63373L7.02002 1.63331C6.99262 1.61276 6.95865 1.60158 6.92367 1.60158C6.88868 1.60158 6.85471 1.61276 6.82731 1.63331L1.39911 5.62977ZM0.219063 5.7538C0.218141 5.56219 0.263441 5.37289 0.351519 5.20029C0.439597 5.02769 0.568141 4.87631 0.727391 4.75765L6.1514 0.761188C6.37031 0.598322 6.64085 0.509766 6.91948 0.509766C7.19811 0.509766 7.46865 0.598322 7.68756 0.761188L13.113 4.75765C13.272 4.87637 13.4004 5.02779 13.4882 5.2004C13.576 5.37301 13.6211 5.56228 13.6199 5.7538V12.0144C13.6259 12.3396 13.4949 12.6537 13.2558 12.8878C13.0168 13.1218 12.6891 13.2566 12.3449 13.2625H5.192C4.89532 13.2631 4.6086 13.3637 4.38343 13.5462L2.30544 15.2126C2.15067 15.3373 1.96617 15.4247 1.76779 15.4672C1.53695 15.5102 1.2981 15.4931 1.07673 15.4179C0.855363 15.3426 0.659802 15.2119 0.510935 15.0397C0.322363 14.8145 0.22043 14.5353 0.221858 14.2481C0.203704 9.59062 0.209287 6.19712 0.219063 5.7538ZM19.3092 12.8298C18.8968 12.84 18.4864 12.7717 18.1025 12.6289C17.7186 12.4861 17.3691 12.2717 17.0748 11.9985C16.773 11.7137 16.5354 11.3741 16.3762 11.0002C16.2171 10.6263 16.1398 10.2258 16.149 9.82283V1.87081C16.1415 1.60099 16.2451 1.33895 16.438 1.13986C16.5269 1.04524 16.6366 0.97004 16.7593 0.919461C16.882 0.868882 17.015 0.844141 17.1488 0.846952C17.2909 0.846595 17.4316 0.872891 17.5627 0.924317C17.6939 0.975743 17.813 1.05127 17.913 1.14652C18.0131 1.24177 18.0921 1.35484 18.1455 1.47918C18.1989 1.60351 18.2256 1.73663 18.2241 1.87081V9.82283C18.2241 10.472 18.5984 10.8282 19.2617 10.8375H19.3092C19.4471 10.8352 19.584 10.8601 19.7112 10.9105C19.8384 10.9609 19.9531 11.0358 20.048 11.1304C20.1445 11.2246 20.22 11.3363 20.2699 11.4587C20.3198 11.5811 20.3431 11.7117 20.3385 11.8428C20.3457 11.973 20.3242 12.1032 20.2753 12.2251C20.2263 12.347 20.151 12.4579 20.0542 12.5507C19.9574 12.6436 19.8411 12.7164 19.7128 12.7644C19.5846 12.8124 19.4471 12.8347 19.3092 12.8298ZM23.1803 3.10445C23.0295 3.10546 22.88 3.07677 22.7415 3.0202C22.603 2.96364 22.4785 2.88043 22.376 2.77591C22.2666 2.67199 22.1804 2.54836 22.1226 2.41237C22.0648 2.27638 22.0365 2.1308 22.0394 1.98427C22.0388 1.68916 22.1594 1.40534 22.376 1.19263C22.4792 1.08959 22.6041 1.00798 22.7426 0.95301C22.8811 0.898039 23.0301 0.87091 23.1803 0.873342C23.3304 0.871785 23.4792 0.899316 23.6175 0.954234C23.7559 1.00915 23.8809 1.09029 23.9847 1.19263C24.2007 1.40564 24.3213 1.68927 24.3213 1.98427C24.3239 2.13076 24.2954 2.27625 24.2376 2.4122C24.1798 2.54815 24.0938 2.67181 23.9847 2.77591C23.8808 2.87922 23.7559 2.9616 23.6174 3.01806C23.4789 3.07452 23.3298 3.10392 23.1789 3.10445H23.1803ZM23.1803 12.9129C22.9 12.9091 22.6324 12.8017 22.4348 12.6138C22.2372 12.4259 22.1253 12.1724 22.1232 11.9075V5.02417C22.1259 4.75634 22.2403 4.50032 22.4416 4.31169C22.5385 4.21684 22.6546 4.14125 22.7829 4.08937C22.9112 4.03748 23.0492 4.01035 23.1887 4.00956C23.3261 4.00861 23.4621 4.03502 23.588 4.08708C23.7138 4.13914 23.8266 4.21567 23.9191 4.31169C24.1043 4.50788 24.2071 4.7613 24.2082 5.02417V11.9075C24.2111 12.0391 24.1862 12.1699 24.1349 12.2922C24.0836 12.4146 24.0069 12.526 23.9093 12.62C23.816 12.7143 23.7028 12.7891 23.577 12.8396C23.4512 12.89 23.3156 12.915 23.1789 12.9129H23.1803ZM29.938 12.839C29.7302 12.8411 29.5264 12.785 29.3524 12.6777C29.1784 12.5703 29.042 12.4166 28.9604 12.236L25.9873 5.44507C25.9266 5.315 25.8921 5.17541 25.8854 5.03342C25.887 4.76894 25.9936 4.51467 26.1842 4.32094C26.2782 4.22189 26.3934 4.14289 26.5223 4.0892C26.6511 4.03551 26.7905 4.00837 26.9313 4.00956C27.1333 4.0139 27.3297 4.07305 27.4971 4.17996C27.6645 4.28688 27.7958 4.43703 27.8754 4.61252L29.9143 9.43888L31.942 4.62176C32.0201 4.44274 32.1521 4.2893 32.3217 4.18048C32.4912 4.07166 32.6908 4.01223 32.8958 4.00956C33.0368 4.00826 33.1765 4.03535 33.3056 4.08904C33.4346 4.14273 33.5501 4.22179 33.6443 4.32094C33.8233 4.51632 33.9224 4.76577 33.9236 5.02417C33.9226 5.17196 33.8908 5.31812 33.83 5.4543L30.8751 12.236C30.6474 12.6622 30.3416 12.839 29.9366 12.839H29.938ZM39.2387 12.9313C38.6375 12.9304 38.0428 12.814 37.4906 12.5892C36.9385 12.3644 36.4404 12.036 36.0268 11.6238C35.1543 10.7853 34.667 9.65552 34.6707 8.47969C34.6664 7.29891 35.1493 6.16302 36.017 5.31313C36.4307 4.90095 36.9287 4.57249 37.4808 4.34772C38.033 4.12295 38.6277 4.00656 39.2289 4.0056C39.8317 4.00837 40.4277 4.12553 40.9817 4.35014C41.5356 4.57475 42.0361 4.90224 42.4534 5.31313C43.3111 6.16839 43.7893 7.30156 43.7899 8.47969C43.7966 9.6525 43.3168 10.7811 42.4534 11.6238C42.0366 12.0328 41.5372 12.3587 40.9848 12.5824C40.4325 12.8061 39.8383 12.9229 39.2373 12.9261L39.2387 12.9313ZM39.2387 10.9021C39.5689 10.902 39.8957 10.8387 40.1993 10.716C40.5029 10.5933 40.7771 10.4138 41.0053 10.1883C41.4687 9.72635 41.7261 9.11364 41.7243 8.47718C41.7225 7.84072 41.4615 7.22933 40.9955 6.76974C40.7683 6.54731 40.4961 6.37042 40.195 6.24959C39.8938 6.12877 39.57 6.0665 39.2429 6.0665C38.9157 6.0665 38.5919 6.12877 38.2908 6.24959C37.9897 6.37042 37.7174 6.54731 37.4903 6.76974C37.0227 7.22912 36.7615 7.8417 36.7615 8.47903C36.7615 9.11636 37.0227 9.72893 37.4903 10.1883C37.7152 10.4128 37.986 10.5918 38.2863 10.7145C38.5866 10.8372 38.9101 10.901 39.2373 10.9021H39.2387Z"
        fill="#FFF"></path>
</svg>