<svg xmlns="http://www.w3.org/2000/svg" data-testid="platform-logo__mymarket" fill="none" height="16"
    viewBox="0 0 64 16" width="64">
    <path
        d="M5.98495 14.6385H51.2662V1.63892H5.45028L2.79074 3.42247L1.41055 6.52934V8.82068L3.1693 12.5081L5.98495 14.6385Z"
        fill="white"></path>
    <path
        d="M45.3613 9.93095C45.3745 9.95588 45.3826 9.98321 45.3852 10.0113C45.3878 10.0395 45.3848 10.0679 45.3765 10.0948C45.3681 10.1218 45.3545 10.1468 45.3365 10.1684C45.3185 10.1899 45.2964 10.2077 45.2715 10.2205C44.9549 10.3807 44.6059 10.4645 44.2519 10.4653C43.2669 10.4569 42.7833 9.89458 42.7833 8.83424V6.74854H42.3688C42.3404 6.74892 42.3122 6.74353 42.2859 6.73269C42.2596 6.72186 42.2357 6.7058 42.2156 6.68546C42.1955 6.66512 42.1797 6.64092 42.169 6.61427C42.1583 6.58762 42.1529 6.55908 42.1533 6.53032V6.02253C42.1529 5.99383 42.1583 5.96535 42.169 5.93878C42.1797 5.91221 42.1956 5.88809 42.2157 5.86787C42.2358 5.84764 42.2597 5.83171 42.286 5.82103C42.3123 5.81035 42.3405 5.80514 42.3688 5.80571H42.7833V5.02514C42.7861 4.97133 42.8073 4.9202 42.8434 4.8806C42.8795 4.841 42.9281 4.81543 42.9809 4.80832L43.8761 4.709C43.9052 4.70498 43.9348 4.70735 43.9629 4.71594C43.991 4.72453 44.0169 4.73914 44.0389 4.75878C44.061 4.77842 44.0785 4.80263 44.0905 4.82976C44.1025 4.8569 44.1085 4.88632 44.1082 4.91603V5.80571H44.8971C44.9273 5.80692 44.9569 5.81476 44.9838 5.82869C45.0108 5.84262 45.0344 5.86231 45.053 5.88639C45.0717 5.91047 45.0849 5.93837 45.0919 5.96816C45.0989 5.99795 45.0993 6.02891 45.0933 6.0589L45.0215 6.56669C45.0122 6.61746 44.9857 6.66336 44.9466 6.69654C44.9076 6.72972 44.8583 6.74811 44.8073 6.74854H44.1082V8.81606C44.1082 9.24971 44.2464 9.40498 44.5379 9.40498C44.6448 9.40487 44.7505 9.38299 44.8488 9.34063C44.8979 9.32104 44.9524 9.32049 45.0018 9.33907C45.0513 9.35766 45.0922 9.39408 45.1168 9.44135L45.3613 9.93095Z"
        fill="#414042"></path>
    <path
        d="M12.5891 7.01057V10.0881C12.5902 10.1165 12.5857 10.1449 12.5759 10.1716C12.566 10.1982 12.551 10.2227 12.5317 10.2434C12.5124 10.2641 12.4892 10.2807 12.4635 10.2922C12.4377 10.3037 12.41 10.3099 12.3819 10.3105H11.4783C11.45 10.3109 11.4219 10.3055 11.3956 10.2946C11.3694 10.2838 11.3456 10.2677 11.3256 10.2473C11.3056 10.227 11.2899 10.2028 11.2793 10.1761C11.2688 10.1495 11.2636 10.121 11.2642 10.0923V7.24698C11.2642 6.76577 11.1025 6.63847 10.887 6.63847C10.619 6.63847 10.4048 6.8553 10.2252 7.22739V10.0923C10.2235 10.1493 10.2005 10.2036 10.1607 10.2442C10.1209 10.2847 10.0675 10.3084 10.0111 10.3105H9.09649C9.04213 10.3072 8.99118 10.2826 8.95452 10.2418C8.91787 10.201 8.89841 10.1474 8.90031 10.0923V7.24698C8.90031 6.76577 8.7207 6.63847 8.50656 6.63847C8.23024 6.63847 8.02301 6.8553 7.82544 7.22739V10.0923C7.82732 10.1476 7.80768 10.2015 7.77073 10.2423C7.73378 10.2831 7.68248 10.3076 7.62787 10.3105H6.71741C6.66104 10.3084 6.60757 10.2847 6.56781 10.2442C6.52805 10.2036 6.50498 10.1493 6.50327 10.0923V6.01318C6.50498 5.95609 6.52805 5.9018 6.56781 5.86128C6.60757 5.82077 6.66104 5.79706 6.71741 5.79496H7.48833C7.53771 5.79445 7.58543 5.81295 7.62185 5.84671C7.65827 5.88047 7.68067 5.92697 7.68452 5.97681L7.75636 6.33912C7.89911 6.12688 8.09153 5.95372 8.31644 5.8351C8.54136 5.71647 8.79179 5.65606 9.04537 5.65927C9.27216 5.64753 9.49679 5.70891 9.68695 5.83459C9.87711 5.96027 10.023 6.14377 10.1037 6.3587C10.4615 5.88728 10.8718 5.65927 11.4272 5.65927C12.1263 5.65927 12.5919 6.15866 12.5919 7.01057"
        fill="#414042"></path>
    <path
        d="M24.1374 7.0105V10.088C24.138 10.1167 24.1328 10.1452 24.1223 10.1718C24.1117 10.1985 24.096 10.2227 24.076 10.2431C24.056 10.2634 24.0322 10.2795 24.006 10.2904C23.9797 10.3012 23.9516 10.3066 23.9233 10.3062H23.028C22.9996 10.3066 22.9714 10.3012 22.9451 10.2904C22.9188 10.2795 22.8948 10.2635 22.8748 10.2431C22.8547 10.2228 22.8388 10.1986 22.8281 10.172C22.8174 10.1453 22.8121 10.1168 22.8125 10.088V7.24691C22.8125 6.7657 22.6508 6.6384 22.4353 6.6384C22.1673 6.6384 21.9531 6.85523 21.7735 7.22733V10.0922C21.7718 10.1493 21.7487 10.2036 21.709 10.2441C21.6692 10.2846 21.6157 10.3083 21.5594 10.3104H20.6461C20.5915 10.3075 20.5402 10.283 20.5033 10.2422C20.4663 10.2014 20.4467 10.1475 20.4486 10.0922V7.24691C20.4486 6.7657 20.2704 6.6384 20.0548 6.6384C19.7854 6.6384 19.5713 6.85523 19.3737 7.22733V10.0922C19.3756 10.1475 19.3559 10.2014 19.319 10.2422C19.282 10.283 19.2307 10.3075 19.1761 10.3104H18.2629C18.2062 10.3087 18.1522 10.2852 18.1119 10.2447C18.0716 10.2041 18.0481 10.1496 18.046 10.0922V6.01311C18.048 5.95613 18.0712 5.90202 18.1109 5.86158C18.1506 5.82113 18.2039 5.79732 18.2602 5.79489H19.0311C19.0805 5.79438 19.1282 5.81288 19.1646 5.84664C19.201 5.8804 19.2234 5.9269 19.2273 5.97674L19.2991 6.33905C19.4421 6.1267 19.6347 5.95349 19.8599 5.83486C20.085 5.71624 20.3357 5.65589 20.5895 5.6592C20.8161 5.64777 21.0404 5.70929 21.2303 5.83495C21.4201 5.96061 21.5658 6.14394 21.6464 6.35863C22.0042 5.88722 22.4146 5.6592 22.9713 5.6592C23.669 5.6592 24.1346 6.15859 24.1346 7.0105"
        fill="#414042"></path>
    <path
        d="M16.0636 10.3199C15.7237 11.3984 15.0246 12.0517 13.7536 12.179C13.6992 12.184 13.6449 12.168 13.6017 12.1343C13.5584 12.1006 13.5293 12.0516 13.5201 11.9971L13.4482 11.4628C13.4393 11.4098 13.4513 11.3554 13.4815 11.3112C13.5117 11.267 13.5578 11.2366 13.6099 11.2263C14.2192 11.1172 14.5231 10.9186 14.7386 10.5367C14.6005 10.5017 14.4153 10.2653 14.3628 10.0919L13.1194 6.07574C13.1083 6.04391 13.1049 6.00984 13.1096 5.97642C13.1143 5.94299 13.1268 5.9112 13.1462 5.88374C13.1656 5.85628 13.1913 5.83396 13.221 5.81868C13.2507 5.8034 13.2837 5.79561 13.317 5.79596H14.2661C14.3155 5.79712 14.3631 5.81455 14.4017 5.84561C14.4404 5.87666 14.468 5.91965 14.4803 5.96802L15.2401 9.45259L16.0815 5.95543C16.0921 5.90997 16.1172 5.8693 16.1529 5.83972C16.1886 5.81013 16.233 5.79328 16.2791 5.79177H17.1923C17.2256 5.79131 17.2586 5.79906 17.2883 5.81435C17.318 5.82963 17.3436 5.85199 17.3629 5.87951C17.3822 5.90703 17.3946 5.93889 17.3991 5.97234C17.4036 6.00578 17.3999 6.03983 17.3885 6.07154L16.0636 10.3199Z"
        fill="#414042"></path>
    <path
        d="M41.8093 7.97166C41.8093 6.50845 41.0287 5.65934 39.7521 5.65934C38.4009 5.65934 37.6701 6.72947 37.6701 8.08217C37.6701 9.49362 38.4258 10.4602 39.9124 10.4602C40.4261 10.4639 40.9301 10.3183 41.3644 10.0406L41.4087 10.0126C41.4286 10.001 41.448 9.98841 41.4667 9.97483C41.5102 9.94277 41.54 9.89522 41.5503 9.84175C41.5605 9.78829 41.5504 9.73287 41.5219 9.68667L41.2373 9.25162C41.2074 9.20817 41.1628 9.17724 41.1119 9.16463C41.0611 9.15202 41.0074 9.15857 40.961 9.18308C40.9071 9.21665 40.8519 9.24742 40.7952 9.2796C40.5619 9.41449 40.2985 9.48672 40.0298 9.48943C39.4841 9.48943 39.1056 9.26841 39.013 8.45986H41.7762C41.7958 8.29785 41.8069 8.13488 41.8093 7.97166ZM40.5079 7.64852H39.0254C39.0848 6.83998 39.3446 6.55181 39.7908 6.55181C40.32 6.55181 40.5037 6.97147 40.512 7.58837L40.5079 7.64852Z"
        fill="#414042"></path>
    <path
        d="M28.9856 9.7232L28.806 10.2674C28.7889 10.314 28.7565 10.3532 28.7143 10.3787C28.6721 10.4041 28.6225 10.4142 28.5739 10.4072C28.1442 10.3443 27.8569 10.1722 27.6786 9.77216C27.3567 10.2702 26.8718 10.452 26.3344 10.452C25.4571 10.452 24.8837 9.86308 24.8837 9.03775C24.8837 8.05855 25.6187 7.52418 26.9796 7.52418H27.4272V7.32974C27.4272 6.79538 27.231 6.63031 26.6756 6.63031C26.3463 6.6439 26.0207 6.70514 25.7085 6.81216C25.6535 6.82822 25.5946 6.82275 25.5434 6.79684C25.4922 6.77092 25.4525 6.72646 25.4322 6.67228L25.2705 6.18267C25.2533 6.12974 25.2567 6.07213 25.2801 6.02167C25.3035 5.97121 25.345 5.93172 25.3963 5.9113C25.8787 5.75369 26.3815 5.66977 26.8884 5.6623C28.1788 5.6623 28.7342 6.20506 28.7342 7.257V9.00838C28.7342 9.26997 28.788 9.40565 28.8944 9.48819C28.9323 9.51239 28.9616 9.54832 28.9777 9.59065C28.9939 9.63298 28.9962 9.67945 28.9842 9.7232H28.9856ZM27.4272 9.06153V8.26418H27.1053C26.496 8.26418 26.21 8.48101 26.21 8.92584C26.21 9.28815 26.4062 9.49658 26.7295 9.49658C26.8739 9.4951 27.0151 9.45381 27.138 9.37716C27.2609 9.30051 27.3609 9.19139 27.4272 9.06153Z"
        fill="#414042"></path>
    <path
        d="M32.5196 5.6828H32.4781C32.4153 5.67579 32.3521 5.67252 32.2889 5.673C31.7763 5.673 31.3411 6.0465 31.1394 6.67599L31.0634 6.11644V6.02272C31.0582 5.96322 31.0313 5.90784 30.9878 5.86746C30.9443 5.82708 30.8875 5.80462 30.8285 5.8045H30.0977C30.0692 5.80393 30.0408 5.80918 30.0143 5.81993C29.9879 5.83068 29.9638 5.84671 29.9436 5.86707C29.9233 5.88743 29.9073 5.9117 29.8965 5.93844C29.8858 5.96518 29.8804 5.99384 29.8808 6.02272V10.092C29.8804 10.1207 29.8857 10.1492 29.8964 10.1758C29.9072 10.2023 29.923 10.2264 29.9431 10.2467C29.9633 10.2669 29.9872 10.2828 30.0135 10.2935C30.0398 10.3042 30.068 10.3094 30.0963 10.3088H30.9929C31.0213 10.3094 31.0494 10.3042 31.0758 10.2935C31.1021 10.2828 31.126 10.2669 31.1461 10.2467C31.1662 10.2264 31.1821 10.2023 31.1928 10.1758C31.2035 10.1492 31.2088 10.1207 31.2085 10.092V8.04128C31.3591 7.36983 31.587 6.96975 32.1314 6.96975C32.1901 6.97002 32.2488 6.97469 32.3068 6.98374H32.3538C32.4044 6.98064 32.4524 6.96028 32.49 6.92598C32.5277 6.89168 32.5527 6.84547 32.561 6.79489L32.7061 5.9192C32.711 5.89101 32.71 5.86208 32.703 5.83433C32.696 5.80658 32.6833 5.78066 32.6657 5.75829C32.648 5.73592 32.6259 5.71761 32.6007 5.70459C32.5755 5.69158 32.5478 5.68415 32.5196 5.6828Z"
        fill="#414042"></path>
    <path
        d="M34.6249 4.11007C34.6252 4.08031 34.6191 4.05084 34.6072 4.02365C34.5952 3.99646 34.5777 3.97218 34.5557 3.95243C34.5337 3.93268 34.5078 3.91793 34.4797 3.90917C34.4516 3.90041 34.422 3.89784 34.3928 3.90164L33.4975 4.00096C33.4447 4.00837 33.396 4.03423 33.36 4.07406C33.3239 4.11389 33.3027 4.16521 33.3 4.21918V10.1042C33.2994 10.1334 33.3047 10.1624 33.3156 10.1894C33.3265 10.2164 33.3427 10.2409 33.3633 10.2613C33.3839 10.2818 33.4083 10.2977 33.4352 10.3082C33.4621 10.3187 33.4909 10.3236 33.5197 10.3224H34.4149C34.4429 10.3222 34.4706 10.3164 34.4964 10.3053C34.5221 10.2942 34.5454 10.2781 34.565 10.2578C34.5845 10.2375 34.5999 10.2134 34.6102 10.1871C34.6205 10.1607 34.6255 10.1325 34.6249 10.1042V4.11007Z"
        fill="#414042"></path>
    <path
        d="M37.359 10.1033L37.3383 10.0641L36.0313 7.78538L37.2499 6.01302L37.2678 5.98225C37.3314 5.89132 37.301 5.81439 37.1836 5.81439H36.2164C36.1552 5.81712 36.0952 5.8336 36.041 5.86263C35.9868 5.89166 35.9396 5.93251 35.9028 5.98225L34.6787 7.86932L35.8835 10.1075C35.919 10.1681 35.9682 10.2194 36.027 10.2571C36.0858 10.2948 36.1527 10.3178 36.222 10.3243H37.2692C37.388 10.3201 37.4253 10.2208 37.359 10.1033Z"
        fill="#414042"></path>
    <path
        d="M56.3006 0.5H7.69941C5.78988 0.500371 3.95868 1.26868 2.60857 2.63594C1.25846 4.0032 0.5 5.85745 0.5 7.79087V8.21053C0.500366 10.1437 1.25899 11.9976 2.60906 13.3646C3.95913 14.7315 5.79012 15.4996 7.69941 15.5H56.3006C57.2462 15.4998 58.1825 15.311 59.0561 14.9445C59.9297 14.5779 60.7234 14.0407 61.3919 13.3636C62.0604 12.6864 62.5907 11.8826 62.9524 10.9979C63.3141 10.1133 63.5002 9.16518 63.5 8.20773V7.78807C63.4993 5.85514 62.7405 4.00161 61.3904 2.63495C60.0404 1.26829 58.2096 0.500371 56.3006 0.5ZM49.3153 8.16157C49.3131 9.66069 48.7233 11.0976 47.6755 12.1567C46.6276 13.2159 45.2074 13.8105 43.7268 13.8102H8.00474C6.52414 13.8105 5.10394 13.2159 4.05609 12.1567C3.00825 11.0976 2.41845 9.66069 2.41625 8.16157V7.83563C2.41845 6.33652 3.00825 4.89958 4.05609 3.84046C5.10394 2.78134 6.52414 2.18666 8.00474 2.18703H43.7268C45.2074 2.18666 46.6276 2.78134 47.6755 3.84046C48.7233 4.89958 49.3131 6.33652 49.3153 7.83563V8.16157Z"
        fill="#FFD102"></path>
    <path
        d="M52.1089 9.27623C52.1057 9.46257 52.0312 9.64038 51.9011 9.77217C51.7709 9.90395 51.5953 9.97942 51.4112 9.98265C51.2262 9.98265 51.0487 9.90823 50.9179 9.77575C50.787 9.64326 50.7135 9.46358 50.7135 9.27623C50.7135 9.08887 50.787 8.90919 50.9179 8.77671C51.0487 8.64423 51.2262 8.5698 51.4112 8.5698C51.5952 8.57338 51.7706 8.64896 51.9007 8.78067C52.0308 8.91238 52.1054 9.08999 52.1089 9.27623Z"
        fill="white"></path>
    <path
        d="M56.1929 6.03128C55.8753 6.10071 55.5506 6.13124 55.2258 6.1222C55.7453 6.34742 55.9953 6.65657 55.9953 7.19233C55.9953 7.98968 55.3501 8.57021 54.2932 8.57021C54.1368 8.57441 53.9805 8.55938 53.8276 8.52545C53.7861 8.54873 53.7515 8.58275 53.7272 8.62404C53.7029 8.66533 53.6899 8.71241 53.6895 8.76046C53.6895 8.88775 53.7434 9.00526 54.1371 9.00526H54.763C55.7135 9.00526 56.3228 9.51304 56.3228 10.2013C56.3228 11.0546 55.5698 11.5708 54.173 11.5708C52.7763 11.5708 52.3286 11.1637 52.2388 10.4825C52.2359 10.4529 52.2392 10.423 52.2483 10.3948C52.2575 10.3665 52.2723 10.3405 52.292 10.3184C52.3116 10.2963 52.3356 10.2786 52.3623 10.2663C52.3891 10.2541 52.4181 10.2477 52.4474 10.2474H53.1272C53.1738 10.2472 53.219 10.2634 53.255 10.2933C53.2911 10.3232 53.3157 10.3648 53.3247 10.4111C53.3786 10.6559 53.5928 10.7552 54.202 10.7552C54.9191 10.7552 55.0793 10.5552 55.0793 10.2922C55.0793 10.0292 54.9191 9.88514 54.506 9.88514H53.9147C53.0194 9.88514 52.6616 9.51304 52.6616 9.06821C52.6716 8.9067 52.7211 8.75023 52.8054 8.61279C52.8898 8.47536 53.0065 8.36124 53.1451 8.28065C52.6257 8.00087 52.4115 7.63577 52.4115 7.10141C52.4115 6.16697 53.1451 5.58784 54.2076 5.58784C54.7993 5.61812 55.3871 5.47587 55.9014 5.17797C55.9295 5.16461 55.9601 5.15731 55.9911 5.15655C56.0222 5.15579 56.053 5.16158 56.0817 5.17355C56.1105 5.18553 56.1364 5.20342 56.1579 5.2261C56.1794 5.24877 56.1961 5.27573 56.2067 5.30527L56.3449 5.7585C56.3536 5.78708 56.3562 5.81719 56.3527 5.84688C56.3492 5.87657 56.3396 5.90519 56.3245 5.93089C56.3094 5.95659 56.2892 5.9788 56.2651 5.99609C56.241 6.01338 56.2136 6.02537 56.1846 6.03128H56.1929ZM53.6052 7.08322C53.6052 7.53645 53.8553 7.78265 54.2324 7.78265C54.6096 7.78265 54.8403 7.53785 54.8403 7.06643C54.8403 6.59502 54.6442 6.39498 54.2324 6.39498C53.8553 6.39498 53.6052 6.65797 53.6052 7.08462"
        fill="white"></path>
    <path
        d="M57.7514 8.14388C57.8232 8.88807 58.1811 9.08671 58.6826 9.08671C58.9711 9.08139 59.2522 8.99362 59.4936 8.83352C59.5388 8.80483 59.5927 8.79356 59.6455 8.80178C59.6982 8.81 59.7463 8.83715 59.7809 8.87828L60.031 9.23219C60.0488 9.2556 60.0616 9.28251 60.0685 9.31119C60.0755 9.33987 60.0764 9.36971 60.0714 9.39879C60.0663 9.42788 60.0553 9.45557 60.0391 9.48012C60.0228 9.50466 60.0017 9.52551 59.9771 9.54134C59.5603 9.82958 59.0672 9.98366 58.5624 9.98338C57.2015 9.98338 56.5204 9.09511 56.5204 7.80815C56.5204 6.56596 57.1836 5.58816 58.4201 5.58816C59.5834 5.58816 60.299 6.36593 60.299 7.70044C60.3024 7.84849 60.2964 7.9966 60.2811 8.14388H57.7514ZM59.1122 7.35492C59.0943 6.79538 58.9326 6.4023 58.4491 6.4023C58.0346 6.4023 57.8053 6.66668 57.7514 7.40948H59.1122V7.35492Z"
        fill="white"></path>
</svg>