<svg xmlns="http://www.w3.org/2000/svg" width="20" height="20" fill="none">
    <mask id="ListViewIcon_svg__a" fill="#fff">
        <path fill-rule="evenodd"
            d="M3.5 7.885V3.5h4.385v4.385zM2 3a1 1 0 0 1 1-1h5.385a1 1 0 0 1 1 1v5.385a1 1 0 0 1-1 1H3a1 1 0 0 1-1-1zm1.5 13.5v-4.385h4.385V16.5zM2 11.615a1 1 0 0 1 1-1h5.385a1 1 0 0 1 1 1V17a1 1 0 0 1-1 1H3a1 1 0 0 1-1-1zm8.617-7.461c0-.51.413-.923.923-.923h5.539a.923.923 0 1 1 0 1.846H11.54a.923.923 0 0 1-.923-.923m.923 2.77a.923.923 0 0 0 0 1.845h5.539a.923.923 0 0 0 0-1.846zm-.923 5.845c0-.51.413-.923.923-.923h5.539a.923.923 0 1 1 0 1.846H11.54a.923.923 0 0 1-.923-.923m.923 2.77a.923.923 0 1 0 0 1.846h5.539a.923.923 0 0 0 0-1.847z"
            clip-rule="evenodd"></path>
    </mask>
    <path fill="#222" fill-rule="evenodd"
        d="M3.5 7.885V3.5h4.385v4.385zM2 3a1 1 0 0 1 1-1h5.385a1 1 0 0 1 1 1v5.385a1 1 0 0 1-1 1H3a1 1 0 0 1-1-1zm1.5 13.5v-4.385h4.385V16.5zM2 11.615a1 1 0 0 1 1-1h5.385a1 1 0 0 1 1 1V17a1 1 0 0 1-1 1H3a1 1 0 0 1-1-1zm8.617-7.461c0-.51.413-.923.923-.923h5.539a.923.923 0 1 1 0 1.846H11.54a.923.923 0 0 1-.923-.923m.923 2.77a.923.923 0 0 0 0 1.845h5.539a.923.923 0 0 0 0-1.846zm-.923 5.845c0-.51.413-.923.923-.923h5.539a.923.923 0 1 1 0 1.846H11.54a.923.923 0 0 1-.923-.923m.923 2.77a.923.923 0 1 0 0 1.846h5.539a.923.923 0 0 0 0-1.847z"
        clip-rule="evenodd"></path>
    <path fill="#222"
        d="M3.5 3.5v-2h-2v2zm0 4.385h-2v2h2zM7.885 3.5h2v-2h-2zm0 4.385v2h2v-2zM3.5 12.115v-2h-2v2zm0 4.385h-2v2h2zm4.385-4.385h2v-2h-2zm0 4.385v2h2v-2zM1.5 3.5v4.385h4V3.5zm6.385-2H3.5v4h4.385zm2 6.385V3.5h-4v4.385zm-6.385 2h4.385v-4H3.5zM3 0a3 3 0 0 0-3 3h4a1 1 0 0 1-1 1zm5.385 0H3v4h5.385zm3 3a3 3 0 0 0-3-3v4a1 1 0 0 1-1-1zm0 5.385V3h-4v5.385zm-3 3a3 3 0 0 0 3-3h-4a1 1 0 0 1 1-1zm-5.385 0h5.385v-4H3zm-3-3a3 3 0 0 0 3 3v-4a1 1 0 0 1 1 1zM0 3v5.385h4V3zm1.5 9.115V16.5h4v-4.385zm6.385-2H3.5v4h4.385zm2 6.385v-4.385h-4V16.5zm-6.385 2h4.385v-4H3.5zM3 8.615a3 3 0 0 0-3 3h4a1 1 0 0 1-1 1zm5.385 0H3v4h5.385zm3 3a3 3 0 0 0-3-3v4a1 1 0 0 1-1-1zm0 5.385v-5.385h-4V17zm-3 3a3 3 0 0 0 3-3h-4a1 1 0 0 1 1-1zM3 20h5.385v-4H3zm-3-3a3 3 0 0 0 3 3v-4a1 1 0 0 1 1 1zm0-5.385V17h4v-5.385zM11.54 1.231a2.923 2.923 0 0 0-2.923 2.923h4c0 .595-.482 1.077-1.077 1.077zm5.539 0H11.54v4h5.539zm2.923 2.923a2.923 2.923 0 0 0-2.923-2.923v4a1.077 1.077 0 0 1-1.077-1.077zm-2.923 2.923a2.923 2.923 0 0 0 2.923-2.923h-4c0-.595.482-1.077 1.077-1.077zm-5.539 0h5.539v-4H11.54zM8.617 4.154a2.923 2.923 0 0 0 2.923 2.923v-4c.595 0 1.077.482 1.077 1.077zm4 3.692c0 .595-.482 1.077-1.077 1.077v-4a2.923 2.923 0 0 0-2.923 2.923zM11.54 6.77c.595 0 1.077.482 1.077 1.077h-4a2.923 2.923 0 0 0 2.923 2.923zm5.539 0H11.54v4h5.539zm-1.077 1.077c0-.595.482-1.077 1.077-1.077v4a2.923 2.923 0 0 0 2.923-2.923zm1.077 1.077a1.077 1.077 0 0 1-1.077-1.077h4a2.923 2.923 0 0 0-2.923-2.923zm-5.539 0h5.539v-4H11.54zm0 .923a2.923 2.923 0 0 0-2.923 2.923h4c0 .595-.482 1.077-1.077 1.077zm5.539 0H11.54v4h5.539zm2.923 2.923a2.923 2.923 0 0 0-2.923-2.923v4a1.077 1.077 0 0 1-1.077-1.077zm-2.923 2.923a2.923 2.923 0 0 0 2.923-2.923h-4c0-.594.482-1.077 1.077-1.077zm-5.539 0h5.539v-4H11.54zM8.617 12.77a2.923 2.923 0 0 0 2.923 2.923v-4c.595 0 1.077.482 1.077 1.077zm4 3.693c0 .594-.482 1.076-1.077 1.076v-4a2.923 2.923 0 0 0-2.923 2.924zm-1.077-1.077c.595 0 1.077.482 1.077 1.077h-4a2.923 2.923 0 0 0 2.923 2.923zm5.539 0H11.54v4h5.539zm-1.077 1.077c0-.595.482-1.077 1.077-1.077v4a2.923 2.923 0 0 0 2.923-2.924zm1.077 1.076a1.077 1.077 0 0 1-1.077-1.076h4a2.923 2.923 0 0 0-2.923-2.923zm-5.539 0h5.539v-4H11.54z"
        mask="url(#ListViewIcon_svg__a)"></path>
</svg>