<svg xmlns="http://www.w3.org/2000/svg" width="20" height="20" fill="none">
    <path fill="#222" fill-rule="evenodd"
        d="M3.5 7.885V3.5h4.384v4.385zM2 3a1 1 0 0 1 1-1h5.384a1 1 0 0 1 1 1v5.385a1 1 0 0 1-1 1H3a1 1 0 0 1-1-1zm10.117 4.885V3.5h4.384v4.385zM10.617 3a1 1 0 0 1 1-1h5.384a1 1 0 0 1 1 1v5.385a1 1 0 0 1-1 1h-5.384a1 1 0 0 1-1-1zM3.5 12.115V16.5h4.384v-4.385zm-.5-1.5a1 1 0 0 0-1 1V17a1 1 0 0 0 1 1h5.384a1 1 0 0 0 1-1v-5.385a1 1 0 0 0-1-1zm9.117 5.885v-4.385h4.384V16.5zm-1.5-4.885a1 1 0 0 1 1-1h5.384a1 1 0 0 1 1 1V17a1 1 0 0 1-1 1h-5.384a1 1 0 0 1-1-1z"
        clip-rule="evenodd"></path>
</svg>