<svg width="32" height="32" viewBox="0 0 32 32" fill="none" xmlns="http://www.w3.org/2000/svg">
  <rect width="32" height="32" rx="5" fill="#F8F9FD"></rect>
  <path
    d="M10.6667 16.6667C11.0333 16.6667 11.3333 16.3667 11.3333 16C11.3333 15.6334 11.0333 15.3334 10.6667 15.3334C10.3 15.3334 10 15.6334 10 16C10 16.3667 10.3 16.6667 10.6667 16.6667ZM10.6667 19.3334C11.0333 19.3334 11.3333 19.0334 11.3333 18.6667C11.3333 18.3 11.0333 18 10.6667 18C10.3 18 10 18.3 10 18.6667C10 19.0334 10.3 19.3334 10.6667 19.3334ZM10.6667 14C11.0333 14 11.3333 13.7 11.3333 13.3334C11.3333 12.9667 11.0333 12.6667 10.6667 12.6667C10.3 12.6667 10 12.9667 10 13.3334C10 13.7 10.3 14 10.6667 14ZM13.3333 16.6667H21.3333C21.7 16.6667 22 16.3667 22 16C22 15.6334 21.7 15.3334 21.3333 15.3334H13.3333C12.9667 15.3334 12.6667 15.6334 12.6667 16C12.6667 16.3667 12.9667 16.6667 13.3333 16.6667ZM13.3333 19.3334H21.3333C21.7 19.3334 22 19.0334 22 18.6667C22 18.3 21.7 18 21.3333 18H13.3333C12.9667 18 12.6667 18.3 12.6667 18.6667C12.6667 19.0334 12.9667 19.3334 13.3333 19.3334ZM12.6667 13.3334C12.6667 13.7 12.9667 14 13.3333 14H21.3333C21.7 14 22 13.7 22 13.3334C22 12.9667 21.7 12.6667 21.3333 12.6667H13.3333C12.9667 12.6667 12.6667 12.9667 12.6667 13.3334ZM10.6667 16.6667C11.0333 16.6667 11.3333 16.3667 11.3333 16C11.3333 15.6334 11.0333 15.3334 10.6667 15.3334C10.3 15.3334 10 15.6334 10 16C10 16.3667 10.3 16.6667 10.6667 16.6667ZM10.6667 19.3334C11.0333 19.3334 11.3333 19.0334 11.3333 18.6667C11.3333 18.3 11.0333 18 10.6667 18C10.3 18 10 18.3 10 18.6667C10 19.0334 10.3 19.3334 10.6667 19.3334ZM10.6667 14C11.0333 14 11.3333 13.7 11.3333 13.3334C11.3333 12.9667 11.0333 12.6667 10.6667 12.6667C10.3 12.6667 10 12.9667 10 13.3334C10 13.7 10.3 14 10.6667 14ZM13.3333 16.6667H21.3333C21.7 16.6667 22 16.3667 22 16C22 15.6334 21.7 15.3334 21.3333 15.3334H13.3333C12.9667 15.3334 12.6667 15.6334 12.6667 16C12.6667 16.3667 12.9667 16.6667 13.3333 16.6667ZM13.3333 19.3334H21.3333C21.7 19.3334 22 19.0334 22 18.6667C22 18.3 21.7 18 21.3333 18H13.3333C12.9667 18 12.6667 18.3 12.6667 18.6667C12.6667 19.0334 12.9667 19.3334 13.3333 19.3334ZM12.6667 13.3334C12.6667 13.7 12.9667 14 13.3333 14H21.3333C21.7 14 22 13.7 22 13.3334C22 12.9667 21.7 12.6667 21.3333 12.6667H13.3333C12.9667 12.6667 12.6667 12.9667 12.6667 13.3334Z"
    fill="#8996AE"></path>
</svg>