<svg class="h-4" fill="none" height="16" viewBox="0 0 51 16" width="51" xmlns="http://www.w3.org/2000/svg">
    <path
        d="M43.026 0.500001H7.97403C5.99462 0.498782 4.0949 1.26629 2.68893 2.63525C1.99586 3.31016 1.44562 4.11318 1.06993 4.99803C0.694248 5.88286 0.500548 6.83201 0.5 7.79073V8.20961C0.500598 9.16829 0.694326 10.1174 1.07001 11.0021C1.44569 11.8869 1.99591 12.6899 2.68893 13.3647C4.0949 14.7337 5.99462 15.5012 7.97403 15.5H43.026C45.0056 15.5012 46.9052 14.7337 48.3111 13.3647C49.0043 12.6898 49.5543 11.8867 49.9299 11.0019C50.3055 10.1171 50.4996 9.16798 50.5 8.20927V7.79073C50.4996 6.83206 50.3059 5.88299 49.9299 4.99824C49.5543 4.11345 49.0043 3.31049 48.3111 2.63563C46.9052 1.26662 45.0056 0.499004 43.026 0.500001Z"
        fill="#FD4100"></path>
    <path
        d="M36.187 8.16311C36.1854 8.90544 36.0344 9.64018 35.7427 10.325C35.451 11.0098 35.0244 11.6312 34.4874 12.1535C33.3982 13.2129 31.9273 13.807 30.3946 13.8068H8.28317C6.74991 13.8077 5.27829 13.2139 4.18815 12.1546C3.65044 11.6324 3.22312 11.011 2.93078 10.3259C2.63844 9.64095 2.48684 8.90591 2.48472 8.16311V7.83645C2.48674 7.09382 2.63818 6.35887 2.93032 5.67392C3.22247 4.98898 3.64955 4.36755 4.187 3.84534C5.27741 2.7857 6.74952 2.19191 8.28317 2.1931H30.3939C31.9265 2.19279 33.3974 2.78683 34.4866 3.8461C35.0238 4.36828 35.4505 4.98967 35.7424 5.67448C36.0342 6.35929 36.1853 7.09404 36.187 7.83645V8.16311Z"
        fill="white"></path>
    <path
        d="M39.3234 9.11597C39.3199 9.2853 39.2496 9.44666 39.1272 9.56597C39.0042 9.68623 38.8388 9.75527 38.6654 9.75874C38.5756 9.76402 38.4857 9.75129 38.401 9.72137C38.3164 9.69146 38.2388 9.645 38.173 9.58474C38.1076 9.52474 38.0554 9.45219 38.0198 9.37153C37.9841 9.29087 37.9657 9.20391 37.9657 9.11597C37.9657 9.02807 37.9841 8.94107 38.0198 8.86046C38.0554 8.7798 38.1076 8.70724 38.173 8.64724C38.2388 8.58699 38.3164 8.54049 38.401 8.51057C38.4856 8.48066 38.5756 8.46793 38.6654 8.47324C38.8386 8.4762 39.0041 8.54469 39.1272 8.66447C39.2501 8.78404 39.3205 8.94609 39.3234 9.11597Z"
        fill="white"></path>
    <path
        d="M43.1886 6.16246C42.8888 6.2258 42.5825 6.25362 42.276 6.24534C42.4904 6.30483 42.6783 6.43319 42.8098 6.60993C42.9412 6.78663 43.0086 7.00156 43.0012 7.22034C43.0012 7.94519 42.3927 8.47434 41.3951 8.47434C41.247 8.47816 41.0989 8.46432 40.9542 8.43307C40.9143 8.45369 40.8808 8.48454 40.8573 8.52234C40.8335 8.55989 40.8203 8.603 40.8191 8.64719C40.8191 8.76234 40.871 8.87746 41.2412 8.87746H41.8359C42.7325 8.87746 43.3076 9.33757 43.3076 9.96496C43.3076 10.7405 42.6 11.2096 41.2771 11.2096C39.9542 11.2096 39.5366 10.8391 39.4515 10.2203C39.4492 10.1931 39.4527 10.1658 39.4617 10.1399C39.4707 10.1141 39.485 10.0904 39.5038 10.0703C39.5232 10.0502 39.5466 10.0343 39.5725 10.0235C39.5985 10.0126 39.6264 10.0072 39.6546 10.0077H40.2985C40.3425 10.0075 40.3851 10.0224 40.4191 10.0498C40.4531 10.0772 40.4763 10.1153 40.4847 10.1577C40.534 10.3876 40.737 10.4705 41.3126 10.4705C41.9893 10.4705 42.1405 10.2886 42.1405 10.0493C42.1405 9.81007 41.9878 9.67657 41.6 9.67657H41.0412C40.197 9.67657 39.8618 9.33907 39.8618 8.93596C39.8723 8.78857 39.9196 8.64599 39.9995 8.52084C40.0794 8.39566 40.1894 8.29173 40.3199 8.21819C40.1066 8.12977 39.9258 7.9796 39.8016 7.78769C39.6776 7.5965 39.6165 7.37253 39.6263 7.14607C39.6263 6.29707 40.3199 5.76569 41.3176 5.76569C41.8782 5.79474 42.4355 5.66536 42.9237 5.39296C42.9636 5.37444 43.0083 5.36866 43.0517 5.37642C43.0951 5.38413 43.1349 5.405 43.1657 5.43607C43.1859 5.45669 43.2015 5.4812 43.2115 5.50807L43.3458 5.92057C43.3539 5.94642 43.3564 5.97363 43.3531 6.00046C43.3496 6.02703 43.3405 6.05257 43.3264 6.07546C43.3122 6.09869 43.2932 6.11874 43.2707 6.13434C43.2477 6.1499 43.2217 6.16066 43.1943 6.16584L43.1886 6.16246ZM40.7595 7.12173C40.7483 7.2029 40.7553 7.28553 40.7801 7.36379C40.805 7.442 40.847 7.51396 40.9031 7.57452C40.9594 7.63503 41.0284 7.68273 41.1054 7.71419C41.1824 7.74564 41.2655 7.76013 41.3489 7.75657C41.7027 7.75657 41.9244 7.52669 41.9244 7.10557C41.9244 6.68446 41.7382 6.49357 41.3489 6.49357C41.2662 6.4913 41.1841 6.50643 41.1079 6.53793C41.0318 6.56943 40.9633 6.61657 40.9072 6.67619C40.8514 6.7355 40.8092 6.806 40.7837 6.88284C40.7582 6.95969 40.75 7.04146 40.7595 7.12173Z"
        fill="white"></path>
    <path
        d="M47.0333 8.09227H44.6486C44.7171 8.76727 45.0569 8.95027 45.5284 8.95027C45.7993 8.94444 46.0628 8.86473 46.29 8.72004C46.3323 8.69351 46.3829 8.68276 46.4327 8.68961C46.4824 8.69647 46.5282 8.72055 46.5613 8.75754L46.7973 9.07965C46.8135 9.10113 46.8253 9.1256 46.8318 9.15166C46.8379 9.17771 46.8383 9.20471 46.8335 9.23098C46.8287 9.2573 46.8183 9.28237 46.8034 9.30466C46.7882 9.32694 46.7685 9.34593 46.7454 9.36054C46.3515 9.62446 45.8861 9.76558 45.4093 9.76554C44.1238 9.76554 43.4824 8.95554 43.4824 7.78704C43.4824 6.65527 44.1077 5.76688 45.2763 5.76688C46.3755 5.76688 47.0499 6.47566 47.0499 7.68804C47.053 7.823 47.0473 7.958 47.0333 8.09227ZM45.9341 7.37454C45.9175 6.86377 45.7666 6.50938 45.309 6.50938C44.9199 6.50938 44.7005 6.73966 44.6486 7.42966H45.9341V7.37454Z"
        fill="white"></path>
    <path
        d="M11.771 7.04982V9.85447C11.771 9.88036 11.7657 9.90603 11.7555 9.9299C11.7453 9.95377 11.7303 9.97546 11.7115 9.99359C11.6926 10.0118 11.6702 10.0262 11.6456 10.0359C11.6211 10.0456 11.5948 10.0505 11.5683 10.0502H10.724C10.6975 10.0505 10.6713 10.0456 10.6467 10.0359C10.6222 10.0262 10.5998 10.0118 10.5809 9.99359C10.5621 9.97546 10.5471 9.95377 10.5369 9.9299C10.5267 9.90603 10.5214 9.88036 10.5214 9.85447V7.26397C10.5214 6.8267 10.3687 6.71197 10.1652 6.71197C9.91298 6.71197 9.70993 6.90997 9.54007 7.2482V9.85482C9.53767 9.90642 9.51543 9.95519 9.47787 9.99131C9.44009 10.0276 9.3898 10.0486 9.33702 10.0502H8.47708C8.42609 10.0478 8.37802 10.0261 8.34312 9.98947C8.30831 9.95296 8.28951 9.90444 8.29082 9.85447V7.26397C8.29082 6.8267 8.12096 6.71197 7.9183 6.71197C7.66373 6.71197 7.46029 6.90997 7.27442 7.2482V9.85482C7.27538 9.87946 7.27137 9.90402 7.26269 9.92712C7.25396 9.95022 7.2407 9.97139 7.22365 9.98947C7.1891 10.0261 7.14125 10.0479 7.09043 10.0502H6.22517C6.17239 10.0486 6.1221 10.0276 6.08432 9.99131C6.04676 9.95519 6.02452 9.90642 6.02212 9.85482V6.14232C6.02395 6.09033 6.04593 6.04096 6.08358 6.00432C6.12135 5.96746 6.17195 5.94603 6.22517 5.94432H6.95036C6.99677 5.94363 7.04175 5.96009 7.07634 5.99047C7.11089 6.02065 7.13243 6.0626 7.13662 6.10782L7.20493 6.43897C7.34037 6.24552 7.52227 6.08785 7.73453 5.97993C7.94674 5.87197 8.18277 5.81712 8.42173 5.8202C8.63612 5.8103 8.84825 5.86713 9.02783 5.98259C9.2079 6.09727 9.34605 6.26545 9.42212 6.46259C9.5604 6.26253 9.74688 6.0992 9.96498 5.98722C10.1831 5.87519 10.426 5.81793 10.6721 5.82059C11.3324 5.82132 11.771 6.28147 11.771 7.04982Z"
        fill="#414042"></path>
    <path
        d="M15.0516 10.0592C14.9241 10.5355 14.6422 10.9581 14.2486 11.2632C13.8551 11.5683 13.3711 11.7391 12.8699 11.75C12.8187 11.7548 12.7676 11.7403 12.7268 11.7095C12.686 11.6789 12.6587 11.6341 12.6504 11.5843L12.5821 11.0987C12.5741 11.0505 12.5854 11.0011 12.6138 10.9611C12.6428 10.9215 12.6863 10.8946 12.7352 10.8861C12.9514 10.8756 13.1617 10.8127 13.3472 10.7031C13.5328 10.5935 13.688 10.4406 13.7989 10.2579C13.7153 10.2176 13.6408 10.1611 13.5798 10.0918C13.5191 10.0227 13.4732 9.94221 13.4451 9.85516L12.2661 6.20005C12.2555 6.17108 12.2521 6.14001 12.2565 6.10949C12.2608 6.07898 12.2726 6.04997 12.2909 6.02494C12.3093 5.99982 12.3335 5.97942 12.3617 5.96545C12.3898 5.95148 12.4209 5.94437 12.4524 5.94471H13.3485C13.3952 5.94561 13.4402 5.96155 13.4768 5.99005C13.5135 6.01847 13.5395 6.05802 13.5508 6.10255L14.2585 9.26832L15.0531 6.09355C15.0631 6.05232 15.0867 6.01551 15.1203 5.98894C15.1542 5.96232 15.196 5.94741 15.2394 5.94655H16.1001C16.133 5.94321 16.1662 5.94814 16.1966 5.96095C16.227 5.97372 16.2535 5.99395 16.2737 6.01971C16.2938 6.04521 16.3069 6.07538 16.3116 6.10731C16.3164 6.13924 16.3126 6.17185 16.3008 6.20194L15.0516 10.0592Z"
        fill="#414042"></path>
    <path
        d="M20.3609 9.51611L20.191 10.0108C20.1756 10.0541 20.1454 10.0907 20.1056 10.1146C20.0655 10.1386 20.0184 10.1482 19.972 10.142C19.7909 10.1316 19.6164 10.0721 19.4678 9.96988C19.3196 9.86814 19.2034 9.72774 19.1323 9.5645C18.9945 9.76781 18.8048 9.93204 18.5822 10.0406C18.3595 10.1492 18.1117 10.1984 17.8636 10.1833C17.685 10.1957 17.5058 10.1714 17.3373 10.1118C17.1688 10.0523 17.0149 9.95887 16.8853 9.8375C16.7562 9.71673 16.6545 9.5705 16.5868 9.40846C16.5191 9.24637 16.487 9.07211 16.4926 8.897C16.4926 8.00677 17.1861 7.51662 18.4712 7.51662H18.8972V7.33477C18.8972 6.84911 18.7109 6.70212 18.1896 6.70212C17.879 6.7139 17.5717 6.76897 17.2769 6.86561C17.225 6.88314 17.1682 6.88023 17.1184 6.85751C17.0686 6.8348 17.0296 6.79404 17.0098 6.74377L16.8571 6.29977C16.8395 6.25156 16.8419 6.19846 16.864 6.152C16.8861 6.10537 16.926 6.06916 16.975 6.05112C17.4289 5.90729 17.9017 5.82984 18.3785 5.82127C19.5979 5.82127 20.1212 6.31589 20.1212 7.27289V8.86477C20.1094 8.94431 20.1172 9.02549 20.1437 9.10151C20.1702 9.17759 20.2149 9.24629 20.2739 9.302C20.3098 9.3239 20.3376 9.35664 20.3529 9.39539C20.3683 9.43391 20.3703 9.47634 20.3586 9.51611H20.3609ZM18.8972 8.91311V8.1875H18.5857C18.0132 8.1875 17.7414 8.3855 17.7414 8.7875C17.7324 8.8544 17.7386 8.92246 17.7594 8.98674C17.7803 9.05107 17.8153 9.11004 17.8621 9.1595C17.909 9.20917 17.9664 9.24817 18.0303 9.27376C18.0942 9.29934 18.163 9.31091 18.2319 9.30761C18.3693 9.30766 18.5041 9.27067 18.6216 9.20077C18.7386 9.13151 18.8339 9.03204 18.8972 8.91311Z"
        fill="#414042"></path>
    <path
        d="M24.5211 10.0497H23.8135C23.7897 10.0507 23.7659 10.0469 23.7436 10.0387C23.7214 10.0304 23.701 10.0179 23.6838 10.0017C23.6666 9.98565 23.653 9.96637 23.6436 9.94494C23.6343 9.92355 23.6295 9.9005 23.6295 9.87722L23.5776 9.53222C23.444 9.74158 23.256 9.9122 23.0331 10.0266C22.8101 10.141 22.5602 10.1951 22.3089 10.1832C21.533 10.1832 21.1437 9.68861 21.1437 8.888V6.14334C21.1434 6.11724 21.1484 6.09135 21.1585 6.06718C21.1686 6.04301 21.1836 6.02111 21.2024 6.00273C21.2214 5.98425 21.2439 5.96964 21.2687 5.95978C21.2935 5.94992 21.32 5.94504 21.3467 5.94534H22.1983C22.2515 5.94705 22.3021 5.96848 22.3399 6.00534C22.3775 6.04198 22.3995 6.09135 22.4013 6.14334V8.74061C22.4013 9.15311 22.5357 9.27684 22.807 9.27684C22.9533 9.26304 23.0932 9.21127 23.2124 9.12684C23.3312 9.04297 23.425 8.92944 23.4841 8.798V6.143C23.484 6.11728 23.489 6.09178 23.499 6.068C23.5091 6.04382 23.5241 6.02188 23.543 6.0035C23.5618 5.98507 23.5843 5.97054 23.6089 5.96073C23.6332 5.95104 23.6591 5.94607 23.6853 5.94611H24.5318C24.5583 5.94607 24.5846 5.95121 24.6091 5.96115C24.6336 5.97114 24.6559 5.9858 24.6746 6.00422C24.6933 6.02257 24.708 6.04438 24.718 6.06843C24.7279 6.09242 24.7329 6.11818 24.7326 6.14411V9.85661C24.7329 9.88245 24.728 9.90808 24.718 9.93195C24.7081 9.95587 24.6933 9.97755 24.6746 9.99572C24.6559 10.014 24.6336 10.0284 24.6092 10.0381C24.5847 10.0478 24.5586 10.0527 24.5322 10.0523"
        fill="#414042"></path>
    <path
        d="M28.3299 9.70254C28.3489 9.73674 28.3569 9.77587 28.3527 9.81466C28.3486 9.85344 28.3325 9.89009 28.3066 9.91966C28.2895 9.93941 28.2685 9.95561 28.2448 9.96727C27.9465 10.1159 27.6171 10.1946 27.2826 10.1972C26.3532 10.1972 25.8959 9.67738 25.8959 8.71327V6.80004H25.4997C25.4596 6.8006 25.4201 6.78928 25.3866 6.76756C25.353 6.74583 25.3269 6.71467 25.3116 6.67816C25.3017 6.65437 25.2966 6.62887 25.2967 6.60316V6.14338C25.2964 6.11729 25.3014 6.0914 25.3116 6.06723C25.3216 6.04306 25.3366 6.02116 25.3555 6.00277C25.3745 5.9843 25.397 5.96969 25.4217 5.95983C25.4465 5.94997 25.473 5.94509 25.4997 5.94538H25.8891V5.23288C25.8918 5.18386 25.912 5.13731 25.9459 5.10127C25.98 5.06519 26.0257 5.04174 26.0754 5.03493L26.9219 4.94527C26.9492 4.94184 26.9769 4.94407 27.0032 4.95191C27.0295 4.95971 27.0538 4.97291 27.0746 4.99066C27.0954 5.00844 27.1121 5.03047 27.1234 5.0552C27.1347 5.07993 27.1405 5.1068 27.1402 5.13393V5.94389H27.883C27.9115 5.94504 27.9395 5.9522 27.965 5.96489C27.9905 5.97753 28.0129 5.99544 28.0307 6.01739C28.0482 6.03929 28.0607 6.06461 28.0673 6.09166C28.0739 6.11874 28.0744 6.14686 28.0689 6.17416L28.0005 6.63427C27.9913 6.68021 27.966 6.72157 27.9291 6.75127C27.8922 6.78118 27.8458 6.7976 27.7978 6.79777H27.149V8.67954C27.149 9.07516 27.2833 9.21538 27.5547 9.21538C27.6539 9.21534 27.7519 9.1949 27.8425 9.15538C27.8877 9.13807 27.9376 9.13708 27.9835 9.15268C28.0293 9.16828 28.0679 9.19944 28.0925 9.24054L28.3299 9.70254Z"
        fill="#414042"></path>
    <path
        d="M32.653 8.00677C32.653 9.31589 31.8747 10.1818 30.5896 10.1818C29.3045 10.1818 28.5258 9.37439 28.5258 7.99627C28.5258 6.68377 29.3041 5.82127 30.5896 5.82127C31.8751 5.82127 32.653 6.62189 32.653 8.00677ZM29.8228 8.00677C29.8228 8.91312 30.0774 9.29261 30.5862 9.29261C31.0949 9.29261 31.3457 8.897 31.3457 8.01761C31.3457 7.09739 31.0934 6.72239 30.5862 6.72239C30.0789 6.72239 29.8228 7.1165 29.8228 8.00677Z"
        fill="#414042"></path>
</svg>