<svg class="h-4" data-testid="platform-logo__myhome" fill="none" height="16" viewBox="0 0 52 16" width="52">
    <path
        d="M44.6236 0.5H7.39857C3.47187 0.5 0.285645 3.76687 0.285645 7.79294V8.20705C0.285645 12.2331 3.47187 15.5 7.39857 15.5H44.6012C48.5279 15.5 51.7141 12.2331 51.7141 8.20705V7.79294C51.7365 3.76687 48.5503 0.5 44.6236 0.5Z"
        fill="#26B571"></path>
    <path
        d="M38.1164 8.16066C38.1164 11.2665 35.6482 13.7972 32.5966 13.7972H7.69008C4.66091 13.7972 2.17027 11.2665 2.17027 8.16066V7.83857C2.17027 4.73274 4.63847 2.20205 7.69008 2.20205H32.5741C35.6033 2.20205 38.0939 4.73274 38.0939 7.83857V8.16066H38.1164Z"
        fill="white"></path>
    <path
        d="M41.1008 9.10459C41.1008 9.44968 40.8091 9.74876 40.4725 9.74876C40.1135 9.74876 39.8442 9.44968 39.8442 9.10459C39.8442 8.75949 40.1135 8.46041 40.4725 8.46041C40.8091 8.46041 41.1008 8.75949 41.1008 9.10459Z"
        fill="white"></path>
    <path
        d="M44.758 6.15984C44.5336 6.20585 44.2643 6.25186 43.8829 6.25186C44.3541 6.45892 44.5785 6.73502 44.5785 7.21814C44.5785 7.95434 43.9951 8.46045 43.0527 8.46045C42.8956 8.46045 42.761 8.46045 42.6263 8.41444C42.5366 8.46045 42.4917 8.55248 42.4917 8.6215C42.4917 8.73653 42.5366 8.85156 42.8956 8.85156H43.4566C44.3092 8.85156 44.8477 9.31168 44.8477 9.93285C44.8477 10.7151 44.1746 11.1752 42.918 11.1752C41.6839 11.1752 41.2576 10.8071 41.1903 10.1859C41.1679 10.0709 41.28 9.97888 41.3922 9.97888H41.9981C42.0878 9.97888 42.1551 10.0249 42.1776 10.1169C42.2225 10.347 42.4244 10.439 42.9629 10.439C43.6136 10.439 43.7483 10.2549 43.7483 10.0249C43.7483 9.79481 43.6136 9.65677 43.2322 9.65677H42.6937C41.8859 9.65677 41.5718 9.31168 41.5718 8.92058C41.5718 8.6445 41.7513 8.36843 41.9981 8.20739C41.5269 7.95432 41.3474 7.63223 41.3474 7.1261C41.3474 6.27487 41.9981 5.74573 42.9629 5.74573C43.6585 5.76874 44.1073 5.60772 44.4887 5.37765C44.5785 5.33164 44.7131 5.37765 44.758 5.49268L44.8926 5.90677C44.9375 6.0218 44.8702 6.13683 44.758 6.15984ZM42.4468 7.1261C42.4468 7.54021 42.6712 7.77027 43.0078 7.77027C43.3668 7.77027 43.5463 7.54021 43.5463 7.1261C43.5463 6.71199 43.3668 6.50493 43.0078 6.50493C42.6712 6.48193 42.4468 6.73499 42.4468 7.1261Z"
        fill="white"></path>
    <path
        d="M48.438 8.09252H46.1718C46.2391 8.7597 46.5532 8.94374 47.002 8.94374C47.2488 8.94374 47.4732 8.87473 47.72 8.71368C47.8097 8.64466 47.9219 8.69068 47.9668 8.7597L48.1912 9.08178C48.2585 9.17381 48.2361 9.28884 48.1463 9.35785C47.8097 9.58792 47.3834 9.77197 46.8673 9.77197C45.6557 9.77197 45.0274 8.96675 45.0274 7.79344C45.0274 6.66614 45.6332 5.7689 46.7327 5.7689C47.7873 5.7689 48.4156 6.48209 48.4156 7.70141C48.438 7.79344 48.438 7.97749 48.438 8.09252ZM47.3834 7.35632C47.361 6.85019 47.2263 6.48209 46.7776 6.48209C46.4186 6.48209 46.1942 6.71215 46.1493 7.40233H47.361V7.35632H47.3834Z"
        fill="white"></path>
    <path
        d="M11.0333 7.0334V9.84015C11.0333 9.95518 10.9435 10.0472 10.8313 10.0472H10.0235C9.91135 10.0472 9.82157 9.95518 9.82157 9.84015V7.24045C9.82157 6.80333 9.68694 6.6883 9.485 6.6883C9.23818 6.6883 9.05867 6.89536 8.87917 7.21744V9.81714C8.87917 9.93217 8.78944 10.0242 8.67724 10.0242H7.84703C7.75728 10.0242 7.66752 9.93217 7.66752 9.81714V7.24045C7.66752 6.80333 7.51043 6.6883 7.30849 6.6883C7.06167 6.6883 6.88216 6.89536 6.70266 7.21744V9.81714C6.70266 9.93217 6.6129 10.0242 6.52315 10.0242H5.69293C5.60318 10.0242 5.49101 9.93217 5.49101 9.81714V6.11315C5.49101 5.99812 5.58074 5.90609 5.69293 5.90609H6.38854C6.4783 5.90609 6.54559 5.97511 6.56803 6.06714L6.63534 6.38922C6.94948 5.97511 7.30849 5.76806 7.80213 5.76806C8.25089 5.76806 8.58749 5.99812 8.74456 6.41223C9.05869 5.97511 9.44012 5.76806 9.93376 5.76806C10.6069 5.79106 11.0333 6.25119 11.0333 7.0334Z"
        fill="#414042"></path>
    <path
        d="M30.2854 7.03334V9.84009C30.2854 9.95512 30.1957 10.0471 30.0835 10.0471H29.2757C29.1635 10.0471 29.0738 9.95512 29.0738 9.84009V7.24039C29.0738 6.80328 28.9392 6.68825 28.7372 6.68825C28.4904 6.68825 28.3109 6.8953 28.1314 7.21739V9.81708C28.1314 9.93211 28.0416 10.0241 27.9294 10.0241H27.0992C27.0095 10.0241 26.9197 9.93211 26.9197 9.81708V7.24039C26.9197 6.80328 26.7626 6.68825 26.5607 6.68825C26.3139 6.68825 26.1344 6.8953 25.9549 7.21739V9.81708C25.9549 9.93211 25.8651 10.0241 25.7754 10.0241H24.9451C24.8554 10.0241 24.7432 9.93211 24.7432 9.81708V6.11309C24.7432 5.99806 24.833 5.90604 24.9451 5.90604H25.6407C25.7305 5.90604 25.7978 5.97505 25.8202 6.06708L25.8876 6.38917C26.2017 5.97506 26.5607 5.768 27.0543 5.768C27.5031 5.768 27.8397 5.99806 27.9967 6.41217C28.3109 5.97505 28.6923 5.768 29.186 5.768C29.8591 5.79101 30.2854 6.25113 30.2854 7.03334Z"
        fill="#414042"></path>
    <path
        d="M14.1522 10.0479C13.8381 11.0371 13.2098 11.6123 12.0879 11.7273C11.9981 11.7273 11.8859 11.6583 11.8859 11.5663L11.8186 11.0832C11.7962 10.9911 11.8635 10.8761 11.9532 10.8761C12.4918 10.7841 12.7835 10.6 12.963 10.2549C12.8283 10.2319 12.6713 10.0019 12.6264 9.84082L11.5269 6.18285C11.482 6.06781 11.5718 5.92978 11.7064 5.92978H12.5591C12.6488 5.92978 12.7161 5.9988 12.761 6.09082L13.4342 9.26567L14.1971 6.09082C14.2195 5.9988 14.2868 5.95278 14.3766 5.95278H15.2068C15.3414 5.95278 15.4312 6.09082 15.3863 6.20585L14.1522 10.0479Z"
        fill="#414042"></path>
    <path
        d="M24.0252 7.97696C24.0252 9.28831 23.2847 10.1625 22.073 10.1625C20.8613 10.1625 20.1209 9.35732 20.1209 7.97696C20.1209 6.66561 20.8613 5.79137 22.073 5.79137C23.2847 5.79137 24.0252 6.59659 24.0252 7.97696ZM21.3325 7.97696C21.3325 8.8742 21.5794 9.2653 22.0506 9.2653C22.5218 9.2653 22.7686 8.8742 22.7686 7.97696C22.7686 7.05671 22.5218 6.68861 22.0506 6.68861C21.5794 6.68861 21.3325 7.07972 21.3325 7.97696Z"
        fill="#414042"></path>
    <path
        d="M34.7282 7.9083C34.7282 6.57395 34.0326 5.81474 32.8883 5.81474C31.6766 5.81474 31.0259 6.781 31.0259 8.02333C31.0259 9.31168 31.699 10.1859 33.0453 10.1859C33.5614 10.1859 33.9877 10.0249 34.3468 9.79481C34.3692 9.79481 34.3692 9.7718 34.3916 9.7718C34.4141 9.7718 34.4365 9.74879 34.4365 9.72579C34.5263 9.65677 34.5487 9.54174 34.4814 9.47272L34.2346 9.08162C34.1448 8.94358 34.0102 9.0126 33.9877 9.0126C33.9429 9.0356 33.898 9.08162 33.8307 9.10462C33.6063 9.24266 33.3819 9.28867 33.1351 9.28867C32.6414 9.28867 32.3049 9.08162 32.2151 8.34542H34.7058C34.7058 8.23039 34.7282 8.04634 34.7282 7.9083ZM32.2376 7.60922C32.2824 6.87303 32.5293 6.61996 32.9331 6.61996C33.4043 6.61996 33.5838 7.01106 33.5838 7.56321V7.60922H32.2376Z"
        fill="#414042"></path>
    <path
        d="M19.3806 6.99141C19.3806 6.20921 18.9542 5.74908 18.2811 5.74908C17.8099 5.74908 17.4509 5.93313 17.1368 6.32424V4.3227C17.1368 4.20767 17.047 4.11565 16.9348 4.13865L16.127 4.23068C16.0373 4.25368 15.9475 4.3227 15.9475 4.43773V9.82117C15.9475 9.9362 16.0373 10.0282 16.1495 10.0282H16.9572C17.0694 10.0282 17.1592 9.9362 17.1592 9.82117V7.19847C17.3611 6.87638 17.5855 6.66933 17.8548 6.66933C18.0792 6.66933 18.2362 6.78436 18.2362 7.22148V9.82117C18.2362 9.9362 18.326 10.0282 18.4382 10.0282H19.2459C19.3581 10.0282 19.4479 9.9362 19.4479 9.82117L19.3806 6.99141Z"
        fill="#414042"></path>
</svg>