<svg class="h-6" data-testid="platform-logo__myjobs" fill="none" height="16" viewBox="0 0 48 16" width="48">
    <path
        d="M40.6988 0.5H7.30148C3.27077 0.5 0.0078125 3.76296 0.0078125 7.79367V8.20633C0.0078125 12.237 3.27077 15.5 7.30148 15.5H40.6988C44.7295 15.5 47.9925 12.237 47.9925 8.20633V7.79367C47.9925 3.76296 44.7295 0.5 40.6988 0.5Z"
        fill="#A155B9"></path>
    <path
        d="M34.0187 8.16753C34.0187 11.2865 31.4851 13.8105 28.3661 13.8105H7.59839C4.47939 13.8105 1.9458 11.2865 1.9458 8.16753V7.84124C1.9458 4.72223 4.47939 2.19824 7.59839 2.19824H28.3661C31.4851 2.19824 34.0187 4.72223 34.0187 7.84124V8.16753Z"
        fill="white"></path>
    <path
        d="M37.0804 9.1176C37.0804 9.46309 36.7829 9.7606 36.4374 9.7606C36.0727 9.7606 35.7944 9.46309 35.7944 9.1176C35.7944 8.77211 36.0727 8.47461 36.4374 8.47461C36.7829 8.47461 37.0804 8.77211 37.0804 9.1176Z"
        fill="white"></path>
    <path
        d="M40.8425 6.17152C40.6121 6.2291 40.3338 6.2579 39.9499 6.2579C40.4298 6.45943 40.6601 6.74734 40.6601 7.22719C40.6601 7.95655 40.0651 8.48438 39.0958 8.48438C38.9327 8.48438 38.7983 8.47479 38.664 8.44599C38.5776 8.48438 38.5296 8.58035 38.5296 8.65713C38.5296 8.77229 38.5776 8.87786 38.9423 8.87786H39.5181C40.3914 8.87786 40.9576 9.33851 40.9576 9.97191C40.9576 10.7493 40.2666 11.2195 38.9807 11.2195C37.7139 11.2195 37.282 10.8452 37.1956 10.231C37.1764 10.1159 37.282 10.0199 37.3972 10.0199H38.021C38.1073 10.0199 38.1841 10.0775 38.2033 10.1638C38.2513 10.3846 38.4528 10.4805 39.0094 10.4805C39.6716 10.4805 39.8156 10.2982 39.8156 10.0583C39.8156 9.83755 39.6716 9.684 39.2878 9.684H38.7407C37.9154 9.684 37.5891 9.34811 37.5891 8.94504C37.5891 8.67632 37.7714 8.38841 38.0306 8.22527C37.5507 7.96615 37.3492 7.63985 37.3492 7.15041C37.3492 6.29628 38.0306 5.76845 38.9999 5.76845C39.71 5.78765 40.1707 5.6245 40.5642 5.39417C40.6601 5.33659 40.7945 5.39417 40.8425 5.50933L40.9768 5.922C41.0248 6.02757 40.9576 6.14273 40.8425 6.17152ZM38.472 7.12162C38.472 7.53429 38.7023 7.75502 39.0478 7.75502C39.4125 7.75502 39.6141 7.53429 39.6141 7.10242C39.6141 6.68976 39.4317 6.48822 39.0478 6.48822C38.7023 6.49782 38.472 6.73774 38.472 7.12162Z"
        fill="white"></path>
    <path
        d="M44.6046 8.09084H42.2822C42.3493 8.76263 42.6756 8.94497 43.1363 8.94497C43.3858 8.94497 43.6161 8.86819 43.8753 8.71464C43.9616 8.65706 44.0768 8.68585 44.144 8.75303L44.3743 9.07933C44.4415 9.1657 44.4223 9.29046 44.3263 9.35764C43.9808 9.58796 43.549 9.76071 43.0211 9.76071C41.7639 9.76071 41.1401 8.95457 41.1401 7.78374C41.1401 6.6513 41.7543 5.75879 42.8868 5.75879C43.9616 5.75879 44.6238 6.46896 44.6238 7.67817C44.6238 7.81253 44.6238 7.98528 44.6046 8.09084ZM43.5394 7.37107C43.5202 6.86244 43.3762 6.50735 42.9252 6.50735C42.5413 6.50735 42.3302 6.74727 42.2822 7.41906H43.5394V7.37107Z"
        fill="white"></path>
    <path
        d="M11.0064 7.06418V9.86648C11.0064 9.97204 10.9201 10.068 10.8049 10.068H9.97957C9.86441 10.068 9.77804 9.98164 9.77804 9.86648V7.27531C9.77804 6.83385 9.63408 6.71869 9.43255 6.71869C9.18303 6.71869 8.99109 6.92022 8.81834 7.25611V9.86648C8.81834 9.97204 8.72237 10.068 8.61681 10.068H7.77228C7.67631 10.068 7.58994 9.98164 7.58994 9.86648V7.27531C7.58994 6.83385 7.42679 6.71869 7.22525 6.71869C6.97573 6.71869 6.78379 6.92022 6.60145 7.25611V9.86648C6.60145 9.97204 6.51508 10.068 6.41911 10.068H5.57458C5.47861 10.068 5.37305 9.98164 5.37305 9.86648V6.15247C5.37305 6.0469 5.46902 5.95093 5.57458 5.95093H6.28476C6.38072 5.95093 6.4479 6.01811 6.4671 6.11408L6.53428 6.44038C6.85097 6.02771 7.22525 5.82617 7.72429 5.82617C8.18495 5.82617 8.53044 6.0565 8.69358 6.46917C9.01988 6.0373 9.40376 5.82617 9.91239 5.82617C10.5746 5.82617 11.0064 6.28682 11.0064 7.06418Z"
        fill="#414042"></path>
    <path
        d="M14.2016 10.0678C13.8849 11.0467 13.2419 11.6417 12.0711 11.7568C11.9751 11.7664 11.8696 11.6992 11.86 11.5937L11.7928 11.1042C11.7736 11.0083 11.8408 10.9027 11.9367 10.8931C12.4934 10.7971 12.7813 10.6148 12.9732 10.2693C12.8388 10.2405 12.6757 10.0198 12.6277 9.86623L11.4857 6.2098C11.4377 6.08504 11.5337 5.95068 11.668 5.95068H12.5413C12.6373 5.95068 12.7045 6.01786 12.7429 6.10423L13.4339 9.27122L14.2112 6.09464C14.2304 6.00827 14.3072 5.95068 14.3935 5.95068H15.2381C15.3724 5.95068 15.4684 6.08504 15.4204 6.2098L14.2016 10.0678Z"
        fill="#414042"></path>
    <path
        d="M29.3743 7.52466C28.6353 7.30393 28.5297 7.21756 28.5297 6.99683C28.5297 6.81449 28.6929 6.68973 29.0288 6.68973C29.2975 6.68973 29.5566 6.75691 29.8061 6.88167C29.8349 6.89126 29.8541 6.91046 29.8829 6.92005C29.9693 6.96804 30.094 6.93925 30.1516 6.85287L30.3915 6.4594C30.4491 6.37303 30.4203 6.24827 30.3339 6.20028C30.3052 6.18109 30.238 6.1427 30.238 6.1427C29.8925 5.94117 29.451 5.81641 28.9808 5.81641C27.9443 5.81641 27.3013 6.36343 27.3013 7.0736C27.3013 7.707 27.7044 8.12927 28.5105 8.35959C29.2495 8.57072 29.3743 8.6571 29.3743 8.93541C29.3743 9.18493 29.1535 9.31928 28.7792 9.31928C28.4625 9.31928 28.165 9.22332 27.8963 9.06017C27.8675 9.03138 27.8291 9.01218 27.8004 8.98339C27.7236 8.92581 27.6084 8.9642 27.5508 9.05057L27.2533 9.46324C27.1958 9.54961 27.2149 9.66477 27.2821 9.73195C27.3109 9.75115 27.3301 9.77034 27.3589 9.78953C27.7428 10.0391 28.2418 10.2022 28.8176 10.2022C29.8349 10.2022 30.6411 9.70316 30.6411 8.84904C30.6411 8.10048 30.19 7.75499 29.3743 7.52466Z"
        fill="#414042"></path>
    <path
        d="M26.7549 7.97564C26.7549 9.26163 26.1407 10.1829 25.1042 10.1829C24.6436 10.1829 24.2693 9.9814 24.0198 9.6551L23.991 9.85664C23.9718 9.9718 23.8758 10.0486 23.7607 10.0486H23.0985C22.9737 10.0486 22.8682 9.94301 22.8682 9.81825V4.45356C22.8682 4.3384 22.9545 4.23284 23.0793 4.22324L23.8566 4.13687C23.991 4.11767 24.1158 4.23284 24.1158 4.36719V6.31537C24.3653 5.96988 24.7684 5.75875 25.2386 5.75875C26.2079 5.76834 26.7549 6.58408 26.7549 7.97564ZM25.4785 7.97564C25.4785 6.91998 25.2002 6.67046 24.8067 6.67046C24.5284 6.67046 24.2789 6.8528 24.1062 7.1599V8.88735C24.2597 9.13687 24.49 9.29042 24.7588 9.29042C25.181 9.29042 25.4785 8.95452 25.4785 7.97564Z"
        fill="#414042"></path>
    <path
        d="M17.5228 9.61688C17.5228 10.8837 16.9182 11.3923 16.0449 11.7378C15.9393 11.7762 15.8145 11.7378 15.7666 11.6322L15.5266 11.1044C15.4787 10.9988 15.5266 10.8741 15.6226 10.8261C16.0449 10.615 16.2848 10.3558 16.2848 9.69365V6.17158C16.2848 6.05642 16.3808 5.96045 16.4959 5.96045H17.3021C17.4172 5.96045 17.5132 6.05642 17.5132 6.17158V9.61688H17.5228Z"
        fill="#414042"></path>
    <path
        d="M22.2441 8.00451C22.2441 9.31928 21.4859 10.183 20.2287 10.183C18.9907 10.183 18.2134 9.37687 18.2134 7.99491C18.2134 6.68013 18.9715 5.81641 20.2287 5.81641C21.4763 5.826 22.2441 6.62255 22.2441 8.00451ZM19.4802 8.00451C19.4802 8.91621 19.7297 9.29049 20.2191 9.29049C20.7182 9.29049 20.9581 8.89702 20.9581 8.0141C20.9581 7.10239 20.7086 6.71852 20.2191 6.71852C19.7297 6.70892 19.4802 7.11199 19.4802 8.00451Z"
        fill="#414042"></path>
    <path
        d="M17.6378 4.5497C17.6378 4.95277 17.3307 5.25027 16.8988 5.25027C16.4669 5.25027 16.1694 4.94317 16.1694 4.5497C16.1694 4.14663 16.4669 3.84912 16.8988 3.84912C17.3307 3.84912 17.6378 4.15622 17.6378 4.5497Z"
        fill="#414042"></path>
</svg>