<svg class="myparts" data-testid="platform-logo__myparts" fill="none" height="16" viewBox="0 0 54 16" width="54">
    <path
        d="M46.2315 0.5H7.76868C3.5983 0.5 0.214355 3.76687 0.214355 7.79295V8.20705C0.214355 12.2331 3.5983 15.5 7.76868 15.5H46.2315C50.4018 15.5 53.7858 12.2331 53.7858 8.20705V7.79295C53.7858 3.76687 50.4018 0.5 46.2315 0.5Z"
        fill="#009DB9"></path>
    <path
        d="M39.2447 8.16074C39.2447 11.2666 36.6284 13.7972 33.3937 13.7972H8.06318C4.85226 13.7972 2.21216 11.2666 2.21216 8.16074V7.83865C2.21216 4.73282 4.82848 2.20215 8.06318 2.20215H33.3937C36.6046 2.20215 39.2447 4.73282 39.2447 7.83865V8.16074Z"
        fill="white"></path>
    <path
        d="M31.824 9.7024C31.8716 9.79442 31.8478 9.90945 31.7289 9.95546C31.4435 10.0935 31.0629 10.1855 30.7537 10.1855C29.8261 10.1855 29.3505 9.65638 29.3505 8.69012V6.80361H28.9699C28.851 6.80361 28.7559 6.7116 28.7559 6.59657V6.13645C28.7559 6.02141 28.851 5.92938 28.9699 5.92938H29.3505V5.2162C29.3505 5.12418 29.4456 5.03215 29.5407 5.00914L30.397 4.91712C30.5159 4.89412 30.611 4.98614 30.611 5.10117V5.90638H31.3722C31.4911 5.90638 31.5862 6.02141 31.5624 6.13645L31.4911 6.59657C31.4673 6.68859 31.3959 6.75761 31.277 6.75761H30.611V8.64411C30.611 9.03521 30.7538 9.17326 31.0154 9.17326C31.1105 9.17326 31.2057 9.15024 31.3008 9.10423C31.3959 9.08122 31.5148 9.10423 31.5624 9.19626L31.824 9.7024Z"
        fill="#414042"></path>
    <path
        d="M11.5835 7.05642V9.86317C11.5835 9.9782 11.4884 10.0702 11.3694 10.0702H10.5132C10.3943 10.0702 10.2991 9.9782 10.2991 9.86317V7.26347C10.2991 6.82635 10.1564 6.71133 9.94237 6.71133C9.68074 6.71133 9.49048 6.91838 9.3002 7.24046V9.84015C9.3002 9.95519 9.20506 10.0472 9.08613 10.0472H8.20612C8.11098 10.0472 8.01583 9.95519 8.01583 9.84015V7.24046C8.01583 6.80335 7.84934 6.68831 7.63528 6.68831C7.37365 6.68831 7.18339 6.89538 6.99311 7.21746V9.81715C6.99311 9.93219 6.89796 10.0242 6.80282 10.0242H5.92281C5.82767 10.0242 5.70874 9.93219 5.70874 9.81715V6.11316C5.70874 5.99813 5.80388 5.90611 5.92281 5.90611H6.66012C6.75526 5.90611 6.8266 5.97513 6.85038 6.06716L6.92175 6.38923C7.25473 5.97512 7.63527 5.76807 8.15853 5.76807C8.63422 5.76807 8.99101 5.99814 9.1575 6.41225C9.49048 5.97513 9.8948 5.76807 10.4181 5.76807C11.1316 5.81408 11.5835 6.27421 11.5835 7.05642Z"
        fill="#414042"></path>
    <path
        d="M14.8896 10.0702C14.5567 11.0595 13.8907 11.6347 12.7015 11.7497C12.6063 11.7497 12.4874 11.7037 12.4874 11.5887L12.416 11.1055C12.3923 11.0135 12.4636 10.8985 12.5587 10.8985C13.1296 10.8064 13.4388 10.6224 13.629 10.2773C13.4863 10.2543 13.3198 10.0242 13.2723 9.86319L12.1069 6.20521C12.0593 6.09018 12.1544 5.95215 12.2971 5.95215H13.2009C13.2961 5.95215 13.3674 6.02116 13.415 6.11318L14.1285 9.28804L14.9372 6.11318C14.961 6.02116 15.0323 5.97515 15.1275 5.97515H16.0075C16.1502 5.97515 16.2454 6.11318 16.1978 6.22821L14.8896 10.0702Z"
        fill="#414042"></path>
    <path
        d="M25.1167 9.51838L24.9503 10.0245C24.9265 10.1165 24.8313 10.1626 24.7362 10.1626C24.3318 10.0935 24.0464 9.9555 23.8799 9.5874C23.5708 10.0475 23.1188 10.2086 22.5956 10.2086C21.7631 10.2086 21.2161 9.67942 21.2161 8.92022C21.2161 8.02298 21.9058 7.53985 23.214 7.53985H23.6421V7.3558C23.6421 6.87267 23.4518 6.71163 22.9286 6.71163C22.6907 6.71163 22.3577 6.75765 22.001 6.87268C21.9058 6.89568 21.7869 6.84967 21.7393 6.75765L21.5966 6.32053C21.5728 6.2285 21.6204 6.11348 21.7155 6.06746C22.1912 5.92943 22.7145 5.8374 23.1188 5.8374C24.3556 5.8374 24.8789 6.32053 24.8789 7.28679V8.8742C24.8789 9.10426 24.9265 9.2423 25.0216 9.31132C25.1167 9.35734 25.1405 9.44937 25.1167 9.51838ZM23.6421 8.92022V8.18402H23.3329C22.7621 8.18402 22.4767 8.39108 22.4767 8.78218C22.4767 9.10427 22.6669 9.31132 22.9761 9.31132C23.2615 9.31132 23.4756 9.15028 23.6421 8.92022Z"
        fill="#414042"></path>
    <path
        d="M34.2977 7.51685C33.5366 7.30979 33.4176 7.21777 33.4176 6.98771C33.4176 6.80366 33.5841 6.68862 33.9171 6.68862C34.2025 6.68862 34.4642 6.75765 34.7258 6.87268C34.7496 6.89568 34.7733 6.89567 34.7971 6.91868C34.8923 6.96469 35.0112 6.94169 35.0588 6.84966L35.3204 6.45856C35.368 6.36653 35.3442 6.25151 35.2728 6.20549C35.249 6.18249 35.1777 6.15948 35.1777 6.15948C34.8209 5.95242 34.369 5.8374 33.8696 5.8374C32.7992 5.8374 32.1333 6.38954 32.1333 7.07972C32.1333 7.7239 32.5376 8.13802 33.3939 8.36808C34.155 8.57513 34.2977 8.66716 34.2977 8.94323C34.2977 9.1963 34.0598 9.33432 33.6793 9.33432C33.3463 9.33432 33.0371 9.2423 32.7754 9.08126C32.7517 9.05825 32.7041 9.03525 32.6803 9.01225C32.609 8.96623 32.49 8.98924 32.4187 9.08126L32.1095 9.49537C32.0381 9.58739 32.0619 9.70243 32.1333 9.77144C32.1571 9.79445 32.1809 9.81745 32.2046 9.84046C32.609 10.0935 33.1084 10.2546 33.703 10.2546C34.7496 10.2546 35.582 9.74844 35.582 8.89721C35.6058 8.092 35.1539 7.74691 34.2977 7.51685Z"
        fill="#414042"></path>
    <path
        d="M28.2566 5.8374H28.209C28.1615 5.8374 28.0901 5.8374 28.0188 5.8374C27.5431 5.8374 27.115 6.18249 26.9247 6.75765L26.8533 6.25151V6.20549V6.15948C26.8533 6.04445 26.7582 5.95243 26.6393 5.95243H26.4014H26.2111H25.9257C25.8068 5.95243 25.7117 6.04445 25.7117 6.15948V6.25151V9.77144V9.81746V9.86347C25.7117 9.97851 25.8068 10.0705 25.9257 10.0705H26.782C26.9009 10.0705 26.996 9.97851 26.996 9.86347V9.77144V7.99997C27.1387 7.3788 27.3528 7.03371 27.8761 7.03371C27.9236 7.03371 27.995 7.03372 28.0426 7.05672H28.0663H28.0901C28.1853 7.05672 28.2804 6.9877 28.3042 6.89568L28.4469 6.09046C28.4469 5.95243 28.3755 5.86041 28.2566 5.8374Z"
        fill="#414042"></path>
    <path
        d="M19.1709 5.81445C18.7428 5.81445 18.2909 5.9755 17.9579 6.41262L17.9341 6.25158V6.20556V6.15955C17.9341 6.04451 17.839 5.9525 17.7201 5.9525H17.4822H17.2919H17.0065C16.8876 5.9525 16.7925 6.04451 16.7925 6.15955V6.27458V10.4617V11.497V11.474V11.543C16.7925 11.658 16.8876 11.75 17.0065 11.727L17.8628 11.635C17.9579 11.612 18.0531 11.543 18.0531 11.428V11.3819V11.4049V11.3819V9.74851C18.3147 10.0246 18.6715 10.1626 19.0758 10.1626C20.1223 10.1626 20.7645 9.24237 20.7645 7.97704C20.7407 6.66569 20.265 5.81445 19.1709 5.81445ZM18.6715 9.28839C18.4098 9.28839 18.2195 9.17335 18.0293 8.92028V7.19482C18.2195 6.89574 18.4574 6.7117 18.7666 6.7117C19.1947 6.7117 19.4563 6.98777 19.4563 8.00004C19.4326 8.92028 19.1472 9.28839 18.6715 9.28839Z"
        fill="#414042"></path>
    <path
        d="M42.4083 9.10413C42.4083 9.44922 42.0992 9.74831 41.7424 9.74831C41.3618 9.74831 41.0764 9.44922 41.0764 9.10413C41.0764 8.75904 41.3618 8.45996 41.7424 8.45996C42.0992 8.45996 42.4083 8.75904 42.4083 9.10413Z"
        fill="white"></path>
    <path
        d="M46.2851 6.1597C46.0472 6.22871 45.7618 6.25173 45.3574 6.25173C45.8569 6.45878 46.0948 6.73486 46.0948 7.21799C46.0948 7.95418 45.4764 8.46031 44.4774 8.46031C44.3109 8.46031 44.1682 8.46031 44.0255 8.41429C43.9304 8.46031 43.8828 8.55234 43.8828 8.62135C43.8828 8.73639 43.9304 8.85142 44.3109 8.85142H44.9055C45.8093 8.85142 46.3802 9.31154 46.3802 9.93271C46.3802 10.7149 45.6667 11.175 44.3347 11.175C43.0266 11.175 42.5747 10.8069 42.5033 10.1858C42.4795 10.0707 42.5984 9.97872 42.7174 9.97872H43.3595C43.4547 9.97872 43.526 10.0247 43.5498 10.1168C43.5974 10.3468 43.8115 10.4388 44.3823 10.4388C45.072 10.4388 45.2147 10.2548 45.2147 10.0247C45.2147 9.79466 45.072 9.65663 44.6677 9.65663H44.0969C43.2406 9.65663 42.9077 9.31154 42.9077 8.92043C42.9077 8.64436 43.0979 8.36829 43.3595 8.20725C42.8601 7.95418 42.6698 7.63209 42.6698 7.12596C42.6698 6.27473 43.3596 5.74559 44.3823 5.74559C45.1196 5.76859 45.5953 5.60756 45.9996 5.3775C46.0948 5.33148 46.2375 5.3775 46.2851 5.49253L46.4278 5.90663C46.4753 6.02166 46.404 6.13669 46.2851 6.1597ZM43.8352 7.12596C43.8352 7.54007 44.0731 7.77012 44.4298 7.77012C44.8104 7.77012 45.0007 7.54007 45.0007 7.12596C45.0007 6.71185 44.8104 6.50479 44.4298 6.50479C44.0731 6.48178 43.8352 6.73485 43.8352 7.12596Z"
        fill="white"></path>
    <path
        d="M50.1858 8.09169H47.7836C47.8549 8.75887 48.1879 8.94292 48.6636 8.94292C48.9252 8.94292 49.1631 8.87391 49.4247 8.71286C49.5198 8.64384 49.6388 8.68985 49.6864 8.75886L49.9242 9.08096C49.9956 9.17298 49.9718 9.28801 49.8766 9.35703C49.5198 9.58709 49.068 9.77114 48.5209 9.77114C47.2365 9.77114 46.5706 8.96593 46.5706 7.79262C46.5706 6.66532 47.2128 5.76807 48.3782 5.76807C49.4961 5.76807 50.162 6.48126 50.162 7.70059C50.2096 7.79261 50.2096 7.97666 50.1858 8.09169ZM49.0679 7.3555C49.0441 6.84936 48.9015 6.48126 48.4258 6.48126C48.0452 6.48126 47.8074 6.71133 47.7598 7.40151H49.0442V7.3555H49.0679Z"
        fill="white"></path>
</svg>