<svg width="24" height="25" viewBox="0 0 24 25" fill="none" xmlns="http://www.w3.org/2000/svg">
<path d="M17.6417 6.85292C16.0117 5.22292 13.7017 4.28292 11.1617 4.54292C7.49172 4.91292 4.47172 7.89292 4.06172 11.5629C3.51172 16.4129 7.26172 20.5029 11.9917 20.5029C15.1817 20.5029 17.9217 18.6329 19.2017 15.9429C19.5217 15.2729 19.0417 14.5029 18.3017 14.5029C17.9317 14.5029 17.5817 14.7029 17.4217 15.0329C16.2917 17.4629 13.5817 19.0029 10.6217 18.3429C8.40172 17.8529 6.61172 16.0429 6.14172 13.8229C5.30172 9.94292 8.25172 6.50292 11.9917 6.50292C13.6517 6.50292 15.1317 7.19292 16.2117 8.28292L14.7017 9.79292C14.0717 10.4229 14.5117 11.5029 15.4017 11.5029H18.9917C19.5417 11.5029 19.9917 11.0529 19.9917 10.5029V6.91292C19.9917 6.02292 18.9117 5.57292 18.2817 6.20292L17.6417 6.85292Z" fill="white"/>
</svg>
