<svg xmlns="http://www.w3.org/2000/svg" width="18" height="20" fill="none" viewBox="0 0 20 20">
    <path fill="#222"
        d="M7.205 2.796 4.88 5.12a.412.412 0 0 0 .292.708h1.492v5.009c0 .458.375.833.833.833a.836.836 0 0 0 .833-.833V5.829h1.492c.375 0 .558-.45.292-.708L7.789 2.796a.42.42 0 0 0-.584 0m6.125 11.383V9.171a.836.836 0 0 0-.833-.833.836.836 0 0 0-.833.833v5.008h-1.492a.412.412 0 0 0-.292.708l2.325 2.317a.43.43 0 0 0 .592 0l2.325-2.317c.267-.258.075-.708-.292-.708z">
    </path>
</svg>