<svg class="superapp" data-testid="platform-logo__superapp" fill="none" height="18" viewBox="0 0 52 18" width="52">
    <path
        d="M9.65148 13.5585C9.77492 13.5172 9.88178 13.4493 9.96792 13.3632C10.1786 13.1524 10.2649 12.8331 10.164 12.5312C10.0219 12.106 9.56205 11.8765 9.13677 12.0187C7.98391 12.404 6.73391 12.1095 5.87456 11.2501C5.01551 10.3909 4.72116 9.14116 5.10639 7.9883C5.24856 7.56302 5.01895 7.10319 4.59382 6.96102C4.16854 6.81885 3.70856 7.04869 3.56662 7.47359C2.98488 9.21407 3.42935 11.101 4.72644 12.3981C6.02391 13.6956 7.91107 14.1403 9.65148 13.5586V13.5585Z"
        fill="#3C74FF"></path>
    <path
        d="M3.53306 4.40754C5.65289 2.28778 8.92213 1.88926 11.4834 3.43843C11.8096 3.6357 12.2193 3.57647 12.4773 3.31835C12.5227 3.27295 12.5634 3.22135 12.5981 3.16395C12.8301 2.78033 12.7074 2.28121 12.3237 2.04916C9.12147 0.112235 5.03461 0.609975 2.38501 3.25949C-0.265268 5.90978 -0.762932 9.99679 1.17468 13.1984C1.40688 13.5819 1.90608 13.7047 2.28955 13.4725C2.67332 13.2405 2.79585 12.7413 2.56379 12.3577C1.01409 9.79715 1.41269 6.52782 3.53306 4.40746V4.40754Z"
        fill="#3C74FF"></path>
    <path
        d="M13.9603 4.52805C13.5761 4.76033 13.454 5.25937 13.6861 5.64292C15.2358 8.20339 14.8375 11.4723 12.7174 13.5924C10.5974 15.7124 7.32836 16.1108 4.76788 14.5611C4.38434 14.3291 3.88553 14.4507 3.65301 14.8354C3.42096 15.2188 3.54363 15.718 3.92726 15.9502C7.12879 17.8878 11.2156 17.3903 13.8654 14.7405C16.5154 12.0905 17.0128 8.00382 15.0752 4.80229C14.8429 4.41867 14.3438 4.29591 13.9603 4.52805Z"
        fill="#3C74FF"></path>
    <path
        d="M11.6232 11.0967C11.9278 11.2039 12.2533 11.1186 12.4673 10.9046C12.5505 10.8215 12.6168 10.7188 12.6585 10.6004C13.2696 8.86391 12.8241 6.90146 11.5234 5.60086C10.2225 4.29979 8.25993 3.85464 6.52403 4.46657C6.10135 4.61562 5.87931 5.07919 6.02828 5.50203C6.17733 5.92494 6.64098 6.14683 7.06389 5.9977C8.21384 5.5923 9.51361 5.88718 10.3753 6.74882C11.237 7.61039 11.532 8.91069 11.127 10.0613C10.9782 10.4843 11.2004 10.9478 11.6233 11.0966L11.6232 11.0967Z"
        fill="#3C74FF"></path>
    <path
        d="M7.10656 7.9818C6.54423 8.54421 6.54423 9.45607 7.10656 10.0184C7.66896 10.5808 8.58082 10.5808 9.14315 10.0184C9.70556 9.45607 9.70556 8.54421 9.14315 7.9818C8.58082 7.41948 7.66896 7.41948 7.10656 7.9818Z"
        fill="#3C74FF"></path>
    <path
        d="M30.7002 13.1501H27.7204V11.2419H30.7002V13.1501ZM30.1222 9.9502H26.4292V15.3504C26.4292 15.7068 26.7182 15.9958 27.0746 15.9958C27.431 15.9956 27.7203 15.7069 27.7205 15.3504V14.4419H30.1222C31.1542 14.4419 31.9914 13.6052 31.9914 12.5726V11.8194C31.9914 10.7868 31.1542 9.9502 30.1222 9.9502Z"
        fill="#3C74FF"></path>
    <path
        d="M37.0107 13.1501H34.0309V11.2419H37.0107V13.1501ZM36.4327 9.9502H32.7397V15.3504C32.7397 15.7068 33.0287 15.9958 33.385 15.9958C33.7415 15.9956 34.0308 15.7069 34.0309 15.3504V14.4419H36.4326C37.4646 14.4419 38.3019 13.6052 38.3019 12.5726V11.8194C38.3019 10.7868 37.4646 9.9502 36.4326 9.9502H36.4327Z"
        fill="#3C74FF"></path>
    <path
        d="M21.9359 13.23L22.629 11.2419H24.2582V13.23H21.9359ZM22.6906 9.9502C22.1709 9.9502 21.7046 10.2692 21.5162 10.7534L19.8412 15.0598C19.6657 15.5108 19.9985 15.9972 20.4824 15.9972C20.775 15.9972 21.0357 15.812 21.1321 15.5356L21.5074 14.4591H24.2582V15.3515C24.2582 15.7081 24.5472 15.9972 24.9038 15.9972C25.2604 15.9972 25.5494 15.7081 25.5494 15.3515V9.9502H22.6906Z"
        fill="#3C74FF"></path>
    <path
        d="M26.6365 6.18068V2.64849C26.6365 2.29193 26.9255 2.00293 27.2821 2.00293C27.6387 2.00293 27.9277 2.29193 27.9277 2.64849V6.75821H31.4183V2.64849C31.4183 2.29193 31.7073 2.00293 32.0638 2.00293C32.4204 2.00293 32.7095 2.29193 32.7095 2.64849V6.18068C32.7095 7.213 31.8725 8.04995 30.8402 8.04995H28.4046C27.3722 8.04995 26.6366 7.213 26.6366 6.18068H26.6365Z"
        fill="#3C74FF"></path>
    <path
        d="M41.1799 3.36239V4.41474H45.4509V5.70602H41.1799V6.75836H45.4509V8.0501H41.7579C40.7259 8.0501 39.8887 7.21338 39.8887 6.18083V3.94008C39.8887 2.90745 40.7259 2.0708 41.7579 2.0708H45.4509V3.36254H41.1799V3.36239Z"
        fill="#3C74FF"></path>
    <path
        d="M37.8889 5.26103H34.9096V3.35224H37.8889V5.26103ZM37.3109 2.06104H33.6179V7.46135C33.6179 7.81768 33.9069 8.10676 34.2638 8.10676C34.6199 8.10661 34.9097 7.81791 34.9097 7.46135V6.55285H37.3109C38.3429 6.55285 39.1801 5.7162 39.1801 4.68357V3.93039C39.1801 2.89784 38.343 2.06111 37.3109 2.06111V2.06104Z"
        fill="#3C74FF"></path>
    <path
        d="M50.7091 5.26103H47.7293V3.36233H50.7091V5.26103ZM52.0002 4.6835V3.93031C52.0002 2.89776 51.1631 2.06104 50.131 2.06104H46.438V8.10668H47.7293V6.55277H48.9101L50.3284 8.10668H51.9679L50.5443 6.50569C51.3776 6.31774 52.0002 5.57357 52.0002 4.6835Z"
        fill="#3C74FF"></path>
    <path
        d="M21.6457 3.35229V4.41426H24.3705C25.2245 4.41426 25.9168 5.10645 25.9168 5.96045V6.18028C25.9168 7.2126 25.0798 8.04948 24.0475 8.04948H20.4051V6.75774H24.6255V5.69584L21.9041 5.70195C21.0488 5.70386 20.3545 5.01106 20.3545 4.15576V3.92982C20.3545 2.8972 21.1917 2.06055 22.2237 2.06055H25.6373V3.35229H21.6456H21.6457Z"
        fill="#3C74FF"></path>
</svg>