<svg class="superapp-s" data-testid="platform-logo__superapp-white" fill="none" height="14" viewBox="0 0 45 14"
    width="45">
    <path
        d="M8.35245 10.9474C8.45928 10.9117 8.55175 10.8529 8.62629 10.7784C8.80859 10.5959 8.88333 10.3196 8.79602 10.0583C8.67299 9.69035 8.27506 9.4917 7.90703 9.61474C6.90937 9.9482 5.82764 9.69332 5.08397 8.94953C4.34057 8.206 4.08585 7.12438 4.41922 6.12664C4.54225 5.75858 4.34355 5.36063 3.97565 5.23759C3.60762 5.11455 3.20956 5.31346 3.08673 5.68119C2.5833 7.18749 2.96793 8.82054 4.09041 9.9431C5.21322 11.0661 6.84634 11.4509 8.35245 10.9475V10.9474Z"
        fill="white"></path>
    <path
        d="M3.05744 3.02598C4.8919 1.19144 7.72105 0.846538 9.9375 2.18727C10.2198 2.358 10.5743 2.30673 10.7976 2.08335C10.8369 2.04405 10.8721 1.9994 10.9022 1.94972C11.103 1.61771 10.9967 1.18576 10.6647 0.984923C7.89355 -0.691385 4.35686 -0.260616 2.06395 2.03241C-0.229558 4.3261 -0.660228 7.86321 1.01654 10.634C1.21749 10.966 1.64948 11.0722 1.98133 10.8712C2.31345 10.6705 2.41948 10.2385 2.21866 9.90645C0.877574 7.69042 1.22252 4.86099 3.05744 3.02592V3.02598Z"
        fill="white"></path>
    <path
        d="M12.0809 3.12895C11.7484 3.32998 11.6427 3.76187 11.8436 4.09381C13.1847 6.30977 12.84 9.13881 11.0053 10.9737C9.17066 12.8084 6.34171 13.1533 4.12593 11.8121C3.79401 11.6112 3.36235 11.7165 3.16114 12.0494C2.96032 12.3813 3.06648 12.8133 3.39847 13.0142C6.16901 14.6912 9.70564 14.2606 11.9987 11.9673C14.292 9.6739 14.7225 6.13706 13.0457 3.3663C12.8447 3.03429 12.4128 2.92805 12.0809 3.12895Z"
        fill="white"></path>
    <path
        d="M10.0586 8.81224C10.3222 8.90498 10.6039 8.83122 10.789 8.646C10.8611 8.5741 10.9184 8.48519 10.9545 8.38272C11.4834 6.87986 11.0978 5.18146 9.97228 4.05585C8.84643 2.92984 7.1481 2.54459 5.64588 3.07418C5.2801 3.20318 5.08795 3.60438 5.21686 3.97032C5.34585 4.33633 5.74708 4.52836 6.11306 4.3993C7.10821 4.04844 8.233 4.30365 8.97872 5.04936C9.72437 5.795 9.97969 6.92034 9.62919 7.91617C9.5004 8.28224 9.69269 8.68338 10.0587 8.81217L10.0586 8.81224Z"
        fill="white"></path>
    <path
        d="M6.14915 6.11891C5.66252 6.60564 5.66252 7.39481 6.14915 7.88147C6.63584 8.36821 7.42495 8.36821 7.91158 7.88147C8.39827 7.39481 8.39827 6.60564 7.91158 6.11891C7.42495 5.63224 6.63584 5.63224 6.14915 6.11891Z"
        fill="white"></path>
    <path
        d="M26.5671 10.5936H23.9885V8.94209H26.5671V10.5936ZM26.0669 7.82422H22.8711V12.4978C22.8711 12.8062 23.1212 13.0564 23.4296 13.0564C23.7381 13.0562 23.9884 12.8064 23.9885 12.4978V11.7115H26.0669C26.96 11.7115 27.6845 10.9874 27.6845 10.0938V9.44192C27.6845 8.5483 26.96 7.82422 26.0669 7.82422Z"
        fill="white"></path>
    <path
        d="M32.0282 10.5936H29.4496V8.94209H32.0282V10.5936ZM31.5281 7.82422H28.3323V12.4978C28.3323 12.8062 28.5824 13.0564 28.8907 13.0564C29.1992 13.0562 29.4495 12.8064 29.4496 12.4978V11.7115H31.528C32.4211 11.7115 33.1456 10.9874 33.1456 10.0938V9.44192C33.1456 8.5483 32.4211 7.82422 31.528 7.82422H31.5281Z"
        fill="white"></path>
    <path
        d="M18.9829 10.6627L19.5827 8.94215H20.9927V10.6627H18.9829ZM19.636 7.82422C19.1863 7.82422 18.7828 8.10026 18.6197 8.51939L17.1702 12.2463C17.0184 12.6366 17.3064 13.0576 17.7251 13.0576C17.9784 13.0576 18.2039 12.8973 18.2874 12.6581L18.6121 11.7264H20.9927V12.4988C20.9927 12.8074 21.2428 13.0576 21.5513 13.0576C21.8599 13.0576 22.11 12.8074 22.11 12.4988V7.82422H19.636Z"
        fill="white"></path>
    <path
        d="M23.0508 4.56094V1.50402C23.0508 1.19543 23.3009 0.945312 23.6095 0.945312C23.9181 0.945312 24.1682 1.19543 24.1682 1.50402V5.06077H27.1889V1.50402C27.1889 1.19543 27.439 0.945312 27.7475 0.945312C28.0561 0.945312 28.3063 1.19543 28.3063 1.50402V4.56094C28.3063 5.45436 27.582 6.17871 26.6886 6.17871H24.5808C23.6875 6.17871 23.0508 5.45436 23.0508 4.56094H23.0508Z"
        fill="white"></path>
    <path
        d="M35.6362 2.11976V3.03051H39.3323V4.14805H35.6362V5.0588H39.3323V6.17674H36.1364C35.2433 6.17674 34.5188 5.4526 34.5188 4.55897V2.61972C34.5188 1.72603 35.2433 1.00195 36.1364 1.00195H39.3323V2.11989H35.6362V2.11976Z"
        fill="white"></path>
    <path
        d="M32.7883 3.76163H30.2101V2.10966H32.7883V3.76163ZM32.2881 0.992188H29.0923V5.66589C29.0923 5.97428 29.3424 6.22446 29.6512 6.22446C29.9594 6.22433 30.2101 5.97448 30.2101 5.66589V4.87963H32.2881C33.1812 4.87963 33.9057 4.15555 33.9057 3.26186V2.61002C33.9057 1.7164 33.1813 0.992254 32.2881 0.992254V0.992188Z"
        fill="white"></path>
    <path
        d="M43.8826 3.76163H41.304V2.11839H43.8826V3.76163ZM45 3.2618V2.60995C45 1.71633 44.2755 0.992188 43.3824 0.992188H40.1865V6.22439H41.304V4.87956H42.3258L43.5532 6.22439H44.972L43.7401 4.83881C44.4611 4.67615 45 4.03211 45 3.2618Z"
        fill="white"></path>
    <path
        d="M18.7321 2.11012V3.02921H21.0901C21.8292 3.02921 22.4282 3.62827 22.4282 4.36736V4.55761C22.4282 5.45103 21.704 6.17531 20.8106 6.17531H17.6585V5.05737H21.3108V4.13835L18.9558 4.14364C18.2156 4.1453 17.6147 3.54571 17.6147 2.80549V2.60995C17.6147 1.71627 18.3392 0.992188 19.2323 0.992188H22.1864V2.11012H18.7321H18.7321Z"
        fill="white"></path>
</svg>