<svg width="22" height="22" viewBox="0 0 20 20" fill="none" xmlns="http://www.w3.org/2000/svg">
  <path
    d="M7.76935 5.18307C6.06935 7.0914 4.90268 9.83307 4.79435 10.0914L2.91102 9.28307C2.36935 9.04974 2.23602 8.3414 2.65268 7.92474L5.16102 5.4164C5.55268 5.02474 6.11935 4.84974 6.66935 4.95807L7.76935 5.18307ZM9.01102 13.6497C9.26102 13.8997 9.62768 13.9664 9.94435 13.8164C10.911 13.3664 12.986 12.3081 14.3277 10.9664C18.1527 7.1414 18.186 4.02474 17.961 2.6914C17.9027 2.35807 17.636 2.0914 17.3027 2.03307C15.9693 1.80807 12.8527 1.8414 9.02768 5.6664C7.68602 7.00807 6.63602 9.08307 6.17768 10.0497C6.02768 10.3664 6.10268 10.7414 6.34435 10.9831L9.01102 13.6497ZM14.8193 12.2331C12.911 13.9331 10.1693 15.0997 9.91102 15.2081L10.7193 17.0914C10.9527 17.6331 11.661 17.7664 12.0777 17.3497L14.586 14.8414C14.9777 14.4497 15.1527 13.8831 15.0443 13.3331L14.8193 12.2331ZM7.56102 14.3997C7.72768 15.2831 7.43602 16.0997 6.87768 16.6581C6.23602 17.2997 4.24435 17.7747 2.95268 18.0247C2.37768 18.1331 1.86935 17.6247 1.97768 17.0497C2.22768 15.7581 2.69435 13.7664 3.34435 13.1247C3.90268 12.5664 4.71935 12.2747 5.60268 12.4414C6.57768 12.6247 7.37768 13.4247 7.56102 14.3997ZM10.9444 7.3914C10.9444 6.47474 11.6944 5.72474 12.611 5.72474C13.5277 5.72474 14.2777 6.47474 14.2777 7.3914C14.2777 8.30807 13.5277 9.05807 12.611 9.05807C11.6944 9.05807 10.9444 8.30807 10.9444 7.3914Z"
    fill="white" />
</svg>