<svg class="h-4" fill="none" height="28" viewBox="0 0 64 28" width="64">
    <path
        d="M31.8455 0.71582C34.5868 0.715938 36.8093 2.90807 36.8093 5.6123V23.1035C36.8092 25.8076 34.5867 27.9999 31.8455 28C29.1041 28 26.8817 25.8077 26.8816 23.1035V5.6123C26.8816 2.908 29.104 0.71582 31.8455 0.71582ZM43.0515 0C45.7929 0 48.0154 2.1922 48.0154 4.89648V23.1035C48.0154 25.8078 45.793 28 43.0515 28C40.3103 27.9997 38.0886 25.8077 38.0886 23.1035V4.89648C38.0886 2.19236 40.3103 0.000258421 43.0515 0ZM8.21362 9.24121C8.76605 9.10266 9.32125 9.45859 9.41479 10.0137L9.80737 12.3486C9.89661 12.8785 9.57735 13.394 9.05737 13.5557C8.17186 13.8316 6.77467 14.2755 5.50659 14.7207C4.51497 15.0696 4.48726 16.4408 5.46362 16.8301C6.33437 17.1771 7.2358 17.5566 8.01733 17.8672L8.01831 17.8652C9.73435 18.5466 11.3229 20.0099 11.323 22.6777C11.323 25.3456 9.59983 27.9804 4.5144 27.9805C2.99138 27.9805 1.79898 27.8461 0.875732 27.6582C0.284002 27.537 -0.0985006 26.9686 0.0222168 26.3848L0.480225 24.165C0.602924 23.5709 1.19881 23.1928 1.79858 23.3291C2.85557 23.5695 3.99068 23.8196 4.84351 23.9863C5.46902 24.1091 6.0846 23.7372 6.2605 23.1328C6.44549 22.4948 6.07538 21.8285 5.42944 21.6406C5.05794 21.5331 4.63993 21.3988 4.20581 21.2295C2.33879 20.5015 0.179443 19.1097 0.179443 16.2363C0.179638 12.3989 3.38181 11.3116 5.29175 10.3662C6.56849 9.73395 7.54779 9.4088 8.21362 9.24121ZM61.4783 22.8594C62.8699 22.8596 63.9978 23.9729 63.9978 25.3457C63.9977 26.7184 62.8698 27.8308 61.4783 27.8311C60.0865 27.8311 58.9579 26.7186 58.9578 25.3457C58.9578 23.9728 60.0865 22.8594 61.4783 22.8594ZM49.324 2.09375C49.324 1.56733 49.8095 1.16964 50.3337 1.26855C51.976 1.5775 53.954 2.03616 55.9978 2.65234C57.7078 3.16864 59.0243 4.52956 59.4568 6.23926C59.7786 7.51143 59.87 8.88739 59.906 10.3398C59.9069 10.5657 59.9064 10.8069 59.9021 11.0615C59.8841 12.1559 59.7717 13.2714 59.5417 14.3057C59.1025 16.2751 57.2568 17.6092 55.238 17.4639C55.106 17.4537 54.9752 17.442 54.8474 17.4268C54.3935 17.3726 53.8919 17.3163 53.7195 17.2969C53.7195 18.4979 53.7185 24.6045 53.7185 26.8398C53.7184 27.3027 53.338 27.6786 52.8679 27.6787H50.1726C49.7024 27.6787 49.3211 27.3027 49.321 26.8389L49.324 2.09375ZM25.0994 2.6875C25.6862 2.51169 26.2625 2.98607 26.1921 3.58691C25.6499 8.1999 24.0722 22.3362 23.5007 26.9365C23.4483 27.3579 23.0848 27.6738 22.655 27.6738H20.2117C19.8221 27.6738 19.4817 27.4123 19.3865 27.0391L18.1091 21.7832L16.7009 27.0488C16.6022 27.4169 16.2647 27.6747 15.8787 27.6748H13.3796C12.9353 27.6747 12.5663 27.3361 12.532 26.8994C12.2402 23.1468 11.353 11.7306 11.1111 8.55664C11.0847 8.2073 11.281 7.87797 11.6042 7.73242C12.5541 7.30498 13.5081 6.8876 14.4666 6.48047C15.0121 6.24987 15.6246 6.62735 15.6531 7.21191C15.7758 9.74436 16.0108 14.9491 16.1472 17.9844L17.073 14.3164C17.1176 14.142 17.2566 14.0063 17.4333 13.9648L18.6853 13.6572C18.941 13.598 19.1996 13.7495 19.2673 14C19.5505 15.0418 19.9565 16.5347 20.2859 17.7236L21.4617 4.41016L21.4607 4.40918C21.4899 4.07569 21.7161 3.7922 22.0378 3.68555C22.9816 3.37323 24.0621 2.99811 25.0994 2.6875ZM31.8474 4.88477C31.531 4.88498 31.2743 5.13807 31.2742 5.4502V23.2637C31.2744 23.5757 31.5311 23.8289 31.8474 23.8291C32.1639 23.8291 32.4204 23.5758 32.4207 23.2637V5.4502C32.4206 5.13794 32.164 4.88477 31.8474 4.88477ZM43.0544 4.16992C42.7379 4.16999 42.4812 4.42307 42.4812 4.73535V23.2637C42.4812 23.576 42.7379 23.829 43.0544 23.8291C43.3711 23.8291 43.6277 23.576 43.6277 23.2637V4.73535C43.6277 4.42302 43.3711 4.16992 43.0544 4.16992ZM53.7185 12.8125L54.1746 12.8877C54.2063 12.8936 54.3624 12.9131 54.3933 12.9131C54.8232 12.9156 55.2146 12.6367 55.2849 12.1982V12.1973C55.3733 11.648 55.4201 10.9325 55.4021 10.043C55.3789 8.85305 55.2347 7.93704 55.0759 7.29297C54.9987 6.97903 54.7456 6.74016 54.4333 6.66992C54.2264 6.62334 53.7185 6.51172 53.7185 6.51172V12.8125Z"
        fill="#FF0000"></path>
</svg>