<svg width="10" height="10" viewBox="0 0 10 10" fill="none" xmlns="http://www.w3.org/2000/svg">
<path d="M8.44558 1.099C8.61838 0.926702 8.84834 0.83145 9.08693 0.833341C9.32551 0.835231 9.55407 0.934116 9.72436 1.10913C9.89466 1.28414 9.99337 1.5216 9.99968 1.77138C10.006 2.02117 9.91939 2.26376 9.75816 2.44795L4.86357 8.85869C4.7794 8.95363 4.67782 9.02982 4.5649 9.0827C4.45198 9.13559 4.33003 9.16408 4.20636 9.16648C4.08268 9.16888 3.95981 9.14513 3.8451 9.09666C3.73038 9.04819 3.62618 8.976 3.53872 8.88439L0.292827 5.48502C0.202435 5.39681 0.129933 5.29044 0.0796475 5.17224C0.0293621 5.05405 0.00232279 4.92646 0.000143182 4.79709C-0.00203643 4.66771 0.0206883 4.5392 0.0669613 4.41922C0.113234 4.29925 0.182108 4.19026 0.269473 4.09876C0.356838 4.00727 0.460905 3.93514 0.575465 3.88668C0.690026 3.83822 0.812734 3.81442 0.936267 3.8167C1.0598 3.81898 1.18163 3.8473 1.29449 3.89996C1.40734 3.95263 1.50892 4.02856 1.59315 4.12322L4.16189 6.81214L8.42227 1.12726C8.42994 1.11737 8.43813 1.10793 8.4468 1.099H8.44558Z" fill="white"/>
</svg>
