<svg class="tktge" data-testid="platform-logo__tkt" fill="none" height="14" viewBox="0 0 58 14" width="58">
    <path
        d="M33 0H0V4.10526C1.5424 4.10526 2.78925 5.39713 2.78925 6.99521C2.78925 8.5933 1.5424 9.88517 0 9.88517V14H33"
        fill="#009DF6"></path>
    <path
        d="M33 14H58V9.88517C56.4634 9.88517 55.2212 8.5933 55.2212 6.99521C55.2212 5.39713 56.4634 4.10526 58 4.10526V0H33"
        fill="#FF005F"></path>
    <path d="M9.38647 11.8301H6.55556V4.23082H5V1.83008H11V4.23082H9.37681V11.8301H9.38647Z" fill="white"></path>
    <path
        d="M20 11.8301H17.2141L15.5038 7.22251L15.5743 11.8301H13V1.83008H15.5743L15.5038 6.11447L17.029 1.83008H19.7531L17.6902 6.65926L20 11.8301Z"
        fill="white"></path>
    <path d="M25.6554 11.8301H23.2963V4.23082H22V1.83008H27V4.23082H25.6473V11.8301H25.6554Z" fill="white"></path>
    <path
        d="M42.4828 6.08142H46V6.48248C46 8.34523 45.7328 9.68213 45.1983 10.4932C44.6121 11.3844 43.75 11.8301 42.6035 11.8301C41.4741 11.8301 40.5948 11.3934 39.9569 10.5199C39.319 9.63757 39 8.42544 39 6.88355C39 5.32384 39.319 4.08498 39.9655 3.1848C40.6034 2.28462 41.4828 1.83008 42.5948 1.83008C44.069 1.83008 45.1379 2.6233 45.8017 4.21867L43.3621 5.14559C43.3276 4.84256 43.2414 4.60191 43.1121 4.42366C42.9828 4.24541 42.819 4.15628 42.6207 4.15628C41.931 4.15628 41.5776 5.14559 41.5776 7.11528C41.5776 7.95307 41.6552 8.55913 41.8103 8.94238C41.9655 9.32562 42.2069 9.51279 42.5431 9.51279C42.6724 9.51279 42.7931 9.47714 42.9052 9.41475C43.0172 9.35236 43.1035 9.25432 43.181 9.12954C43.2586 9.00477 43.3103 8.86216 43.3535 8.69282C43.3966 8.52348 43.4138 8.3274 43.4138 8.1135H42.4828V6.08142Z"
        fill="white"></path>
    <path d="M48 11.8209V1.83008H52.9908V4.18248H50.6838V5.64004H52.761V7.90019H50.693V9.43155H53V11.8301H48V11.8209Z"
        fill="white"></path>
    <path
        d="M33 9.83008C34.6569 9.83008 36 8.48693 36 6.83008C36 5.17322 34.6569 3.83008 33 3.83008C31.3431 3.83008 30 5.17322 30 6.83008C30 8.48693 31.3431 9.83008 33 9.83008Z"
        fill="white"></path>
</svg>