<svg xmlns="http://www.w3.org/2000/svg" class="w-[130px] h-10" data-testid="platform-logo__tnet" fill="none" height="33"
  viewBox="0 0 125 33" width="125">
  <g clip-path="url(#clip0_859_1272)">
    <path
      d="M79.7025 6.48223C78.5061 6.4624 77.532 7.42622 77.532 8.61442V19.0759L66.5093 6.65222H62.2948L62.3019 24.3463C62.3019 25.5362 63.2762 26.4969 64.4723 26.4768C65.6455 26.457 66.5643 25.4492 66.5643 24.2763V13.446L78.1528 26.1462L81.7004 26.1527L81.7944 8.68298C81.7944 7.5098 80.8754 6.50235 79.7025 6.48223ZM122.54 6.55164H105.423V10.8143H112.298V24.346C112.298 25.5232 113.253 26.4774 114.43 26.4774C115.607 26.4774 116.561 25.5232 116.561 24.346V10.8143H122.54C123.717 10.8143 124.671 9.86013 124.671 8.68298C124.671 7.50583 123.717 6.55164 122.54 6.55164ZM40.5613 8.68298C40.5613 9.86013 41.5155 10.8143 42.6926 10.8143H48.6713V24.346C48.6713 25.5232 49.6255 26.4774 50.8026 26.4774C51.9798 26.4774 52.934 25.5232 52.934 24.346V10.8143H59.8099V6.55164H42.6926C41.5155 6.55164 40.5613 7.50583 40.5613 8.68298ZM84.5151 12.7213V20.1191C84.5151 23.5267 87.2776 26.2893 90.6853 26.2893H102.876V22.0252H88.7777V18.5515H102.876V14.2891H88.7777V10.8155H102.876V6.55136H90.6853C87.2776 6.55136 84.5151 9.31361 84.5151 12.7213ZM14.4322 14.4319C13.2902 15.5739 13.2902 17.4256 14.4322 18.5677C15.5742 19.7097 17.4259 19.7097 18.5679 18.5677C19.71 17.4254 19.71 15.5739 18.5679 14.4319C17.4259 13.2899 15.5742 13.2899 14.4322 14.4319ZM23.604 20.7582C24.2225 20.9758 24.8838 20.803 25.3184 20.3684C25.4872 20.1992 25.6221 19.9907 25.7065 19.7505C26.9474 16.2241 26.0428 12.2391 23.4015 9.59751C20.7593 6.95564 16.7743 6.05132 13.2488 7.2942C12.3907 7.59677 11.9396 8.53821 12.2422 9.39692C12.5448 10.2556 13.4865 10.7064 14.3452 10.4035C16.6802 9.58022 19.3201 10.1791 21.0698 11.9291C22.8196 13.6786 23.4185 16.319 22.5963 18.6561C22.294 19.5148 22.7453 20.4559 23.604 20.7582ZM28.3503 7.41829C27.5704 7.89 27.3219 8.9034 27.7936 9.6825C30.9406 14.8821 30.1318 21.5206 25.8266 25.8261C21.5214 30.1312 14.8829 30.9404 9.68306 27.7934C8.90424 27.3219 7.89141 27.5693 7.41913 28.3503C6.94771 29.1292 7.19702 30.1428 7.97584 30.6143C14.4775 34.5492 22.7768 33.5389 28.158 28.1577C33.5392 22.7765 34.5494 14.4772 30.6145 7.97556C30.1431 7.19646 29.1294 6.94686 28.3503 7.41829ZM7.17464 7.17379C11.4795 2.8689 18.1186 2.05977 23.3199 5.20592C23.9823 5.60652 24.8143 5.4864 25.3385 4.96199C25.4305 4.86992 25.5133 4.76509 25.5838 4.64837C26.055 3.86927 25.8056 2.85587 25.0263 2.38444C18.5235 -1.54903 10.2239 -0.53818 4.84328 4.84244C-0.538751 10.2245 -1.54932 18.5243 2.38557 25.026C2.857 25.8048 3.87068 26.0541 4.6495 25.5827C5.42888 25.1115 5.67791 24.0979 5.2062 23.3188C2.0592 18.1189 2.86861 11.4798 7.17464 7.17379ZM19.6 25.7572C19.8508 25.6733 20.0675 25.5357 20.2426 25.3606C20.6704 24.9325 20.8457 24.284 20.6409 23.6712C20.3522 22.8077 19.4184 22.3416 18.5549 22.6303C16.2136 23.4125 13.6752 22.8145 11.93 21.0693C10.1857 19.3249 9.58787 16.7868 10.3701 14.4458C10.6588 13.5823 10.1927 12.6482 9.32921 12.3595C8.46568 12.0705 7.53132 12.5374 7.2432 13.4004C6.0618 16.9347 6.96442 20.7667 9.59835 23.4006C12.2334 26.0357 16.0657 26.9386 19.6 25.7572Z"
      fill="#3C74FF"></path>
  </g>
  <defs>
    <clipPath id="clip0_859_1272">
      <rect fill="white" height="33" width="125"></rect>
    </clipPath>
  </defs>
</svg>