<svg xmlns="http://www.w3.org/2000/svg" data-testid="platform-logo__tnet-white" fill="none" height="33"
  viewBox="0 0 126 33" width="126">
  <path
    d="M78.9626 5.89293C77.8974 5.8749 77.0301 6.7511 77.0301 7.83128V17.3417L67.2161 6.04747H63.4638L63.4701 22.133C63.4701 23.2147 64.3375 24.0881 65.4025 24.0698C66.447 24.0518 67.2651 23.1356 67.2651 22.0693V12.2236L77.5828 23.7692L80.7414 23.7752L80.8251 7.89361C80.8251 6.82708 80.0069 5.91122 78.9626 5.89293ZM117.103 5.95603H101.863V9.83117H107.984V22.1327C107.984 23.2029 108.834 24.0703 109.882 24.0703C110.93 24.0703 111.779 23.2029 111.779 22.1327V9.83117H117.103C118.151 9.83117 119 8.96375 119 7.89361C119 6.82347 118.151 5.95603 117.103 5.95603ZM44.1135 7.89361C44.1135 8.96375 44.9631 9.83117 46.0111 9.83117H51.3342V22.1327C51.3342 23.2029 52.1837 24.0703 53.2318 24.0703C54.2799 24.0703 55.1294 23.2029 55.1294 22.1327V9.83117H61.2514V5.95603H46.0111C44.9631 5.95603 44.1135 6.82347 44.1135 7.89361ZM83.2475 11.5648V18.2901C83.2475 21.3879 85.707 23.8993 88.7411 23.8993H99.595V20.0229H87.0426V16.865H99.595V12.9901H87.0426V9.83226H99.595V5.95578H88.7411C85.707 5.95578 83.2475 8.46691 83.2475 11.5648ZM20.8496 13.1199C19.8328 14.1581 19.8328 15.8414 20.8496 16.8797C21.8664 17.9179 23.515 17.9179 24.5318 16.8797C25.5487 15.8413 25.5487 14.1581 24.5318 13.1199C23.515 12.0817 21.8664 12.0817 20.8496 13.1199ZM29.0157 18.8711C29.5663 19.0689 30.1551 18.9118 30.5421 18.5167C30.6924 18.3629 30.8125 18.1733 30.8876 17.955C31.9924 14.7492 31.187 11.1264 28.8354 8.725C26.4829 6.3233 22.9349 5.50119 19.796 6.63108C19.032 6.90615 18.6303 7.762 18.8998 8.54265C19.1692 9.32326 20.0076 9.73308 20.7722 9.45772C22.8511 8.70928 25.2015 9.25372 26.7594 10.8446C28.3173 12.4351 28.8505 14.8354 28.1185 16.9601C27.8493 17.7407 28.2511 18.5963 29.0157 18.8711ZM33.2415 6.74389C32.5471 7.17272 32.3259 8.09399 32.7459 8.80226C35.5478 13.5292 34.8277 19.5642 30.9945 23.4782C27.1614 27.392 21.2509 28.1276 16.6212 25.2667C15.9278 24.8381 15.0261 25.063 14.6056 25.773C14.1858 26.4811 14.4078 27.4025 15.1012 27.8312C20.8899 31.4083 28.2792 30.4899 33.0703 25.5979C37.8614 20.7059 38.7608 13.1611 35.2574 7.2505C34.8377 6.54223 33.9352 6.31532 33.2415 6.74389ZM14.3879 6.52162C18.2207 2.60809 24.1318 1.87252 28.7627 4.73265C29.3525 5.09683 30.0933 4.98763 30.56 4.5109C30.6419 4.4272 30.7156 4.3319 30.7784 4.22579C31.1979 3.51751 30.9758 2.59624 30.282 2.16767C24.4923 -1.40821 17.1028 -0.489254 12.3122 4.40221C7.52033 9.29499 6.62057 16.8403 10.124 22.7509C10.5437 23.4589 11.4462 23.6855 12.1397 23.257C12.8336 22.8286 13.0553 21.9072 12.6353 21.1989C9.8334 16.4717 10.554 10.4362 14.3879 6.52162ZM25.4507 23.4156C25.674 23.3393 25.867 23.2142 26.0229 23.0551C26.4038 22.6659 26.5598 22.0763 26.3775 21.5193C26.1204 20.7343 25.289 20.3105 24.5202 20.573C22.4357 21.2841 20.1756 20.7404 18.6218 19.1539C17.0688 17.5681 16.5365 15.2607 17.233 13.1325C17.49 12.3475 17.075 11.4984 16.3062 11.2359C15.5374 10.9732 14.7055 11.3976 14.4489 12.1822C13.3971 15.3952 14.2007 18.8788 16.5458 21.2733C18.8919 23.6688 22.304 24.4896 25.4507 23.4156Z"
    fill="white"></path>
</svg>