<svg xmlns="http://www.w3.org/2000/svg" fill="none" viewBox="0 0 80 22" class="fill-[#3C74FF]" width="80" height="22">
  <path
    d="M51.004 4.148a1.365 1.365 0 0 0-1.39 1.365v6.694l-7.053-7.95h-2.697l.005 11.323c0 .761.623 1.376 1.389 1.363.75-.013 1.338-.657 1.338-1.408v-6.93l7.416 8.127 2.27.004.06-11.18c0-.75-.588-1.395-1.338-1.408m27.413.045H67.463V6.92h4.4v8.66a1.364 1.364 0 1 0 2.728 0V6.92h3.826a1.364 1.364 0 0 0 0-2.727m-52.46 1.363c0 .754.61 1.364 1.363 1.364h3.826v8.66a1.364 1.364 0 1 0 2.728 0V6.92h4.4V4.193H27.32c-.753 0-1.364.61-1.364 1.363m28.126 2.585v4.734a3.95 3.95 0 0 0 3.949 3.948h7.8v-2.729h-9.02v-2.222h9.02V9.144h-9.02V6.921h9.02V4.192h-7.8a3.95 3.95 0 0 0-3.949 3.949M9.236 9.235a1.871 1.871 0 1 0 2.646 2.647 1.871 1.871 0 0 0-2.646-2.647m5.869 4.049a1.055 1.055 0 0 0 1.345-.645 6.29 6.29 0 0 0-1.475-6.497 6.28 6.28 0 0 0-6.497-1.474 1.055 1.055 0 0 0 .702 1.99 4.16 4.16 0 0 1 4.303.976 4.16 4.16 0 0 1 .977 4.304c-.194.55.095 1.152.645 1.346m3.037-8.537c-.499.302-.658.95-.356 1.45a8.42 8.42 0 0 1-1.259 10.33 8.42 8.42 0 0 1-10.33 1.259 1.054 1.054 0 1 0-1.093 1.805 10.52 10.52 0 0 0 12.915-1.572 10.52 10.52 0 0 0 1.572-12.915 1.055 1.055 0 0 0-1.449-.357m-13.55-.156a8.42 8.42 0 0 1 10.331-1.26 1.055 1.055 0 1 0 1.092-1.805A10.525 10.525 0 0 0 3.099 3.099a10.52 10.52 0 0 0-1.572 12.916 1.055 1.055 0 0 0 1.805-1.093 8.42 8.42 0 0 1 1.26-10.331m7.95 11.892a1.05 1.05 0 0 0 .667-1.335 1.055 1.055 0 0 0-1.335-.666 4.12 4.12 0 0 1-4.24-1 4.12 4.12 0 0 1-.998-4.238 1.055 1.055 0 0 0-2-.669 6.21 6.21 0 0 0 1.506 6.4 6.22 6.22 0 0 0 6.4 1.508">
  </path>
</svg>