<svg width="80" height="22" viewBox="0 0 80 22" fill="none" xmlns="http://www.w3.org/2000/svg">
    <path
        d="M51.0037 4.14815C50.2381 4.13546 49.6148 4.75223 49.6148 5.51259V12.2072L42.561 4.25693H39.8641L39.8686 15.5798C39.8686 16.3413 40.4921 16.9561 41.2575 16.9432C42.0083 16.9305 42.5962 16.2856 42.5962 15.5351V8.60444L50.012 16.7316L52.2822 16.7358L52.3424 5.55647C52.3424 4.80572 51.7543 4.16102 51.0037 4.14815ZM78.4167 4.19257H67.4628V6.92037H71.8627V15.5797C71.8627 16.333 72.4733 16.9436 73.2266 16.9436C73.9799 16.9436 74.5905 16.333 74.5905 15.5797V6.92037H78.4166C79.1697 6.92037 79.7805 6.30976 79.7805 5.55647C79.7805 4.80318 79.1697 4.19257 78.4166 4.19257H78.4167ZM25.9562 5.55647C25.9562 6.30976 26.5668 6.92037 27.3201 6.92037H31.146V15.5797C31.146 16.333 31.7566 16.9436 32.5099 16.9436C33.2632 16.9436 33.8738 16.333 33.8738 15.5797V6.92037H38.2739V4.19257H27.3201C26.5668 4.19257 25.9562 4.80318 25.9562 5.55647ZM54.0834 8.14068V12.8747C54.0834 15.0554 55.8512 16.8232 58.0319 16.8232H65.8327V14.0945H56.8112V11.8716H65.8327V9.14398H56.8112V6.92109H65.8327V4.19239H58.0319C55.8512 4.19239 54.0834 5.96022 54.0834 8.14086V8.14068ZM9.23553 9.23535C8.50472 9.96616 8.50472 11.1511 9.23553 11.8819C9.96634 12.6127 11.1513 12.6127 11.8821 11.8819C12.6129 11.1509 12.6129 9.96616 11.8821 9.23535C11.1513 8.50454 9.96634 8.50454 9.23553 9.23535ZM15.1048 13.2837C15.5006 13.423 15.9238 13.3124 16.2019 13.0343C16.3099 12.926 16.3962 12.7926 16.4503 12.6388C17.2443 10.3822 16.6655 7.83211 14.9752 6.14169C13.2844 4.4511 10.7343 3.8724 8.47825 4.66775C7.9291 4.86137 7.64048 5.46382 7.8341 6.01334C8.02773 6.56285 8.63036 6.85129 9.17987 6.65748C10.6741 6.13063 12.3635 6.5139 13.4831 7.63377C14.6028 8.75328 14.9861 10.443 14.46 11.9385C14.2665 12.488 14.5553 13.0903 15.1048 13.2837ZM18.1421 4.74716C17.643 5.04902 17.484 5.69752 17.7859 6.19608C19.7997 9.52343 19.2821 13.7716 16.5271 16.5268C13.7721 19.2818 9.52397 19.7995 6.19644 17.7857C5.69806 17.484 5.04992 17.6423 4.7477 18.1421C4.44602 18.6405 4.60556 19.2892 5.10395 19.5909C9.26454 22.1089 14.5755 21.4624 18.019 18.0188C21.4626 14.5753 22.1091 9.26436 19.591 5.10377C19.2894 4.6052 18.6407 4.44566 18.1421 4.74734V4.74716ZM4.59124 4.5907C7.34605 1.83589 11.5946 1.3181 14.923 3.33141C15.3469 3.58776 15.8793 3.51089 16.2147 3.17531C16.2737 3.11639 16.3266 3.04931 16.3717 2.97461C16.6732 2.47605 16.5137 1.82755 16.015 1.52587C11.8536 -0.991264 6.54254 -0.344396 3.09934 3.0988C-0.344761 6.54291 -0.991449 11.8542 1.52659 16.0148C1.82827 16.5132 2.47695 16.6727 2.97533 16.371C3.47408 16.0695 3.63344 15.4209 3.33158 14.9223C1.31773 11.5948 1.8357 7.34623 4.59124 4.5907ZM12.5426 16.4827C12.703 16.429 12.8417 16.3409 12.9538 16.2289C13.2275 15.955 13.3397 15.54 13.2087 15.1478C13.0239 14.5952 12.4264 14.297 11.8738 14.4817C10.3755 14.9823 8.7511 14.5996 7.63431 13.4828C6.51806 12.3665 6.13553 10.7423 6.63609 9.24423C6.82083 8.69164 6.5226 8.0939 5.97 7.90916C5.41741 7.72424 4.81949 8.02302 4.63511 8.57525C3.8791 10.8369 4.45671 13.2892 6.14223 14.9747C7.82848 16.6609 10.2809 17.2387 12.5426 16.4827Z"
        fill="white"></path>
</svg>