<svg xmlns="http://www.w3.org/2000/svg" width="24" height="24" fill="none" class="mr-1 shrink-0">
    <path fill="#A4AEC1" fill-rule="evenodd"
        d="M5.823 8.84C7.37 7.075 9.36 6 11.8 6s4.43 1.075 5.977 2.84a10.9 10.9 0 0 1 1.421 2.07l.151.295.115.247.082.193a.8.8 0 0 1-.006.594c-.283.69-.86 1.68-1.778 2.672C16.215 16.584 14.23 17.6 11.8 17.6s-4.415-1.016-5.962-2.69c-.918-.991-1.495-1.982-1.778-2.67a.8.8 0 0 1-.005-.595l.08-.193.116-.247.15-.295.09-.164c.357-.65.8-1.298 1.332-1.906m10.75 1.055C15.308 8.45 13.733 7.6 11.8 7.6c-1.934 0-3.508.85-4.773 2.295a9.3 9.3 0 0 0-1.21 1.76l-.138.27.13.24.073.128c.304.522.68 1.045 1.13 1.531C8.277 15.192 9.855 16 11.8 16s3.523-.808 4.788-2.176a8.7 8.7 0 0 0 1.203-1.659l.129-.24-.138-.27-.073-.136a9.3 9.3 0 0 0-1.136-1.624"
        clip-rule="evenodd"></path>
    <path fill="#A4AEC1" fill-rule="evenodd"
        d="M9 11.799a2.8 2.8 0 0 1 5.6 0 2.8 2.8 0 0 1-5.6 0m4 0a1.2 1.2 0 0 0-2.4 0 1.2 1.2 0 0 0 2.4 0"
        clip-rule="evenodd"></path>
</svg>