<svg width="22" height="22" viewBox="0 0 19 18" fill="none" xmlns="http://www.w3.org/2000/svg">
  <path
    d="M4.10519 17.7325C3.77908 17.7325 3.5275 17.4437 3.57409 17.1175L4.41267 11.2102H1.15153C0.331587 11.2102 0.844052 10.5114 0.862687 10.4835C2.0367 8.40565 3.79771 5.33086 6.1271 1.23115C6.22027 1.06343 6.40662 0.960938 6.59297 0.960938C6.91909 0.960938 7.17066 1.24978 7.12407 1.5759L6.28549 7.48321H9.55595C9.92865 7.48321 10.1336 7.66025 9.92865 8.09817C6.86318 13.4464 5.08353 16.5678 4.57107 17.4623C4.47789 17.63 4.30086 17.7325 4.10519 17.7325Z"
    fill="white" />
  <path
    d="M14.0432 7.17298C14.0432 6.57262 14.5299 6.08594 15.1303 6.08594C15.7306 6.08594 16.2173 6.57262 16.2173 7.17298V11.5212C16.2173 12.1215 15.7306 12.6082 15.1303 12.6082C14.5299 12.6082 14.0432 12.1215 14.0432 11.5212V7.17298Z"
    fill="white" />
  <path
    d="M17.3044 8.26003C17.9047 8.26003 18.3914 8.74672 18.3914 9.34708C18.3914 9.94744 17.9047 10.4341 17.3044 10.4341H12.9562C12.3558 10.4341 11.8691 9.94743 11.8691 9.34708C11.8691 8.74672 12.3558 8.26003 12.9562 8.26003H17.3044Z"
    fill="white" />
</svg>